<?xml version="1.0" encoding="UTF-8" standalone="no"?>
<!DOCTYPE svg PUBLIC "-//W3C//DTD SVG 1.1//EN" "http://www.w3.org/Graphics/SVG/1.1/DTD/svg11.dtd">
<svg xmlns="http://www.w3.org/2000/svg" version="1.1" viewBox="0.00 0.00 1448.00 1448.00">
<path fill="#ffffff" d="
  M 473.48 323.48
  C 475.32 295.72 484.66 268.64 500.35 245.56
  C 514.51 224.75 536.38 212.36 561.04 209.21
  Q 564.80 208.73 568.39 208.09
  Q 572.23 207.40 575.57 207.58
  Q 585.70 208.13 596.10 210.64
  C 618.76 216.11 635.79 228.05 648.22 246.97
  Q 670.32 280.62 673.53 320.50
  Q 674.63 334.23 674.07 350.07
  C 672.99 380.38 664.42 408.41 647.70 433.83
  C 632.81 456.48 610.48 470.22 583.13 470.75
  Q 576.84 470.88 569.48 470.88
  C 542.76 470.88 520.68 460.63 504.49 438.68
  C 480.52 406.19 470.83 363.66 473.48 323.48
  Z
  M 527.98 312.31
  Q 521.58 354.45 533.09 391.34
  C 538.89 409.94 549.01 431.21 572.27 430.42
  Q 576.97 430.26 581.68 429.78
  C 592.76 428.65 600.81 419.89 605.38 410.20
  C 619.89 379.47 622.91 343.16 617.35 309.54
  Q 614.33 291.31 607.29 274.98
  C 601.71 262.04 592.74 251.47 578.20 249.98
  C 575.55 249.70 573.00 249.00 570.33 249.43
  C 555.11 251.92 545.21 262.96 538.88 276.52
  Q 530.78 293.85 527.98 312.31
  Z"
/>
<path fill="#ffffff" d="
  M 342.16 258.76
  L 335.94 318.55
  Q 335.73 320.55 337.72 320.26
  Q 353.14 318.07 368.98 318.24
  Q 389.46 318.47 406.91 324.32
  C 423.57 329.91 436.95 340.72 446.77 354.99
  C 454.24 365.84 458.66 379.71 457.48 393.24
  Q 457.25 395.95 457.02 398.58
  C 456.11 409.23 449.89 420.93 443.38 429.15
  Q 423.39 454.39 395.52 463.08
  Q 383.59 466.79 371.21 468.56
  C 350.22 471.57 328.58 471.49 307.27 468.70
  Q 294.96 467.08 283.10 465.59
  Q 282.34 465.49 282.24 464.73
  L 276.32 421.20
  A 0.64 0.64 0.0 0 1 277.23 420.54
  C 289.06 426.16 300.08 429.22 313.01 431.27
  C 339.12 435.42 367.93 431.68 385.75 411.02
  C 398.67 396.03 399.15 377.66 383.41 364.23
  C 372.73 355.12 358.83 351.35 344.73 350.17
  Q 327.89 348.77 312.68 350.36
  C 302.90 351.38 291.10 354.20 280.26 356.19
  A 0.66 0.65 85.8 0 1 279.49 355.52
  L 285.15 216.84
  A 0.76 0.76 0.0 0 1 285.91 216.11
  L 445.46 216.15
  A 0.57 0.56 -0.0 0 1 446.03 216.71
  L 446.03 257.24
  A 0.77 0.76 -0.0 0 1 445.26 258.00
  L 343.00 258.00
  Q 342.23 258.00 342.16 258.76
  Z"
/>
<rect fill="#ffffff" x="687.22" y="216.18" width="36.16" height="68.60" rx="0.70"/>
<path fill="#ffffff" d="
  M 1069.54 393.75
  Q 1069.15 391.28 1067.65 388.66
  Q 1062.59 379.81 1056.41 371.80
  Q 1034.28 343.06 1007.69 319.82
  C 1000.75 313.76 991.92 306.58 983.11 303.69
  Q 979.37 302.46 973.84 303.14
  Q 956.67 305.24 944.05 319.06
  Q 936.95 326.84 933.07 332.33
  Q 928.07 339.42 922.94 346.43
  C 915.88 356.08 907.07 365.26 895.27 368.03
  C 891.34 368.95 890.09 367.65 887.17 365.49
  Q 886.59 365.07 886.98 364.46
  L 942.82 278.53
  A 1.59 1.59 0.0 0 0 941.86 276.12
  C 925.01 271.99 911.96 262.29 909.08 244.03
  C 908.72 241.80 909.56 240.01 910.76 238.22
  A 1.57 1.57 0.0 0 1 912.59 237.62
  Q 914.03 238.13 915.40 238.94
  Q 948.52 258.54 975.13 274.14
  C 977.39 275.46 979.54 276.93 981.49 278.72
  Q 1034.28 327.29 1086.91 375.71
  A 2.48 2.47 48.6 0 0 1090.00 375.91
  C 1096.52 371.29 1105.04 364.98 1109.08 358.31
  C 1112.75 352.27 1104.76 344.62 1100.02 341.06
  Q 1090.28 333.76 1080.96 326.82
  Q 1070.51 319.03 1063.89 308.17
  Q 1058.45 299.23 1052.76 287.87
  Q 1046.10 274.54 1033.88 265.62
  C 1032.78 264.82 1031.74 264.32 1030.36 264.66
  Q 1016.27 268.19 1002.13 272.00
  A 0.86 0.86 0.0 0 1 1001.05 271.10
  Q 1002.17 255.43 1014.02 249.74
  Q 1018.84 247.42 1027.24 246.40
  Q 1033.98 245.59 1039.67 245.76
  C 1045.72 245.94 1051.73 251.29 1055.86 255.62
  C 1065.51 265.73 1074.46 278.05 1084.36 288.86
  C 1088.38 293.25 1093.50 296.89 1098.68 299.90
  Q 1108.68 305.72 1118.26 311.38
  C 1126.60 316.32 1137.40 323.98 1140.21 333.36
  Q 1141.63 338.07 1140.32 344.47
  Q 1138.57 352.98 1133.83 360.37
  Q 1129.73 366.76 1125.20 374.16
  Q 1122.98 377.79 1120.51 380.29
  C 1117.32 383.53 1114.05 386.76 1111.67 390.60
  C 1109.22 394.56 1110.78 401.81 1112.89 405.27
  Q 1115.49 409.56 1119.04 413.63
  Q 1123.50 418.77 1123.46 426.18
  Q 1123.43 430.86 1122.75 434.02
  Q 1121.65 439.17 1119.19 446.05
  A 0.46 0.46 0.0 0 1 1118.50 446.28
  Q 1117.55 445.66 1116.78 444.76
  Q 1099.32 424.32 1082.41 404.72
  A 0.94 0.94 0.0 0 0 1080.76 405.27
  L 1079.56 424.80
  A 0.89 0.89 0.0 0 1 1079.14 425.50
  Q 1067.59 432.64 1057.11 441.48
  Q 1035.97 459.31 1015.92 476.54
  Q 1010.57 481.15 1003.81 485.49
  Q 999.49 488.26 996.15 484.63
  C 994.35 482.67 992.84 478.82 990.09 478.38
  Q 980.57 476.86 972.99 482.94
  C 967.87 487.04 962.56 491.10 956.21 492.92
  Q 949.90 494.72 941.61 495.54
  C 940.30 495.66 939.42 494.87 939.04 493.69
  Q 936.72 486.44 932.89 481.45
  Q 926.92 473.68 924.30 468.84
  Q 918.67 458.44 917.99 447.23
  C 916.91 429.69 917.29 411.13 922.80 394.51
  C 926.03 384.77 931.94 375.16 941.00 370.86
  Q 944.93 368.99 950.24 368.31
  C 958.74 367.21 961.16 373.70 961.54 380.60
  Q 961.65 382.56 960.35 384.13
  C 950.18 396.37 940.11 407.59 939.83 424.64
  Q 939.62 436.84 939.82 449.69
  C 939.95 458.57 942.82 467.08 943.85 475.80
  A 1.28 1.28 0.0 0 0 945.70 476.79
  L 986.65 456.14
  A 1.49 1.47 -33.4 0 1 988.45 456.50
  L 997.26 466.98
  A 2.18 2.17 59.2 0 0 999.72 467.61
  C 1008.51 464.16 1016.54 458.94 1024.06 453.56
  Q 1039.32 442.65 1050.84 430.63
  C 1055.39 425.88 1061.65 418.75 1061.84 411.90
  Q 1062.03 405.52 1060.70 400.93
  Q 1059.58 397.04 1058.27 392.63
  Q 1058.05 391.87 1058.24 391.12
  Q 1058.40 390.51 1058.99 390.74
  L 1068.54 394.54
  A 0.74 0.73 6.5 0 0 1069.54 393.75
  Z"
/>
<path fill="#ffffff" d="
  M 692.72 394.14
  Q 694.87 386.81 696.21 380.26
  A 1.31 1.29 82.9 0 1 696.90 379.36
  C 720.89 367.13 746.91 356.82 773.51 352.20
  Q 779.94 351.08 788.62 350.98
  C 799.55 350.85 810.32 350.39 820.95 351.45
  Q 826.48 352.01 832.97 353.53
  Q 843.17 355.92 853.96 359.01
  Q 855.62 359.49 854.05 360.20
  Q 853.03 360.66 851.69 360.98
  Q 810.19 370.75 771.56 379.99
  Q 764.41 381.70 756.02 382.89
  Q 749.06 383.87 741.21 386.47
  C 722.16 392.78 704.97 402.10 687.63 413.06
  Q 687.09 413.41 687.27 412.79
  Q 689.96 403.50 692.72 394.14
  Z"
/>
<path fill="#ffffff" d="
  M 719.72 604.76
  L 713.76 604.75
  A 1.72 1.71 -87.1 0 1 712.06 602.86
  Q 714.00 583.13 717.04 564.01
  C 723.73 521.86 737.85 481.89 757.17 443.47
  Q 764.99 427.92 772.47 413.89
  Q 773.45 412.05 774.78 410.72
  Q 787.57 397.88 803.10 382.37
  A 3.82 3.82 0.0 0 1 805.78 381.25
  Q 817.62 381.18 829.80 381.29
  C 838.97 381.37 844.73 387.49 846.91 396.19
  Q 849.25 405.54 844.22 415.20
  A 0.98 0.97 39.5 0 1 842.59 415.35
  C 837.39 408.80 833.31 404.64 824.02 403.85
  Q 818.23 403.36 813.66 403.89
  C 807.46 404.61 801.38 409.19 797.19 413.69
  C 789.73 421.71 784.33 431.84 779.83 442.13
  Q 773.98 455.51 769.59 470.66
  Q 754.57 522.53 751.60 576.99
  A 1.02 1.01 2.5 0 0 752.59 578.06
  Q 764.68 578.36 777.33 577.12
  Q 783.89 576.48 791.18 575.87
  Q 803.67 574.82 816.66 573.63
  Q 819.19 573.40 821.05 572.77
  Q 821.55 572.60 821.69 572.08
  L 838.94 508.72
  A 1.66 1.65 9.0 0 1 840.61 507.51
  Q 841.87 507.58 843.43 508.13
  A 1.23 1.23 0.0 0 1 844.13 508.76
  Q 844.62 509.78 844.52 511.01
  Q 843.65 521.08 842.72 530.98
  Q 841.33 545.67 840.08 559.64
  Q 839.20 569.43 837.76 577.21
  Q 836.08 586.28 834.27 594.81
  A 1.53 1.53 0.0 0 1 832.77 596.02
  Q 800.40 595.97 766.48 596.05
  Q 758.52 596.07 747.10 599.22
  C 744.84 599.85 742.52 599.98 740.19 600.20
  A 1.15 1.15 0.0 0 0 739.24 601.81
  Q 744.62 613.93 744.77 624.91
  C 744.85 630.50 745.98 635.41 749.49 640.05
  Q 753.17 644.91 757.43 648.40
  Q 771.02 659.52 788.08 669.08
  Q 808.11 680.30 825.35 689.64
  Q 832.91 693.73 840.53 697.40
  Q 877.51 715.21 916.01 730.54
  Q 929.44 735.89 942.94 739.96
  A 3.54 3.50 80.1 0 1 944.77 741.26
  Q 953.51 753.26 966.49 761.76
  C 989.04 776.54 1016.23 784.96 1042.41 794.04
  C 1052.98 797.70 1064.15 802.13 1073.41 808.60
  Q 1075.16 809.82 1073.04 810.09
  Q 1072.57 810.15 1072.05 810.10
  Q 1030.63 805.58 993.13 801.73
  Q 992.26 801.64 991.58 801.07
  Q 985.07 795.60 978.46 791.03
  Q 929.97 757.48 877.41 733.45
  Q 858.29 724.71 838.72 719.69
  C 836.62 719.15 834.30 718.93 832.20 718.66
  A 0.93 0.92 82.8 0 0 831.23 719.92
  Q 836.70 733.63 838.84 747.91
  Q 840.20 756.98 841.29 770.63
  Q 842.77 789.09 843.29 829.95
  C 843.36 835.64 843.88 841.37 844.23 847.13
  C 844.69 854.77 846.16 863.13 848.90 870.23
  Q 850.30 873.87 852.80 876.36
  Q 860.98 884.51 867.86 891.66
  Q 868.30 892.13 868.67 892.67
  Q 869.23 893.49 868.24 893.49
  L 836.16 893.51
  A 2.85 2.85 0.0 0 1 833.83 892.30
  L 825.67 880.58
  A 1.77 1.75 30.4 0 1 825.36 879.41
  C 825.77 875.00 825.96 870.74 826.63 866.28
  C 827.40 861.09 827.61 855.82 828.10 850.57
  C 829.04 840.53 829.56 830.52 830.88 820.53
  Q 832.07 811.58 831.73 808.74
  Q 829.98 793.98 828.40 779.32
  Q 827.31 769.19 826.10 759.46
  Q 824.47 746.38 823.17 733.47
  C 822.70 728.80 821.82 724.23 821.73 719.63
  A 1.43 1.42 86.5 0 1 823.00 718.19
  Q 824.70 718.01 826.37 717.99
  Q 829.53 717.97 827.13 715.92
  C 807.08 698.80 780.67 692.64 758.79 678.40
  Q 735.84 663.47 721.54 636.51
  Q 720.72 634.95 720.72 633.07
  Q 720.76 618.71 720.72 605.76
  Q 720.72 604.76 719.72 604.76
  Z"
/>
<path fill="#ffffff" d="
  M 892.79 622.27
  A 1.19 1.19 0.0 0 0 891.62 623.59
  Q 893.55 640.29 895.09 655.59
  Q 895.50 659.74 895.50 663.94
  Q 895.50 665.38 894.57 664.28
  Q 887.66 656.07 884.28 645.82
  Q 882.06 639.12 880.09 631.98
  C 878.47 626.12 875.59 620.22 869.25 618.77
  C 865.98 618.02 862.50 617.50 859.18 617.48
  C 848.50 617.42 837.52 618.02 827.78 614.27
  Q 824.42 612.98 824.69 608.48
  Q 824.72 607.82 825.36 607.62
  L 871.65 592.99
  A 1.87 1.85 81.8 0 0 872.95 591.24
  C 873.15 577.95 873.49 565.56 874.08 553.06
  C 874.42 545.71 877.24 539.28 878.86 532.25
  Q 886.94 497.11 895.32 460.74
  Q 896.90 453.87 896.99 460.92
  Q 897.18 474.90 897.66 489.50
  Q 897.74 491.76 897.79 494.00
  Q 898.78 538.37 899.67 585.24
  Q 900.00 602.86 900.21 621.29
  A 0.92 0.92 0.0 0 1 899.29 622.22
  L 892.79 622.27
  Z"
/>
<path fill="#ffffff" d="
  M 526.12 582.54
  Q 545.58 583.62 565.72 588.23
  Q 624.62 601.71 676.91 630.39
  Q 687.13 636.00 696.76 642.95
  Q 700.14 645.39 702.99 648.08
  A 0.67 0.66 -55.0 0 1 703.12 648.87
  Q 700.06 654.73 695.64 659.12
  C 691.96 662.76 687.49 661.97 683.12 660.19
  Q 676.68 657.56 670.41 653.96
  Q 668.83 653.05 667.16 652.63
  Q 642.86 646.55 624.24 639.87
  C 595.74 629.66 569.38 619.96 541.27 615.01
  C 528.42 612.75 514.58 610.88 501.02 610.19
  Q 485.08 609.37 468.95 609.19
  A 1.59 1.59 0.0 0 1 467.38 607.49
  Q 467.70 603.16 469.34 598.35
  Q 472.05 590.41 476.05 583.09
  Q 485.84 565.21 501.42 546.07
  Q 522.95 519.63 547.98 494.62
  A 1.00 0.97 29.2 0 1 548.92 494.37
  C 550.30 494.74 551.32 495.10 552.80 495.17
  Q 571.48 495.97 590.26 495.32
  Q 591.45 495.28 590.63 496.13
  Q 561.97 526.04 539.09 558.62
  Q 531.52 569.39 525.19 580.85
  A 1.14 1.14 0.0 0 0 526.12 582.54
  Z"
/>
<path fill="#ffffff" d="
  M 565.52 767.58
  C 528.56 751.99 506.45 715.03 492.61 678.44
  Q 482.67 652.18 476.20 623.33
  A 1.07 1.06 -6.5 0 1 477.24 622.03
  L 509.50 622.03
  A 1.43 1.43 0.0 0 1 510.93 623.44
  Q 511.39 651.22 521.36 674.32
  C 527.92 689.54 537.80 703.69 548.94 715.94
  Q 561.35 729.59 575.55 743.52
  C 584.79 752.58 594.32 762.56 601.49 773.32
  Q 601.89 773.90 602.05 774.59
  Q 602.18 775.17 601.59 775.16
  Q 583.07 774.97 565.52 767.58
  Z"
/>
<path fill="#ffffff" d="
  M 949.34 723.93
  L 948.11 726.74
  Q 947.75 727.57 947.01 727.04
  L 806.47 627.11
  Q 805.51 626.44 806.04 625.39
  Q 806.99 623.49 808.63 622.32
  Q 809.19 621.92 809.87 622.00
  Q 817.06 622.84 822.25 624.60
  C 838.27 630.02 854.58 641.91 867.84 652.65
  C 877.60 660.55 887.14 668.37 897.42 675.61
  Q 924.03 694.36 950.59 713.14
  Q 951.99 714.12 953.66 714.14
  Q 964.09 714.22 975.45 715.24
  Q 980.50 715.69 986.17 716.73
  C 996.36 718.61 1005.57 722.90 1014.03 728.93
  Q 1024.43 736.33 1033.81 743.27
  A 0.43 0.42 55.3 0 1 1033.68 744.02
  Q 1033.46 744.08 1033.25 744.02
  Q 992.15 733.67 950.92 723.17
  A 1.36 1.35 19.0 0 0 949.34 723.93
  Z"
/>
<path fill="#ffffff" d="
  M 800.67 788.68
  Q 801.07 788.59 801.23 787.93
  A 1.04 1.02 -52.8 0 0 801.14 787.21
  Q 790.69 766.99 780.02 749.71
  C 771.13 735.32 759.74 722.78 747.01 711.21
  C 729.81 695.59 714.99 682.10 704.04 662.94
  A 1.39 1.39 0.0 0 1 704.81 660.93
  Q 709.74 659.31 714.68 657.60
  Q 716.61 656.94 718.19 658.06
  Q 761.70 688.86 790.73 731.23
  C 804.91 751.94 815.85 775.24 820.03 799.67
  C 820.96 805.12 821.17 810.48 821.51 816.00
  Q 821.58 817.09 821.36 817.38
  Q 820.62 818.31 819.92 817.35
  Q 812.12 806.76 806.29 796.07
  Q 805.76 795.08 804.65 795.31
  Q 804.15 795.42 804.18 796.32
  Q 804.21 797.18 804.59 797.96
  C 811.29 812.02 816.67 826.27 817.07 842.04
  Q 817.24 848.54 817.06 854.74
  Q 816.87 861.33 811.08 867.34
  Q 805.41 873.23 800.13 879.48
  A 4.29 4.26 -77.8 0 1 798.04 880.84
  C 788.32 883.68 778.86 887.71 769.42 891.36
  C 757.20 896.09 743.23 899.69 729.71 899.36
  Q 714.02 898.99 698.25 898.55
  Q 659.89 897.47 626.25 896.90
  C 622.30 896.83 618.26 896.49 614.25 896.46
  Q 596.67 896.34 580.25 895.83
  Q 569.96 895.51 560.25 895.35
  Q 544.99 895.11 526.25 894.59
  Q 495.51 893.73 459.75 892.99
  Q 458.65 892.97 457.50 892.94
  Q 412.15 891.79 367.50 890.97
  C 367.01 890.96 366.62 890.75 366.17 890.74
  Q 335.21 889.99 304.25 889.39
  C 297.09 889.26 286.95 888.63 278.25 888.68
  Q 276.48 888.69 274.71 888.38
  Q 274.16 888.28 274.25 887.73
  Q 274.55 885.91 275.37 884.12
  Q 279.17 875.74 282.91 867.27
  A 1.74 1.73 -77.9 0 1 284.51 866.23
  C 303.74 866.34 322.68 867.14 341.74 867.30
  Q 356.60 867.42 373.25 868.08
  Q 375.97 868.18 379.00 868.25
  C 402.58 868.79 427.08 869.27 452.25 869.85
  Q 468.69 870.24 485.99 870.81
  Q 499.37 871.25 512.75 871.27
  Q 594.17 871.42 679.00 871.34
  Q 706.62 871.31 732.19 867.22
  Q 741.48 865.74 751.27 862.47
  C 763.03 858.53 774.00 852.19 779.35 840.88
  C 785.77 827.30 779.55 810.29 772.68 798.36
  C 760.29 776.84 742.22 756.23 724.73 738.19
  Q 704.29 717.11 675.17 688.74
  Q 665.19 679.01 655.54 668.46
  Q 650.92 663.42 647.31 658.23
  A 0.76 0.76 0.0 0 1 647.92 657.03
  Q 653.07 656.96 657.79 657.00
  Q 659.61 657.02 661.09 657.97
  Q 705.18 686.19 744.12 722.36
  Q 765.47 742.18 782.91 764.37
  Q 791.41 775.19 799.02 787.96
  Q 799.59 788.91 800.67 788.68
  Z"
/>
<path fill="#ffffff" d="
  M 1144.10 712.59
  Q 1143.11 712.18 1142.44 713.45
  Q 1132.95 731.46 1123.98 748.74
  Q 1122.24 752.10 1120.36 755.31
  A 0.99 0.99 0.0 0 1 1118.91 755.60
  L 1111.01 749.62
  A 1.71 1.70 17.8 0 1 1110.34 748.33
  Q 1110.13 742.01 1111.30 735.69
  C 1114.94 716.16 1123.45 695.99 1135.69 680.03
  Q 1142.85 670.69 1152.06 666.26
  A 1.36 1.36 0.0 0 1 1154.01 667.39
  Q 1156.50 701.89 1158.32 738.90
  A 3.77 3.76 63.4 0 1 1157.47 741.47
  L 1151.64 748.55
  Q 1151.03 749.29 1150.47 748.52
  Q 1149.92 747.78 1149.74 746.50
  Q 1147.36 729.54 1144.57 713.18
  A 0.77 0.76 -83.9 0 0 1144.10 712.59
  Z"
/>
<path fill="#ffffff" d="
  M 1079.69 759.29
  Q 1079.21 761.30 1078.98 763.27
  Q 1077.88 772.73 1076.81 782.32
  A 0.33 0.32 26.9 0 1 1076.25 782.50
  Q 1075.99 782.23 1075.86 781.63
  Q 1074.08 773.33 1072.90 765.73
  C 1070.89 752.75 1068.47 740.99 1066.81 728.34
  A 0.36 0.36 0.0 0 1 1067.32 727.97
  Q 1068.12 728.35 1068.79 728.88
  Q 1090.27 746.08 1111.43 763.17
  A 2.57 2.56 24.4 0 1 1112.35 765.61
  Q 1109.39 782.54 1106.16 799.49
  Q 1106.09 799.86 1105.86 800.16
  A 0.54 0.54 0.0 0 1 1104.98 800.11
  Q 1100.62 793.13 1098.72 784.62
  Q 1097.72 780.15 1096.47 776.23
  C 1094.12 768.78 1087.41 762.96 1080.89 758.80
  A 0.80 0.79 22.6 0 0 1079.69 759.29
  Z"
/>
<path fill="#ffffff" d="
  M 902.00 869.67
  C 884.42 855.71 877.32 831.62 874.76 809.77
  Q 873.89 802.36 874.57 792.96
  Q 875.91 774.32 877.44 754.32
  Q 877.76 750.20 878.30 746.22
  Q 878.48 744.88 879.60 745.66
  C 883.42 748.35 885.82 755.12 886.58 759.78
  C 888.59 772.07 887.81 784.32 887.83 796.86
  Q 887.84 805.37 889.02 814.96
  Q 890.42 826.44 894.88 834.54
  C 895.71 836.06 896.13 837.63 896.57 839.28
  Q 900.75 854.83 904.26 869.91
  Q 904.46 870.74 903.64 870.51
  Q 902.75 870.26 902.00 869.67
  Z"
/>
<path fill="#ffffff" d="
  M 1107.59 815.78
  C 1109.04 812.31 1110.45 809.82 1113.12 806.95
  Q 1139.59 778.53 1165.37 750.74
  Q 1165.94 750.12 1166.65 749.66
  A 0.67 0.67 0.0 0 1 1167.58 749.85
  C 1176.08 762.79 1175.18 778.02 1166.99 791.02
  Q 1160.18 801.81 1150.23 810.97
  Q 1138.53 821.74 1126.59 832.05
  Q 1123.70 834.55 1119.98 838.97
  C 1118.70 840.51 1118.81 841.89 1119.02 843.75
  Q 1120.99 861.13 1123.27 878.53
  Q 1123.53 880.52 1121.52 880.52
  L 1103.25 880.50
  A 2.30 2.29 83.3 0 1 1101.02 878.73
  C 1099.96 874.22 1097.87 869.91 1097.32 865.37
  Q 1096.19 856.02 1098.22 845.86
  Q 1101.20 831.05 1107.59 815.78
  Z"
/>
<path fill="#ffffff" d="
  M 642.53 800.01
  Q 648.16 802.40 658.36 805.58
  Q 659.79 806.02 659.79 807.51
  L 659.78 813.24
  Q 659.78 814.77 658.25 814.59
  Q 646.22 813.12 635.48 809.87
  C 627.43 807.43 617.98 806.07 610.25 806.05
  Q 592.77 805.99 574.00 806.07
  Q 565.36 806.11 553.50 808.15
  Q 539.59 810.53 521.81 817.14
  Q 506.54 822.82 489.85 829.69
  Q 478.05 834.55 465.22 838.13
  C 451.94 841.85 436.68 841.65 422.40 839.48
  Q 420.08 839.13 408.76 836.16
  Q 397.17 833.12 386.50 832.34
  C 371.81 831.26 356.25 833.54 342.02 839.13
  Q 335.34 841.75 327.90 844.08
  Q 326.24 844.60 324.38 844.88
  A 0.57 0.57 0.0 0 1 323.79 844.05
  Q 324.48 842.69 325.56 841.32
  C 337.79 825.81 355.29 820.25 374.86 819.98
  Q 390.77 819.76 407.62 821.35
  C 412.78 821.83 417.90 821.81 423.00 822.34
  C 430.77 823.16 438.89 823.16 446.53 823.08
  C 456.55 822.97 467.72 819.30 476.81 815.45
  Q 493.47 808.41 513.28 798.77
  Q 527.46 791.88 539.91 787.65
  C 547.09 785.22 554.81 783.52 562.45 783.67
  Q 570.91 783.83 579.30 783.66
  C 591.52 783.42 603.52 785.23 614.63 789.09
  Q 626.51 793.23 642.53 800.01
  Z"
/>
<path fill="#ffffff" d="
  M 411.63 808.77
  C 405.77 805.49 396.07 805.86 388.97 806.00
  Q 387.10 806.04 385.24 805.68
  A 0.36 0.36 0.0 0 1 385.03 805.10
  C 389.61 799.66 394.75 795.90 402.25 796.95
  C 424.23 800.02 448.17 802.52 470.39 805.73
  Q 471.39 805.87 470.95 806.78
  C 469.87 809.02 468.46 813.05 466.23 813.89
  Q 463.39 814.95 459.23 814.96
  Q 443.64 815.01 430.72 814.87
  Q 422.35 814.77 411.63 808.77
  Z"
/>
<path fill="#ff7406" d="
  M 417.51 981.70
  Q 403.92 976.61 390.71 974.72
  C 376.05 972.61 361.33 974.39 352.41 986.54
  Q 351.00 988.47 350.70 991.02
  Q 349.58 1000.30 356.02 1007.62
  Q 360.63 1012.86 365.46 1016.60
  Q 374.72 1023.78 384.55 1032.79
  C 394.14 1041.58 403.76 1049.33 411.76 1059.40
  C 421.63 1071.84 424.43 1087.14 418.46 1101.90
  C 414.32 1112.13 408.94 1118.94 399.59 1124.75
  C 386.13 1133.10 370.87 1135.34 354.72 1135.16
  Q 348.27 1135.09 340.91 1134.59
  C 329.31 1133.80 318.00 1131.19 306.83 1128.44
  Q 304.64 1127.89 304.49 1125.76
  Q 303.49 1111.11 301.85 1095.90
  Q 301.78 1095.28 302.41 1095.23
  Q 302.75 1095.19 303.06 1095.33
  C 314.02 1100.10 326.16 1104.19 338.03 1105.72
  C 350.89 1107.38 366.66 1107.28 376.22 1096.93
  Q 380.64 1092.14 380.07 1084.03
  C 379.67 1078.26 376.63 1073.89 372.61 1070.11
  Q 353.84 1052.45 332.79 1034.48
  Q 329.41 1031.60 322.87 1024.61
  C 314.17 1015.32 308.94 1005.09 309.37 992.25
  C 310.26 965.77 329.19 950.76 353.75 946.89
  Q 370.09 944.31 386.50 945.93
  Q 393.46 946.61 400.78 947.41
  C 405.42 947.92 409.88 948.98 414.57 949.58
  A 2.27 2.26 -87.5 0 1 416.55 951.75
  Q 416.99 963.69 418.72 980.01
  Q 418.79 980.61 418.60 981.18
  Q 418.33 982.01 417.51 981.70
  Z"
/>
<path fill="#ff7406" d="
  M 1056.95 1116.87
  Q 1056.50 1116.89 1056.07 1117.12
  Q 1055.82 1117.25 1055.66 1117.47
  Q 1044.85 1132.32 1026.99 1134.52
  C 1013.05 1136.23 999.26 1132.35 989.18 1122.49
  C 975.42 1109.03 973.97 1086.01 979.21 1068.00
  C 983.22 1054.23 990.64 1043.04 1002.86 1035.50
  C 1019.54 1025.22 1039.73 1026.09 1058.54 1028.02
  A 1.02 1.02 0.0 0 0 1059.66 1027.06
  Q 1060.53 1010.72 1060.34 995.80
  Q 1060.32 993.91 1062.20 993.91
  L 1088.82 993.90
  A 1.22 1.22 0.0 0 1 1090.04 995.22
  Q 1088.01 1020.16 1086.97 1045.76
  Q 1086.94 1046.61 1086.89 1047.51
  Q 1084.59 1091.05 1083.92 1130.43
  Q 1083.88 1132.48 1081.83 1132.38
  Q 1069.82 1131.76 1058.85 1132.35
  Q 1056.94 1132.46 1057.00 1130.55
  L 1057.42 1117.33
  A 0.45 0.45 0.0 0 0 1056.95 1116.87
  Z
  M 1057.14 1047.69
  C 1039.32 1043.59 1018.97 1047.13 1010.02 1064.36
  Q 1006.82 1070.52 1005.32 1078.48
  C 1003.42 1088.58 1005.48 1100.99 1013.25 1107.87
  C 1021.55 1115.21 1035.89 1115.56 1044.50 1108.34
  Q 1051.04 1102.86 1053.91 1094.11
  Q 1056.58 1085.93 1057.02 1080.47
  Q 1058.29 1064.88 1058.40 1049.29
  A 1.63 1.62 -83.4 0 0 1057.14 1047.69
  Z"
/>
<path fill="#ff7406" d="
  M 471.08 1080.52
  A 0.75 0.75 0.0 0 0 470.33 1081.19
  C 468.56 1098.36 477.24 1112.48 494.87 1115.18
  C 508.33 1117.23 522.11 1113.53 535.35 1109.59
  A 0.58 0.58 0.0 0 1 536.09 1110.24
  L 532.95 1129.30
  A 2.38 2.38 0.0 0 1 531.14 1131.23
  Q 514.03 1135.24 496.43 1134.87
  C 485.37 1134.65 473.85 1133.26 464.48 1127.91
  Q 449.04 1119.10 444.03 1101.14
  Q 438.57 1081.51 445.50 1061.03
  Q 450.89 1045.10 463.27 1036.22
  C 476.41 1026.81 495.24 1025.09 510.78 1027.98
  Q 540.04 1033.41 544.82 1062.81
  Q 546.09 1070.62 544.62 1078.43
  Q 544.23 1080.49 542.21 1080.49
  Q 506.57 1080.51 471.08 1080.52
  Z
  M 473.00 1068.35
  L 516.49 1068.48
  A 1.35 1.35 0.0 0 0 517.84 1067.18
  C 518.08 1060.12 516.04 1052.77 510.46 1048.38
  C 504.82 1043.94 495.37 1043.44 488.58 1045.89
  C 479.11 1049.30 473.49 1057.07 471.94 1067.11
  A 1.08 1.07 -85.6 0 0 473.00 1068.35
  Z"
/>
<path fill="#ff7406" d="
  M 657.39 1044.18
  Q 657.82 1044.02 658.06 1043.64
  Q 665.96 1031.07 680.81 1027.87
  C 699.43 1023.87 725.14 1029.91 724.98 1053.99
  C 724.92 1064.06 723.90 1073.82 723.38 1083.55
  Q 722.09 1107.76 721.47 1130.80
  A 1.57 1.56 2.0 0 1 719.83 1132.32
  Q 708.36 1131.75 696.47 1132.34
  Q 695.06 1132.41 693.66 1132.21
  Q 692.44 1132.04 692.52 1130.80
  Q 693.53 1115.48 694.46 1098.15
  Q 694.91 1089.80 695.59 1081.42
  Q 696.33 1072.37 695.86 1063.02
  Q 695.65 1058.86 692.93 1054.88
  Q 689.85 1050.37 683.68 1049.56
  C 677.42 1048.73 671.52 1049.89 666.99 1054.54
  C 660.28 1061.43 658.70 1069.57 657.95 1078.50
  C 657.62 1082.48 657.10 1086.30 656.97 1090.21
  Q 656.23 1112.33 655.75 1130.25
  Q 655.69 1132.54 653.40 1132.39
  Q 643.65 1131.73 630.51 1132.32
  Q 629.02 1132.38 627.52 1132.15
  Q 626.79 1132.04 626.83 1131.31
  Q 628.32 1104.10 629.68 1076.94
  C 630.10 1068.61 631.19 1058.83 624.61 1052.68
  C 620.85 1049.16 615.18 1048.81 610.31 1049.75
  C 600.84 1051.58 595.14 1061.46 593.61 1070.17
  Q 591.71 1081.04 591.17 1092.63
  Q 590.28 1111.88 589.92 1130.60
  A 1.79 1.78 -88.1 0 1 588.06 1132.35
  Q 575.07 1131.76 562.93 1132.38
  Q 560.94 1132.49 561.07 1130.51
  Q 562.44 1108.65 563.56 1083.99
  C 563.67 1081.73 564.02 1079.51 564.11 1077.24
  Q 565.06 1053.56 565.49 1030.42
  A 1.20 1.20 0.0 0 1 566.69 1029.24
  L 592.00 1029.24
  Q 593.17 1029.24 593.13 1030.41
  Q 592.96 1035.74 592.34 1041.02
  Q 592.15 1042.59 593.66 1042.61
  A 1.12 1.11 -72.3 0 0 594.60 1042.12
  C 605.18 1026.28 629.30 1022.46 645.50 1031.33
  Q 652.83 1035.35 656.14 1043.61
  Q 656.49 1044.49 657.39 1044.18
  Z"
/>
<path fill="#ff7406" d="
  M 771.76 1081.22
  C 770.87 1093.37 773.32 1103.83 783.74 1110.62
  C 798.81 1120.46 820.80 1114.35 836.47 1109.58
  A 0.77 0.77 0.0 0 1 837.45 1110.47
  Q 835.62 1119.51 834.29 1128.51
  Q 834.11 1129.75 833.37 1130.66
  Q 833.05 1131.06 832.56 1131.17
  Q 811.03 1136.23 789.49 1134.48
  Q 782.54 1133.91 775.72 1132.02
  C 756.78 1126.77 745.55 1111.21 743.43 1092.03
  C 740.99 1070.05 748.05 1045.38 768.16 1033.88
  C 779.65 1027.30 794.47 1025.68 807.82 1027.32
  Q 819.61 1028.78 827.44 1033.44
  Q 840.00 1040.91 844.58 1056.15
  Q 848.07 1067.74 845.75 1079.09
  A 1.76 1.76 0.0 0 1 844.03 1080.49
  L 772.52 1080.52
  Q 771.82 1080.52 771.76 1081.22
  Z
  M 817.55 1068.49
  A 1.36 1.36 0.0 0 0 818.91 1067.22
  C 819.48 1058.75 816.05 1049.14 807.71 1046.15
  Q 801.84 1044.04 798.09 1044.34
  Q 776.70 1046.07 773.10 1067.29
  A 0.90 0.89 -85.1 0 0 773.98 1068.34
  L 817.55 1068.49
  Z"
/>
<path fill="#ff7406" d="
  M 928.05 1080.31
  Q 927.38 1080.09 926.77 1080.48
  Q 922.31 1083.29 917.64 1084.68
  Q 909.18 1087.19 901.05 1089.60
  C 894.72 1091.48 886.15 1095.40 884.10 1102.02
  C 882.23 1108.09 884.80 1114.32 890.67 1116.85
  C 897.83 1119.92 908.23 1118.50 915.39 1116.01
  Q 915.78 1115.88 916.18 1115.96
  Q 917.04 1116.15 916.76 1116.99
  Q 914.46 1123.87 912.76 1131.47
  Q 912.40 1133.06 910.56 1133.38
  Q 903.47 1134.61 897.02 1134.82
  C 886.92 1135.16 876.62 1134.56 868.03 1129.45
  C 859.19 1124.20 855.08 1112.24 856.09 1102.25
  C 857.49 1088.43 870.21 1079.72 883.04 1075.49
  C 893.78 1071.95 904.16 1069.88 914.73 1067.24
  Q 919.40 1066.08 923.46 1063.51
  C 930.16 1059.28 930.35 1049.15 922.84 1045.56
  C 915.24 1041.94 905.48 1042.86 897.39 1044.18
  Q 883.40 1046.47 870.72 1051.53
  A 0.56 0.55 -6.9 0 1 869.96 1050.94
  L 872.36 1034.24
  A 2.34 2.33 87.4 0 1 874.12 1032.31
  Q 887.78 1029.07 899.53 1027.73
  C 915.90 1025.85 953.85 1024.26 957.07 1047.87
  Q 957.78 1053.04 957.41 1060.51
  Q 956.36 1081.70 955.30 1098.25
  Q 954.30 1114.01 954.38 1130.43
  Q 954.39 1132.36 952.47 1132.29
  Q 939.31 1131.77 927.10 1132.37
  A 1.37 1.37 0.0 0 1 925.67 1130.89
  Q 927.69 1105.60 928.53 1080.99
  A 0.70 0.70 0.0 0 0 928.05 1080.31
  Z"
/>
<path fill="#ff7406" d="
  M 1184.90 1029.76
  C 1207.90 1036.69 1219.70 1055.06 1219.70 1078.16
  C 1219.70 1101.74 1207.63 1123.86 1184.63 1131.32
  Q 1163.17 1138.28 1141.15 1131.95
  C 1121.77 1126.38 1109.58 1111.38 1106.63 1091.76
  C 1103.79 1072.78 1109.46 1052.17 1124.67 1039.72
  Q 1132.10 1033.64 1142.08 1030.36
  Q 1163.52 1023.31 1184.90 1029.76
  Z
  M 1168.08 1048.19
  C 1154.90 1046.45 1142.94 1053.09 1138.18 1065.69
  C 1132.81 1079.94 1132.96 1103.03 1148.72 1111.12
  Q 1159.64 1116.74 1171.65 1112.60
  C 1188.91 1106.67 1193.04 1083.63 1189.41 1067.81
  C 1186.89 1056.84 1179.45 1049.69 1168.08 1048.19
  Z"
/>
<path fill="#ff7406" d="
  M 1267.99 1041.32
  A 0.79 0.79 0.0 0 0 1269.13 1041.15
  Q 1279.73 1025.77 1298.64 1026.83
  Q 1301.04 1026.96 1303.31 1027.55
  A 1.88 1.87 8.0 0 1 1304.73 1029.43
  C 1304.51 1036.61 1305.52 1043.34 1306.19 1050.51
  A 1.29 1.29 0.0 0 1 1304.62 1051.89
  C 1290.00 1048.57 1278.20 1051.16 1271.17 1064.53
  C 1268.45 1069.69 1267.20 1076.56 1266.82 1082.49
  Q 1265.36 1105.42 1265.84 1130.70
  A 1.55 1.54 0.2 0 1 1264.24 1132.28
  Q 1256.98 1132.05 1249.49 1132.03
  C 1245.47 1132.02 1241.48 1132.55 1237.56 1132.20
  A 0.85 0.84 -86.5 0 1 1236.79 1131.32
  Q 1237.61 1112.43 1238.94 1092.67
  Q 1239.64 1082.22 1239.86 1072.75
  C 1240.18 1059.04 1240.81 1044.73 1240.23 1030.79
  Q 1240.17 1029.24 1241.71 1029.24
  L 1267.02 1029.24
  Q 1268.19 1029.24 1268.11 1030.41
  Q 1267.75 1035.16 1267.61 1040.51
  Q 1267.60 1041.02 1267.99 1041.32
  Z"
/>
<path fill="#ff7406" d="
  M 196.78 1136.93
  C 169.68 1136.71 147.52 1123.31 142.54 1095.38
  C 141.65 1090.39 141.90 1084.94 142.00 1079.79
  C 142.13 1072.59 144.05 1065.04 147.18 1058.59
  Q 156.79 1038.83 178.91 1032.04
  Q 198.38 1026.06 218.23 1031.17
  C 236.42 1035.85 249.21 1047.66 253.59 1065.92
  Q 258.44 1086.15 250.09 1105.72
  C 240.60 1127.99 220.09 1137.11 196.78 1136.93
  Z
  M 224.60 1093.52
  C 227.31 1083.00 227.00 1069.06 220.98 1060.24
  C 212.87 1048.36 194.12 1047.04 182.88 1055.31
  Q 175.44 1060.79 172.69 1071.21
  Q 169.13 1084.69 172.15 1096.96
  C 175.79 1111.78 188.72 1118.25 203.50 1115.72
  C 214.98 1113.74 221.70 1104.81 224.60 1093.52
  Z"
/>
<path fill="#ffffff" d="
  M 155.10 1201.49
  L 174.51 1201.50
  A 1.37 1.37 0.0 0 1 175.88 1202.90
  L 175.79 1207.92
  A 1.37 1.37 0.0 0 1 174.42 1209.26
  L 155.13 1209.28
  A 1.37 1.37 0.0 0 0 153.76 1210.64
  L 153.69 1219.61
  A 1.37 1.37 0.0 0 0 155.06 1220.99
  L 176.78 1220.99
  A 1.37 1.37 0.0 0 1 178.15 1222.33
  L 178.26 1227.59
  A 1.37 1.37 0.0 0 1 176.89 1228.99
  L 145.66 1229.00
  A 1.37 1.37 0.0 0 1 144.29 1227.63
  L 144.30 1185.40
  A 1.37 1.37 0.0 0 1 145.67 1184.03
  L 175.88 1184.05
  A 1.37 1.37 0.0 0 1 177.25 1185.42
  L 177.25 1190.49
  A 1.37 1.37 0.0 0 1 175.88 1191.86
  L 155.12 1191.86
  A 1.37 1.37 0.0 0 0 153.75 1193.23
  L 153.73 1200.12
  A 1.37 1.37 0.0 0 0 155.10 1201.49
  Z"
/>
<rect fill="#ffffff" x="291.44" y="1184.03" width="8.80" height="44.92" rx="1.83"/>
<path fill="#ffffff" d="
  M 369.55 1199.15
  Q 368.52 1196.99 368.39 1199.38
  C 368.31 1200.78 368.03 1202.25 368.03 1203.56
  Q 368.00 1215.65 368.01 1227.08
  Q 368.01 1229.09 366.00 1229.03
  L 361.79 1228.90
  Q 359.75 1228.84 359.75 1226.79
  L 359.75 1186.00
  Q 359.75 1184.00 361.75 1184.02
  L 372.48 1184.08
  A 1.03 1.02 -11.9 0 1 373.42 1184.69
  Q 373.90 1185.80 374.23 1187.03
  Q 377.38 1198.80 380.16 1209.74
  Q 380.26 1210.10 380.57 1210.32
  Q 381.23 1210.79 382.00 1210.36
  Q 382.40 1210.14 382.51 1209.71
  L 388.68 1185.67
  Q 389.11 1184.00 390.83 1184.01
  L 400.79 1184.06
  Q 402.75 1184.07 402.75 1186.03
  L 402.75 1226.68
  Q 402.75 1229.11 400.32 1229.02
  L 397.60 1228.91
  Q 394.91 1228.81 394.92 1226.12
  Q 394.99 1214.33 394.90 1201.28
  Q 394.89 1199.44 394.41 1197.56
  Q 394.26 1196.99 393.67 1197.03
  Q 392.62 1197.10 392.34 1198.07
  Q 391.55 1200.78 391.46 1203.54
  Q 391.36 1206.17 390.65 1208.94
  Q 388.57 1217.11 386.43 1225.71
  Q 386.12 1226.94 385.65 1228.27
  Q 385.47 1228.79 384.93 1228.85
  Q 381.19 1229.25 377.73 1228.75
  Q 377.17 1228.66 376.96 1228.14
  Q 376.41 1226.75 376.09 1225.50
  Q 373.88 1216.95 372.01 1208.67
  C 371.27 1205.38 371.08 1202.37 369.55 1199.15
  Z"
/>
<path fill="#ffffff" d="
  M 523.66 1226.19
  C 522.55 1226.85 521.73 1227.77 520.49 1228.36
  Q 514.70 1231.11 509.51 1228.21
  C 501.07 1223.50 499.94 1211.44 503.55 1203.31
  Q 505.05 1199.94 507.99 1197.97
  Q 515.30 1193.06 522.85 1198.35
  A 1.07 1.07 0.0 0 0 524.53 1197.47
  L 524.50 1185.75
  Q 524.50 1184.01 526.25 1184.03
  L 531.37 1184.08
  Q 533.26 1184.11 533.26 1186.00
  L 533.26 1227.74
  A 1.08 1.07 86.7 0 1 532.31 1228.81
  Q 529.77 1229.10 527.18 1228.97
  Q 525.32 1228.88 524.97 1226.80
  Q 524.76 1225.53 523.66 1226.19
  Z
  M 517.5145 1222.7299
  A 10.16 6.92 90.2 0 0 524.4700 1212.5942
  A 10.16 6.92 90.2 0 0 517.5855 1202.4101
  A 10.16 6.92 90.2 0 0 510.6300 1212.5458
  A 10.16 6.92 90.2 0 0 517.5145 1222.7299
  Z"
/>
<rect fill="#ffffff" x="-4.34" y="-4.13" transform="translate(545.60,1188.17) rotate(-0.3)" width="8.68" height="8.26" rx="1.61"/>
<path fill="#ffffff" d="
  M 685.28 1197.68
  L 685.32 1185.72
  Q 685.32 1184.01 687.03 1184.01
  L 692.03 1184.03
  Q 693.77 1184.04 693.77 1185.78
  L 693.77 1227.94
  A 0.94 0.93 -3.1 0 1 692.93 1228.87
  C 691.36 1229.05 689.84 1228.92 688.27 1228.98
  Q 686.08 1229.05 685.81 1226.95
  A 0.99 0.99 0.0 0 0 684.14 1226.36
  C 677.35 1232.81 667.60 1229.31 664.24 1221.44
  C 661.94 1216.07 661.76 1206.23 665.70 1200.91
  C 670.05 1195.04 677.94 1193.90 683.69 1198.44
  Q 685.28 1199.69 685.28 1197.68
  Z
  M 678.3500 1222.7000
  A 10.14 7.01 90.0 0 0 685.3600 1212.5600
  A 10.14 7.01 90.0 0 0 678.3500 1202.4200
  A 10.14 7.01 90.0 0 0 671.3400 1212.5600
  A 10.14 7.01 90.0 0 0 678.3500 1222.7000
  Z"
/>
<path fill="#ffffff" d="
  M 762.80 1193.17
  L 762.78 1200.16
  A 1.31 1.31 0.0 0 0 764.08 1201.47
  L 783.19 1201.51
  A 1.31 1.31 0.0 0 1 784.50 1202.82
  L 784.49 1207.95
  A 1.31 1.31 0.0 0 1 783.18 1209.26
  L 764.13 1209.28
  A 1.31 1.31 0.0 0 0 762.82 1210.58
  L 762.77 1219.66
  A 1.31 1.31 0.0 0 0 764.08 1220.98
  L 785.89 1220.99
  A 1.31 1.31 0.0 0 1 787.20 1222.30
  L 787.21 1227.68
  A 1.31 1.31 0.0 0 1 785.90 1228.99
  L 754.77 1229.00
  A 1.31 1.31 0.0 0 1 753.46 1227.69
  L 753.47 1185.34
  A 1.31 1.31 0.0 0 1 754.78 1184.03
  L 785.00 1184.04
  A 1.31 1.31 0.0 0 1 786.31 1185.33
  L 786.39 1190.54
  A 1.31 1.31 0.0 0 1 785.08 1191.87
  L 764.12 1191.86
  A 1.31 1.31 0.0 0 0 762.80 1193.17
  Z"
/>
<path fill="#ffffff" d="
  M 815.27 1197.79
  L 815.24 1185.96
  Q 815.23 1184.04 817.16 1184.04
  L 822.03 1184.06
  Q 824.00 1184.07 824.00 1186.03
  L 824.00 1227.75
  Q 824.00 1228.51 823.26 1228.66
  Q 820.26 1229.30 817.27 1228.80
  Q 816.64 1228.69 816.34 1228.13
  L 815.48 1226.54
  A 0.79 0.79 0.0 0 0 814.25 1226.33
  C 806.61 1233.36 796.59 1228.74 793.61 1219.85
  C 791.48 1213.50 791.92 1203.37 797.68 1198.79
  Q 805.50 1192.58 813.90 1198.50
  A 0.87 0.87 0.0 0 0 815.27 1197.79
  Z
  M 808.3068 1222.7499
  A 10.16 6.96 90.3 0 0 815.3199 1212.6264
  A 10.16 6.96 90.3 0 0 808.4132 1202.4301
  A 10.16 6.96 90.3 0 0 801.4001 1212.5536
  A 10.16 6.96 90.3 0 0 808.3068 1222.7499
  Z"
/>
<path fill="#ffffff" d="
  M 1070.39 1219.95
  A 1.03 1.03 0.0 0 0 1071.42 1220.98
  L 1093.36 1220.99
  Q 1095.23 1220.99 1095.24 1222.86
  L 1095.25 1227.11
  Q 1095.26 1228.99 1093.39 1228.99
  L 1063.23 1229.00
  Q 1061.27 1229.00 1061.26 1227.04
  Q 1061.21 1206.34 1061.28 1186.38
  Q 1061.29 1185.70 1061.49 1185.04
  A 1.43 1.43 0.0 0 1 1062.86 1184.03
  L 1092.73 1184.05
  Q 1094.15 1184.05 1094.18 1185.48
  L 1094.25 1190.30
  Q 1094.28 1191.87 1092.70 1191.87
  L 1071.60 1191.87
  Q 1070.32 1191.87 1070.33 1193.15
  L 1070.42 1200.22
  Q 1070.44 1201.49 1071.71 1201.49
  L 1091.00 1201.50
  Q 1092.51 1201.50 1092.50 1203.00
  L 1092.47 1208.02
  Q 1092.46 1209.26 1091.23 1209.26
  L 1071.80 1209.28
  Q 1070.38 1209.28 1070.38 1210.70
  L 1070.39 1219.95
  Z"
/>
<rect fill="#ffffff" x="-4.36" y="-4.12" transform="translate(1247.08,1188.17) rotate(0.4)" width="8.72" height="8.24" rx="1.59"/>
<rect fill="#ffffff" x="1293.99" y="1184.06" width="8.80" height="44.90" rx="1.59"/>
<path fill="#ffffff" d="
  M 986.66 1186.41
  Q 988.40 1187.23 990.20 1186.97
  A 1.44 1.43 -72.5 0 0 991.06 1186.52
  L 992.60 1184.85
  A 1.85 1.85 0.0 0 1 995.80 1185.92
  C 996.20 1189.90 993.16 1193.18 989.06 1192.15
  Q 985.60 1191.27 981.85 1189.80
  A 1.52 1.52 0.0 0 0 980.15 1190.22
  L 978.54 1192.08
  A 1.91 1.91 0.0 0 1 975.23 1191.27
  Q 974.98 1190.24 975.28 1189.21
  C 977.05 1183.09 982.38 1184.41 986.66 1186.41
  Z"
/>
<path fill="#ffffff" d="
  M 444.63 1203.27
  L 443.25 1203.28
  A 0.95 0.95 0.0 0 1 442.32 1202.59
  Q 441.68 1200.30 442.15 1197.69
  Q 442.38 1196.39 443.70 1196.41
  Q 444.58 1196.42 445.28 1195.92
  Q 445.76 1195.56 445.76 1194.97
  L 445.76 1192.17
  A 3.70 3.68 -15.2 0 1 447.59 1188.99
  L 452.60 1186.04
  Q 454.37 1184.99 454.39 1187.05
  L 454.43 1194.61
  A 1.63 1.63 0.0 0 0 455.92 1196.22
  L 459.33 1196.52
  Q 460.08 1196.58 460.12 1197.33
  L 460.38 1201.64
  Q 460.47 1203.26 458.86 1203.31
  L 455.47 1203.43
  A 1.00 0.99 -89.7 0 0 454.51 1204.39
  Q 454.13 1212.19 454.74 1220.21
  Q 454.91 1222.46 457.17 1222.35
  L 459.73 1222.23
  A 0.71 0.70 84.8 0 1 460.47 1222.85
  L 461.00 1227.29
  Q 461.12 1228.26 460.21 1228.62
  C 456.44 1230.11 450.03 1230.58 447.51 1226.75
  Q 445.91 1224.32 445.83 1220.65
  Q 445.67 1212.38 445.78 1204.44
  A 1.15 1.14 -89.8 0 0 444.63 1203.27
  Z"
/>
<path fill="#ffffff" d="
  M 601.52 1204.33
  L 601.55 1220.39
  A 1.99 1.98 -1.5 0 0 603.64 1222.37
  L 606.27 1222.23
  Q 607.63 1222.15 607.71 1223.52
  L 607.91 1227.23
  Q 607.98 1228.44 606.83 1228.82
  C 600.74 1230.84 593.17 1229.92 593.11 1221.80
  Q 593.05 1212.45 593.00 1204.19
  Q 592.99 1203.55 592.36 1203.48
  L 590.18 1203.25
  Q 589.22 1203.14 589.22 1202.17
  L 589.22 1197.48
  Q 589.22 1196.67 590.02 1196.54
  L 592.29 1196.16
  Q 592.98 1196.04 592.99 1195.34
  L 593.05 1191.37
  A 2.55 2.53 -15.2 0 1 594.29 1189.23
  L 599.91 1185.87
  Q 601.46 1184.94 601.47 1186.75
  L 601.53 1195.29
  A 1.04 1.04 0.0 0 0 602.53 1196.32
  L 606.00 1196.43
  Q 607.52 1196.48 607.52 1198.00
  L 607.52 1201.77
  Q 607.52 1203.30 605.98 1203.33
  L 602.43 1203.40
  A 0.93 0.93 0.0 0 0 601.52 1204.33
  Z"
/>
<path fill="#ffffff" d="
  M 200.44 1202.61
  C 198.10 1201.77 194.63 1201.90 192.53 1203.08
  A 1.58 1.58 0.0 0 0 192.23 1205.61
  Q 193.64 1206.91 195.79 1207.39
  Q 199.54 1208.23 203.17 1209.24
  Q 207.98 1210.59 209.89 1212.51
  C 215.25 1217.90 211.85 1225.93 205.66 1228.35
  Q 199.34 1230.82 192.28 1229.07
  Q 185.71 1227.45 183.00 1221.32
  Q 182.33 1219.81 183.93 1219.39
  Q 186.72 1218.67 190.02 1218.56
  Q 190.80 1218.54 191.21 1219.21
  L 192.38 1221.12
  Q 192.70 1221.65 193.22 1221.98
  Q 197.65 1224.77 202.75 1222.13
  Q 203.21 1221.89 203.35 1221.39
  Q 204.28 1217.96 200.47 1217.22
  Q 193.21 1215.81 188.80 1213.77
  C 180.25 1209.81 182.99 1198.17 191.92 1196.22
  C 198.92 1194.70 207.85 1195.36 210.95 1203.10
  A 1.30 1.30 0.0 0 1 209.96 1204.87
  L 204.59 1205.81
  Q 204.01 1205.91 203.61 1205.49
  C 202.61 1204.42 201.91 1203.14 200.44 1202.61
  Z"
/>
<path fill="#ffffff" d="
  M 227.58 1217.89
  C 228.50 1221.76 232.69 1223.48 236.27 1222.00
  C 238.02 1221.28 238.78 1219.18 239.49 1217.53
  Q 240.03 1216.29 241.35 1216.54
  L 246.51 1217.53
  Q 248.21 1217.85 247.72 1219.51
  Q 245.66 1226.44 239.85 1228.54
  C 225.58 1233.68 215.39 1222.34 218.20 1208.30
  C 219.55 1201.51 224.00 1196.66 231.01 1195.80
  C 238.27 1194.90 244.97 1197.60 247.31 1204.83
  Q 247.63 1205.81 246.65 1206.12
  Q 243.23 1207.21 240.04 1207.31
  A 0.94 0.92 77.4 0 1 239.16 1206.74
  C 238.04 1204.02 235.71 1202.03 232.64 1202.64
  C 225.69 1204.02 226.40 1212.88 227.58 1217.89
  Z"
/>
<path fill="#ffffff" d="
  M 267.1829 1229.8071
  A 17.17 16.75 94.5 0 1 251.8316 1211.3758
  A 17.17 16.75 94.5 0 1 269.8771 1195.5729
  A 17.17 16.75 94.5 0 1 285.2284 1214.0042
  A 17.17 16.75 94.5 0 1 267.1829 1229.8071
  Z
  M 268.5500 1222.4600
  A 9.76 7.57 90.0 0 0 276.1200 1212.7000
  A 9.76 7.57 90.0 0 0 268.5500 1202.9400
  A 9.76 7.57 90.0 0 0 260.9800 1212.7000
  A 9.76 7.57 90.0 0 0 268.5500 1222.4600
  Z"
/>
<path fill="#ffffff" d="
  M 326.09 1207.00
  Q 326.53 1203.23 322.99 1202.56
  Q 317.59 1201.54 315.45 1205.54
  Q 314.93 1206.51 313.84 1206.34
  L 309.05 1205.62
  Q 307.24 1205.35 307.84 1203.61
  C 309.43 1199.03 313.24 1196.29 318.05 1195.79
  C 325.64 1195.00 334.95 1196.14 334.80 1206.10
  Q 334.68 1214.49 334.78 1221.62
  C 334.81 1223.71 335.53 1225.72 336.07 1227.76
  A 0.87 0.87 0.0 0 1 335.30 1228.85
  Q 332.51 1229.09 329.70 1228.98
  C 328.52 1228.94 327.76 1227.94 327.23 1226.99
  A 1.08 1.08 0.0 0 0 325.63 1226.67
  Q 320.02 1230.97 313.28 1229.15
  C 308.63 1227.89 305.98 1223.40 306.64 1218.78
  Q 307.64 1211.88 315.65 1210.37
  Q 320.27 1209.50 325.04 1208.23
  A 1.45 1.44 85.5 0 0 326.09 1207.00
  Z
  M 326.12 1215.22
  Q 325.98 1213.85 324.64 1214.14
  C 322.34 1214.64 317.32 1215.38 315.85 1217.41
  Q 314.49 1219.28 315.90 1221.14
  Q 318.87 1225.06 323.43 1222.08
  Q 326.61 1220.01 326.12 1215.22
  Z"
/>
<path fill="#ffffff" d="
  M 418.00 1216.29
  C 418.06 1221.28 422.25 1224.08 427.07 1222.43
  C 428.42 1221.96 428.92 1220.61 429.64 1219.51
  Q 430.37 1218.37 431.70 1218.64
  L 437.02 1219.73
  A 1.17 1.17 0.0 0 1 437.84 1221.39
  Q 433.51 1230.44 422.81 1229.70
  C 410.67 1228.85 407.00 1216.93 409.62 1206.84
  C 411.88 1198.15 420.04 1193.68 428.62 1196.41
  C 436.17 1198.82 439.42 1206.96 438.75 1214.33
  A 0.81 0.80 -8.1 0 1 438.23 1215.02
  Q 437.00 1215.49 435.60 1215.49
  Q 427.29 1215.50 418.79 1215.49
  Q 417.99 1215.49 418.00 1216.29
  Z
  M 419.53 1209.91
  L 428.69 1209.87
  A 1.33 1.33 0.0 0 0 430.01 1208.53
  L 430.01 1208.39
  A 5.89 5.76 89.7 0 0 424.22 1202.53
  L 423.92 1202.53
  A 5.89 5.76 89.7 0 0 418.19 1208.45
  L 418.19 1208.59
  A 1.33 1.33 0.0 0 0 419.53 1209.91
  Z"
/>
<path fill="#ffffff" d="
  M 479.3125 1229.8039
  A 17.17 16.75 94.2 0 1 463.8650 1211.4533
  A 17.17 16.75 94.2 0 1 481.8275 1195.5561
  A 17.17 16.75 94.2 0 1 497.2750 1213.9067
  A 17.17 16.75 94.2 0 1 479.3125 1229.8039
  Z
  M 480.6230 1222.4500
  A 9.76 7.65 90.1 0 0 488.2900 1212.7034
  A 9.76 7.65 90.1 0 0 480.6570 1202.9300
  A 9.76 7.65 90.1 0 0 472.9900 1212.6766
  A 9.76 7.65 90.1 0 0 480.6230 1222.4500
  Z"
/>
<path fill="#ffffff" d="
  M 565.61 1206.06
  Q 567.31 1207.15 569.41 1207.61
  Q 574.76 1208.77 579.00 1210.28
  Q 585.93 1212.74 585.31 1219.54
  C 584.39 1229.67 571.89 1231.07 563.98 1228.70
  Q 558.21 1226.96 555.96 1221.37
  A 1.54 1.54 0.0 0 1 557.15 1219.28
  L 561.83 1218.55
  Q 563.64 1218.26 564.55 1219.85
  Q 567.76 1225.46 575.20 1222.31
  C 576.89 1221.60 577.32 1219.10 575.56 1218.10
  Q 574.56 1217.53 573.49 1217.31
  C 568.93 1216.34 562.30 1215.08 559.09 1211.97
  C 555.29 1208.29 555.74 1202.50 559.53 1198.95
  Q 562.39 1196.26 567.08 1195.81
  C 573.85 1195.16 580.91 1195.96 583.81 1203.05
  A 1.38 1.38 0.0 0 1 582.75 1204.93
  L 577.51 1205.78
  A 1.34 1.33 68.2 0 1 576.19 1205.21
  Q 573.03 1200.58 566.08 1202.71
  A 1.87 1.86 -37.1 0 0 565.61 1206.06
  Z"
/>
<path fill="#ffffff" d="
  M 630.31 1226.49
  C 623.96 1231.61 613.76 1231.04 611.22 1222.34
  Q 610.33 1219.30 611.82 1216.06
  Q 613.92 1211.49 620.05 1210.38
  Q 625.07 1209.46 629.94 1208.02
  A 1.10 1.10 0.0 0 0 630.73 1207.02
  C 630.94 1202.59 626.99 1202.06 623.64 1202.53
  C 621.71 1202.80 620.67 1204.38 619.58 1205.80
  A 1.22 1.21 19.1 0 1 618.60 1206.27
  Q 615.69 1206.22 613.02 1205.40
  A 1.18 1.18 0.0 0 1 612.23 1203.93
  Q 614.39 1196.90 622.05 1195.87
  C 627.26 1195.17 635.65 1195.39 638.08 1200.90
  Q 639.37 1203.81 639.31 1208.20
  Q 639.22 1214.85 639.28 1220.97
  Q 639.32 1224.34 640.46 1227.55
  A 1.01 1.00 78.0 0 1 639.59 1228.89
  C 638.02 1229.00 634.72 1229.33 633.24 1228.69
  C 632.22 1228.24 632.11 1227.36 631.46 1226.59
  Q 630.94 1225.98 630.31 1226.49
  Z
  M 629.18 1214.10
  C 626.55 1214.78 623.94 1215.22 621.48 1216.40
  C 618.63 1217.75 619.36 1221.28 621.81 1222.67
  Q 623.71 1223.75 625.81 1223.06
  Q 631.38 1221.23 630.47 1214.96
  A 1.04 1.04 0.0 0 0 629.18 1214.10
  Z"
/>
<path fill="#ffffff" d="
  M 708.77 1216.09
  C 708.43 1221.06 713.15 1224.14 717.78 1222.39
  C 719.27 1221.82 719.91 1220.06 720.95 1218.90
  A 1.00 0.99 -63.1 0 1 721.88 1218.59
  L 727.90 1219.78
  A 1.03 1.03 0.0 0 1 728.65 1221.18
  C 725.48 1228.98 716.95 1231.25 709.51 1228.87
  C 701.55 1226.32 699.11 1218.44 699.72 1210.69
  C 700.40 1202.04 706.05 1195.35 715.03 1195.64
  C 725.07 1195.97 729.06 1203.87 729.70 1212.76
  Q 729.88 1215.41 727.26 1215.44
  Q 718.62 1215.54 709.42 1215.49
  Q 708.81 1215.48 708.77 1216.09
  Z
  M 710.07 1209.84
  L 719.55 1209.74
  A 1.11 1.11 0.0 0 0 720.65 1208.62
  L 720.64 1208.40
  A 5.87 5.75 89.4 0 0 714.83 1202.59
  L 714.63 1202.59
  A 5.87 5.75 89.4 0 0 708.94 1208.52
  L 708.95 1208.74
  A 1.11 1.11 0.0 0 0 710.07 1209.84
  Z"
/>
<path fill="#ffffff" d="
  M 883.31 1222.54
  C 887.35 1222.75 888.41 1220.23 889.64 1217.12
  A 0.83 0.83 0.0 0 1 890.47 1216.59
  Q 893.82 1216.77 896.91 1217.80
  Q 897.95 1218.15 897.68 1219.22
  C 896.39 1224.23 893.09 1227.94 888.04 1229.14
  C 882.75 1230.41 876.76 1229.64 872.83 1225.94
  C 868.02 1221.42 867.08 1214.46 868.20 1208.24
  C 869.45 1201.30 874.49 1196.37 881.52 1195.73
  C 888.62 1195.07 894.73 1197.59 897.16 1204.73
  Q 897.62 1206.10 896.20 1206.37
  L 890.71 1207.40
  A 1.42 1.42 0.0 0 1 889.15 1206.55
  C 887.25 1202.04 882.32 1201.20 878.87 1204.59
  Q 877.04 1206.39 876.83 1209.57
  C 876.50 1214.61 876.62 1222.17 883.31 1222.54
  Z"
/>
<path fill="#ffffff" d="
  M 922.34 1226.62
  A 0.74 0.74 0.0 0 0 921.23 1226.38
  Q 915.28 1231.03 908.64 1229.20
  C 904.71 1228.11 901.86 1224.63 901.79 1220.63
  Q 901.64 1212.63 910.16 1210.57
  C 913.48 1209.77 918.02 1209.39 921.09 1207.79
  A 0.90 0.88 76.2 0 0 921.57 1206.98
  C 921.44 1202.38 917.67 1201.87 914.02 1202.66
  C 912.27 1203.04 911.43 1204.62 910.29 1205.85
  Q 909.94 1206.23 909.43 1206.23
  Q 906.75 1206.23 903.90 1205.37
  Q 902.60 1204.98 903.05 1203.69
  C 905.78 1195.93 913.12 1195.08 920.26 1195.82
  Q 930.39 1196.87 930.01 1207.18
  Q 929.76 1214.16 929.96 1221.72
  C 930.02 1223.89 930.62 1225.70 931.32 1227.68
  A 0.79 0.78 75.9 0 1 930.70 1228.72
  Q 928.30 1229.08 925.49 1229.02
  C 923.89 1228.98 923.00 1227.91 922.34 1226.62
  Z
  M 921.39 1215.09
  Q 921.27 1213.74 919.96 1214.07
  Q 916.99 1214.82 913.91 1215.68
  C 906.65 1217.70 912.01 1225.74 918.10 1222.44
  Q 921.87 1220.40 921.39 1215.09
  Z"
/>
<path fill="#ffffff" d="
  M 957.00 1230.24
  C 957.43 1230.88 958.10 1231.46 958.43 1232.14
  C 960.78 1236.98 956.45 1239.75 952.50 1241.25
  Q 951.11 1241.78 944.27 1241.27
  A 1.87 1.86 88.9 0 1 942.55 1239.61
  L 942.49 1239.06
  Q 942.22 1236.66 944.62 1237.03
  Q 950.07 1237.88 952.23 1236.25
  A 2.07 2.07 0.0 0 0 951.61 1232.63
  Q 949.32 1231.90 946.82 1232.50
  A 0.82 0.82 0.0 0 1 945.85 1231.45
  Q 946.26 1230.20 945.72 1229.09
  Q 945.48 1228.61 945.00 1228.38
  Q 938.83 1225.44 937.03 1218.75
  C 933.59 1205.94 940.84 1193.46 955.42 1195.94
  Q 962.90 1197.22 965.67 1204.60
  Q 966.23 1206.07 964.68 1206.36
  L 959.32 1207.37
  Q 957.80 1207.66 957.25 1206.21
  C 955.69 1202.03 950.86 1201.40 947.75 1204.20
  Q 945.83 1205.94 945.54 1208.93
  C 945.10 1213.39 944.92 1221.43 950.64 1222.40
  Q 956.04 1223.31 957.57 1218.11
  Q 958.13 1216.24 960.04 1216.61
  L 964.80 1217.54
  Q 966.59 1217.89 966.10 1219.65
  Q 964.19 1226.43 957.37 1229.07
  Q 956.44 1229.42 957.00 1230.24
  Z"
/>
<path fill="#ffffff" d="
  M 989.70 1226.44
  C 984.82 1230.26 977.01 1231.36 972.61 1226.42
  Q 969.04 1222.42 970.59 1217.22
  C 971.79 1213.18 975.88 1210.90 979.73 1210.27
  Q 984.03 1209.56 988.57 1208.24
  Q 990.24 1207.75 989.93 1206.05
  C 989.64 1204.47 988.71 1203.00 987.05 1202.64
  Q 981.30 1201.42 979.27 1205.32
  Q 978.61 1206.58 977.21 1206.33
  L 972.41 1205.44
  Q 970.98 1205.18 971.46 1203.80
  Q 974.00 1196.54 982.14 1195.79
  C 989.29 1195.13 998.29 1196.14 998.42 1205.26
  Q 998.53 1213.80 998.56 1222.02
  Q 998.57 1224.74 999.67 1227.48
  A 1.08 1.08 0.0 0 1 998.67 1228.96
  L 993.38 1228.97
  A 1.78 1.76 72.2 0 1 991.94 1228.22
  L 990.82 1226.61
  Q 990.35 1225.93 989.70 1226.44
  Z
  M 983.33 1223.40
  Q 990.05 1223.04 989.91 1215.53
  Q 989.87 1213.67 988.06 1214.08
  Q 985.47 1214.66 982.63 1215.39
  C 977.04 1216.82 978.44 1223.66 983.33 1223.40
  Z"
/>
<path fill="#ffffff" d="
  M 1020.0414 1229.8322
  A 17.18 16.70 93.8 0 1 1004.5167 1211.5832
  A 17.18 16.70 93.8 0 1 1022.3186 1195.5478
  A 17.18 16.70 93.8 0 1 1037.8433 1213.7968
  A 17.18 16.70 93.8 0 1 1020.0414 1229.8322
  Z
  M 1021.1587 1222.4899
  A 9.80 7.63 90.3 0 0 1028.8399 1212.7300
  A 9.80 7.63 90.3 0 0 1021.2613 1202.8901
  A 9.80 7.63 90.3 0 0 1013.5801 1212.6500
  A 9.80 7.63 90.3 0 0 1021.1587 1222.4899
  Z"
/>
<path fill="#ffffff" d="
  M 1119.65 1218.11
  Q 1118.70 1217.53 1117.64 1217.31
  Q 1112.05 1216.14 1107.48 1214.54
  Q 1099.43 1211.72 1100.88 1203.82
  C 1102.45 1195.30 1113.41 1194.69 1120.31 1196.37
  Q 1125.71 1197.68 1128.02 1203.31
  A 1.08 1.08 0.0 0 1 1127.22 1204.78
  L 1122.02 1205.75
  A 2.01 1.99 -26.2 0 1 1120.16 1205.13
  C 1119.30 1204.18 1118.57 1202.89 1117.29 1202.54
  C 1115.19 1201.96 1110.94 1201.62 1109.22 1203.36
  A 1.76 1.76 0.0 0 0 1109.61 1206.14
  Q 1111.47 1207.16 1113.48 1207.60
  Q 1118.44 1208.68 1122.55 1210.11
  C 1133.01 1213.76 1130.82 1225.76 1121.40 1228.75
  C 1113.77 1231.17 1102.84 1229.61 1099.85 1220.93
  A 1.04 1.03 70.4 0 1 1100.47 1219.62
  Q 1103.47 1218.54 1107.21 1218.62
  A 1.15 1.14 -14.3 0 1 1108.16 1219.18
  C 1108.91 1220.45 1109.45 1221.74 1110.87 1222.42
  Q 1115.29 1224.53 1119.42 1222.17
  C 1120.83 1221.37 1121.17 1219.04 1119.65 1218.11
  Z"
/>
<path fill="#ffffff" d="
  M 1145.13 1226.78
  L 1145.13 1239.28
  Q 1145.12 1241.43 1142.97 1241.42
  L 1138.05 1241.41
  Q 1136.45 1241.40 1136.45 1239.80
  L 1136.45 1197.21
  Q 1136.45 1196.37 1137.29 1196.37
  L 1143.22 1196.41
  A 0.86 0.84 79.4 0 1 1144.01 1196.96
  L 1144.49 1198.28
  A 1.12 1.12 0.0 0 0 1146.22 1198.78
  Q 1152.66 1193.91 1158.71 1196.48
  C 1169.62 1201.12 1170.33 1217.95 1163.40 1225.59
  C 1158.77 1230.70 1151.35 1231.16 1146.21 1226.31
  A 0.64 0.64 0.0 0 0 1145.13 1226.78
  Z
  M 1152.1061 1222.7185
  A 10.09 6.97 89.0 0 0 1158.8989 1212.5084
  A 10.09 6.97 89.0 0 0 1151.7539 1202.5415
  A 10.09 6.97 89.0 0 0 1144.9611 1212.7516
  A 10.09 6.97 89.0 0 0 1152.1061 1222.7185
  Z"
/>
<path fill="#ffffff" d="
  M 1180.93 1216.26
  C 1180.92 1219.00 1182.63 1221.88 1185.35 1222.61
  Q 1190.12 1223.88 1192.12 1220.14
  Q 1193.13 1218.27 1195.20 1218.74
  L 1199.16 1219.64
  Q 1201.58 1220.20 1200.37 1222.36
  Q 1196.67 1229.02 1189.09 1229.62
  C 1179.55 1230.37 1172.93 1225.13 1171.93 1215.95
  C 1171.23 1209.45 1172.60 1202.05 1178.50 1198.12
  Q 1184.74 1193.97 1192.16 1196.65
  C 1199.41 1199.28 1202.09 1206.83 1201.52 1214.09
  A 1.49 1.48 -87.7 0 1 1200.04 1215.46
  L 1181.67 1215.52
  A 0.74 0.74 0.0 0 0 1180.93 1216.26
  Z
  M 1182.39 1209.93
  L 1191.49 1209.85
  A 1.34 1.34 0.0 0 0 1192.82 1208.50
  L 1192.82 1208.36
  A 5.88 5.75 89.5 0 0 1187.02 1202.53
  L 1186.74 1202.53
  A 5.88 5.75 89.5 0 0 1181.04 1208.46
  L 1181.04 1208.60
  A 1.34 1.34 0.0 0 0 1182.39 1209.93
  Z"
/>
<path fill="#ffffff" d="
  M 1220.26 1222.13
  Q 1224.07 1223.53 1226.64 1220.76
  C 1227.57 1219.75 1227.95 1218.19 1228.58 1216.99
  Q 1228.82 1216.52 1229.35 1216.57
  Q 1232.48 1216.86 1235.20 1217.62
  Q 1237.12 1218.16 1236.41 1220.02
  Q 1232.62 1230.04 1221.78 1229.67
  C 1209.03 1229.23 1204.84 1218.11 1207.32 1207.18
  C 1209.63 1197.01 1220.09 1193.31 1229.18 1196.97
  Q 1233.71 1198.79 1236.14 1204.84
  A 1.08 1.08 0.0 0 1 1235.34 1206.30
  L 1229.36 1207.41
  Q 1228.73 1207.53 1228.34 1207.02
  C 1226.58 1204.67 1225.87 1202.32 1222.30 1202.56
  C 1215.00 1203.06 1214.78 1211.39 1215.90 1216.77
  Q 1216.75 1220.83 1220.26 1222.13
  Z"
/>
<path fill="#ffffff" d="
  M 1278.47 1226.73
  A 0.96 0.96 0.0 0 0 1277.00 1226.41
  C 1272.33 1230.23 1264.37 1231.44 1260.07 1226.38
  C 1254.90 1220.30 1258.12 1212.58 1265.53 1210.70
  Q 1269.70 1209.64 1274.03 1208.84
  Q 1275.73 1208.53 1277.04 1207.61
  Q 1277.50 1207.29 1277.46 1206.73
  Q 1277.16 1203.27 1274.24 1202.61
  Q 1269.04 1201.42 1266.56 1205.48
  A 1.60 1.59 -73.7 0 1 1265.16 1206.25
  Q 1262.50 1206.20 1259.85 1205.41
  Q 1258.63 1205.05 1259.02 1203.84
  C 1261.59 1195.79 1269.43 1195.00 1276.64 1195.85
  Q 1285.83 1196.94 1285.89 1206.24
  Q 1285.94 1214.01 1285.97 1221.75
  C 1285.98 1223.79 1286.43 1225.70 1287.16 1227.58
  Q 1287.71 1228.96 1286.22 1228.97
  L 1280.85 1228.99
  Q 1280.27 1229.00 1279.84 1228.60
  Q 1279.01 1227.84 1278.47 1226.73
  Z
  M 1276.56 1213.78
  Q 1272.38 1214.24 1268.62 1215.72
  C 1263.81 1217.63 1266.57 1224.04 1270.98 1223.62
  Q 1278.35 1222.90 1277.46 1214.50
  A 0.81 0.81 0.0 0 0 1276.56 1213.78
  Z"
/>
<rect fill="#ffffff" x="-4.35" y="-16.27" transform="translate(545.59,1212.66) rotate(-0.1)" width="8.70" height="32.54" rx="1.34"/>
<path fill="#ffffff" d="
  M 851.50 1226.27
  C 846.82 1229.93 841.34 1231.06 836.14 1227.78
  C 833.00 1225.80 831.93 1221.02 831.87 1217.68
  Q 831.70 1208.28 831.85 1198.40
  Q 831.88 1196.37 833.92 1196.37
  L 839.03 1196.38
  Q 840.53 1196.38 840.52 1197.88
  Q 840.46 1207.66 840.56 1216.69
  C 840.58 1219.25 841.68 1222.53 844.74 1222.73
  Q 852.20 1223.23 852.24 1215.98
  Q 852.29 1206.98 852.47 1198.09
  Q 852.50 1196.40 854.20 1196.39
  L 859.76 1196.38
  Q 861.40 1196.38 861.40 1198.01
  L 861.40 1227.64
  A 0.99 0.98 82.3 0 1 860.68 1228.59
  C 858.64 1229.15 853.55 1229.93 852.93 1226.81
  A 0.90 0.89 65.5 0 0 851.50 1226.27
  Z"
/>
<rect fill="#ffffff" x="-4.38" y="-16.26" transform="translate(1247.11,1212.65) rotate(-0.1)" width="8.76" height="32.52" rx="1.34"/>
</svg>
