<?xml version="1.0" encoding="UTF-8" standalone="no"?>
<!DOCTYPE svg PUBLIC "-//W3C//DTD SVG 1.1//EN" "http://www.w3.org/Graphics/SVG/1.1/DTD/svg11.dtd">
<svg xmlns="http://www.w3.org/2000/svg" version="1.1" viewBox="0.00 0.00 1448.00 1448.00">
<path fill="#3b4197" d="
  M 499.11 430.56
  C 465.96 376.39 463.56 303.17 498.18 249.34
  C 514.20 224.43 537.59 211.19 567.07 208.74
  C 568.95 208.59 570.77 207.72 572.54 207.76
  C 597.40 208.34 621.67 216.86 638.84 235.17
  Q 647.25 244.13 654.94 258.40
  C 670.83 287.86 675.13 318.91 673.76 352.00
  Q 672.09 392.62 651.21 427.93
  C 636.76 452.37 615.40 468.61 586.50 470.35
  Q 575.51 471.01 562.50 470.30
  C 534.78 468.81 513.31 453.76 499.11 430.56
  Z
  M 538.29 277.03
  C 528.09 299.53 524.85 323.19 525.52 347.75
  C 526.21 373.12 535.69 433.25 572.91 430.78
  Q 579.60 430.33 581.63 430.14
  C 599.35 428.46 607.51 408.44 612.04 393.83
  Q 625.60 350.07 616.95 304.97
  C 613.28 285.85 603.20 252.32 580.01 249.88
  C 576.66 249.52 573.19 248.70 570.31 249.15
  C 554.70 251.61 544.42 263.49 538.29 277.03
  Z"
/>
<path fill="#3b4197" d="
  M 341.93 258.04
  L 335.60 318.99
  A 1.44 1.43 89.2 0 0 337.21 320.56
  C 364.99 316.97 397.47 316.55 422.23 331.75
  C 442.59 344.24 459.48 368.05 457.15 393.07
  C 456.94 395.39 457.12 397.80 456.69 399.97
  C 451.30 427.43 426.23 451.47 400.73 460.90
  Q 386.16 466.29 370.76 468.37
  Q 341.99 472.27 319.00 469.74
  Q 300.94 467.74 282.98 465.21
  A 0.55 0.55 0.0 0 1 282.52 464.75
  L 276.64 421.25
  Q 276.53 420.47 277.23 420.82
  C 288.09 426.13 298.68 428.91 310.52 431.06
  C 335.72 435.63 365.64 433.14 384.12 413.13
  C 398.08 398.01 400.85 379.59 384.27 364.71
  C 374.07 355.57 360.72 351.53 347.38 350.08
  Q 324.44 347.60 301.78 351.88
  Q 290.97 353.91 280.28 355.92
  A 0.42 0.42 0.0 0 1 279.78 355.49
  L 285.44 217.01
  Q 285.46 216.47 286.01 216.47
  L 445.23 216.53
  Q 445.67 216.53 445.67 216.98
  L 445.75 257.12
  Q 445.75 257.74 445.13 257.74
  L 342.27 257.74
  A 0.34 0.33 2.8 0 0 341.93 258.04
  Z"
/>
<rect fill="#3b4197" x="687.51" y="216.53" width="35.52" height="68.10" rx="0.69"/>
<path fill="#3b4197" d="
  M 1080.60 406.51
  Q 1080.08 413.44 1079.46 421.96
  C 1079.37 423.28 1080.10 424.65 1078.51 425.64
  Q 1067.29 432.65 1059.59 439.09
  Q 1038.98 456.32 1018.68 473.93
  Q 1012.78 479.04 1004.01 485.09
  C 995.85 490.73 995.92 479.42 990.23 478.38
  C 980.56 476.60 974.91 480.97 967.63 486.54
  C 959.17 493.02 951.38 494.22 941.44 495.46
  A 1.79 1.79 0.0 0 1 939.52 494.25
  C 936.77 485.97 931.95 479.68 927.01 472.53
  Q 919.77 462.08 918.43 449.45
  Q 918.40 449.14 918.22 448.84
  Q 917.98 448.43 917.97 448.25
  Q 917.53 433.02 918.00 417.80
  C 918.01 417.45 918.16 417.17 918.33 416.88
  Q 918.44 416.70 918.46 416.51
  C 920.11 397.47 927.21 372.09 949.50 368.56
  C 957.70 367.27 960.03 372.22 961.24 378.94
  C 961.73 381.65 960.61 383.87 958.92 385.67
  C 950.70 394.42 943.04 404.79 940.55 416.39
  Q 939.57 420.97 939.54 430.19
  C 939.51 438.35 939.25 446.76 939.98 454.77
  C 940.54 461.00 942.78 468.61 943.63 475.59
  A 1.67 1.67 0.0 0 0 946.04 476.88
  L 986.68 456.40
  A 1.34 1.34 0.0 0 1 988.30 456.73
  L 996.88 466.91
  A 2.83 2.81 59.2 0 0 1000.04 467.72
  Q 1004.98 465.82 1009.93 462.92
  Q 1029.34 451.54 1047.16 434.66
  C 1053.22 428.92 1061.71 420.19 1061.85 412.01
  Q 1061.90 408.79 1061.71 405.59
  C 1061.42 400.89 1059.46 396.22 1058.29 391.58
  A 0.54 0.54 0.0 0 1 1059.01 390.95
  L 1068.32 394.70
  A 1.01 1.00 -82.5 0 0 1069.69 393.64
  C 1069.19 389.35 1064.50 382.50 1061.95 378.97
  Q 1037.14 344.64 1004.81 317.20
  C 998.04 311.46 989.89 304.98 981.08 302.99
  C 977.53 302.19 974.49 303.04 970.80 303.51
  C 947.44 306.49 933.12 332.33 920.49 349.24
  Q 914.00 357.93 905.71 363.46
  C 903.34 365.04 893.90 369.58 890.78 367.70
  Q 889.01 366.62 887.49 365.51
  A 0.82 0.81 34.9 0 1 887.29 364.41
  Q 914.94 321.90 942.60 279.30
  Q 943.68 277.63 942.80 276.59
  Q 942.34 276.05 940.76 275.62
  C 924.69 271.17 912.53 262.09 909.43 244.93
  C 908.92 242.13 909.34 240.80 910.81 238.53
  Q 911.44 237.55 912.58 237.84
  Q 913.82 238.16 915.38 239.08
  Q 944.62 256.50 974.00 273.71
  C 978.63 276.43 982.14 279.64 986.05 283.24
  Q 1036.41 329.60 1086.73 375.85
  A 2.55 2.54 50.1 0 0 1089.82 376.13
  C 1095.22 372.71 1109.17 362.53 1110.02 355.84
  C 1110.81 349.67 1104.46 344.33 1100.04 341.00
  Q 1084.13 329.01 1079.70 325.58
  C 1069.27 317.51 1063.04 306.99 1056.77 294.94
  C 1050.79 283.45 1045.22 273.32 1034.33 265.64
  C 1031.79 263.84 1030.08 264.63 1027.41 265.27
  Q 1014.89 268.27 1002.43 271.75
  A 0.90 0.89 -5.9 0 1 1001.30 270.84
  Q 1002.36 253.14 1018.97 248.06
  Q 1026.89 245.64 1038.72 245.88
  C 1047.99 246.08 1056.37 256.13 1062.20 263.04
  Q 1071.47 274.03 1080.62 285.12
  C 1095.58 303.24 1120.33 308.01 1135.22 325.01
  Q 1139.19 329.55 1140.73 336.48
  C 1141.26 338.86 1140.58 339.79 1140.45 341.58
  C 1139.52 353.54 1131.26 363.61 1125.13 373.79
  C 1121.51 379.80 1116.01 383.64 1112.18 389.40
  C 1108.19 395.39 1110.72 402.69 1114.56 408.25
  C 1118.72 414.26 1123.63 418.06 1123.26 426.24
  C 1123.12 429.28 1123.10 432.27 1122.32 435.20
  Q 1120.87 440.58 1119.17 445.52
  A 0.69 0.69 0.0 0 1 1117.99 445.74
  L 1083.48 405.56
  Q 1080.89 402.55 1080.60 406.51
  Z"
/>
<path fill="#3b4197" d="
  M 750.13 383.82
  C 728.00 389.22 706.57 400.30 687.80 412.72
  Q 687.29 413.05 687.47 412.47
  Q 690.27 403.46 692.91 394.58
  Q 694.83 388.13 696.11 380.88
  Q 696.28 379.91 697.16 379.46
  Q 720.71 367.45 746.23 359.13
  C 760.28 354.56 774.64 351.28 789.50 351.08
  Q 802.70 350.90 815.89 351.18
  C 828.25 351.44 842.41 355.77 854.10 359.34
  A 0.37 0.37 0.0 0 1 854.06 360.06
  Q 852.95 360.26 851.46 360.62
  Q 810.11 370.57 768.75 380.50
  C 763.37 381.79 755.81 382.43 750.13 383.82
  Z"
/>
<path fill="#3b4197" d="
  M 720.10 604.57
  L 714.22 604.53
  Q 711.92 604.51 712.18 602.22
  Q 714.43 582.79 717.05 564.76
  Q 720.90 538.26 731.55 505.84
  Q 741.28 476.24 755.04 448.28
  Q 765.77 426.49 772.80 413.57
  Q 773.12 412.99 774.92 411.16
  Q 788.98 396.88 803.35 382.49
  A 4.10 4.07 -67.7 0 1 806.19 381.29
  Q 817.93 381.14 830.39 381.35
  C 837.28 381.47 842.79 386.30 845.48 392.62
  Q 850.24 403.79 843.88 415.29
  A 0.61 0.61 0.0 0 1 842.87 415.36
  C 834.58 404.56 828.02 402.78 814.41 403.63
  C 791.31 405.07 775.53 450.18 770.12 468.28
  C 763.72 489.64 759.36 511.04 755.80 533.03
  C 755.11 537.29 754.66 542.32 753.94 546.94
  C 753.42 550.27 753.46 554.36 752.90 558.05
  C 752.35 561.61 752.30 564.62 752.15 568.00
  C 752.04 570.39 751.09 574.23 751.46 577.50
  Q 751.52 578.02 752.04 578.04
  Q 769.04 578.59 785.87 576.39
  C 789.65 575.90 794.69 575.93 799.02 575.45
  Q 808.81 574.37 819.58 573.55
  Q 821.54 573.40 822.05 571.50
  L 839.24 508.51
  A 1.25 1.24 -78.5 0 1 840.60 507.60
  Q 842.25 507.81 843.71 508.55
  Q 844.16 508.78 844.16 509.28
  C 844.19 515.50 843.38 521.40 842.93 527.75
  C 842.19 538.19 840.72 549.18 839.40 564.07
  Q 838.83 570.58 837.53 577.32
  Q 836.26 583.90 835.08 590.51
  Q 834.66 592.88 833.88 595.01
  A 1.25 1.24 -79.9 0 1 832.71 595.83
  Q 797.24 595.72 762.75 595.91
  Q 758.16 595.93 747.26 598.95
  C 744.77 599.64 742.56 599.83 740.05 599.98
  A 1.26 1.26 0.0 0 0 738.98 601.75
  Q 741.91 608.37 743.54 615.53
  C 745.00 621.93 743.62 630.12 747.07 636.55
  C 751.22 644.30 758.27 649.72 765.28 654.73
  C 782.54 667.06 801.27 676.65 819.79 686.87
  Q 829.14 692.04 837.52 696.13
  Q 879.51 716.64 923.10 733.50
  C 929.62 736.02 936.19 738.09 942.81 740.14
  Q 943.63 740.39 944.47 741.51
  C 955.15 755.63 969.55 765.32 985.75 772.77
  C 1005.75 781.98 1026.21 788.63 1046.71 795.81
  Q 1060.61 800.68 1072.55 808.10
  Q 1076.02 810.25 1071.96 809.83
  L 992.96 801.51
  A 1.51 1.46 66.8 0 1 992.22 801.20
  Q 975.01 787.59 956.48 775.99
  Q 923.32 755.23 888.08 738.25
  C 872.69 730.83 857.11 724.19 840.51 719.95
  Q 836.20 718.85 832.37 718.47
  A 1.24 1.24 0.0 0 0 831.10 720.16
  Q 836.89 734.77 838.95 750.02
  Q 841.87 771.78 842.14 793.75
  C 842.17 795.90 842.71 798.11 842.74 800.09
  Q 842.99 817.17 843.12 834.25
  C 843.13 835.91 843.75 838.19 843.76 840.26
  Q 843.77 854.08 847.61 867.37
  C 848.81 871.52 850.58 874.44 853.81 877.70
  Q 860.71 884.66 868.03 891.98
  Q 869.31 893.26 867.50 893.26
  L 836.02 893.25
  A 2.41 2.40 72.4 0 1 834.05 892.22
  L 825.82 880.39
  A 1.69 1.67 -58.6 0 1 825.53 879.17
  C 826.09 875.22 826.10 871.16 826.67 867.29
  C 827.67 860.60 827.81 854.07 828.65 847.20
  C 829.06 843.89 829.00 840.53 829.42 837.29
  Q 829.85 833.95 830.00 830.59
  C 830.29 824.44 831.58 818.49 831.78 812.32
  Q 831.92 807.73 831.03 800.73
  C 829.29 787.03 828.01 773.31 826.28 759.60
  Q 824.57 746.03 823.26 732.42
  C 822.95 729.15 821.93 723.98 821.98 719.66
  A 1.47 1.45 -1.1 0 1 823.37 718.23
  L 827.32 718.02
  A 0.98 0.98 0.0 0 0 828.03 716.42
  Q 827.64 715.94 826.90 715.36
  C 812.45 704.12 798.09 697.83 779.92 689.61
  C 754.48 678.09 735.16 661.94 722.15 637.14
  Q 721.05 635.04 720.99 632.59
  Q 720.69 619.13 720.96 605.46
  A 0.87 0.87 0.0 0 0 720.10 604.57
  Z"
/>
<path fill="#3b4197" d="
  M 892.79 622.01
  A 1.44 1.44 0.0 0 0 891.36 623.64
  C 892.36 631.10 892.87 638.26 893.83 645.52
  Q 895.07 654.91 895.38 664.11
  Q 895.41 664.90 894.90 664.30
  C 890.17 658.72 887.08 653.01 884.51 645.73
  C 881.94 638.45 880.73 631.70 878.10 625.98
  C 874.87 618.95 870.16 618.91 863.49 617.67
  Q 860.99 617.20 858.48 617.23
  C 847.48 617.34 838.66 617.73 829.21 614.59
  C 826.40 613.66 824.42 612.08 824.97 608.96
  A 1.76 1.75 86.2 0 1 826.17 607.58
  L 872.41 592.96
  A 1.11 1.10 81.6 0 0 873.18 591.92
  Q 873.43 580.22 873.52 568.68
  C 873.56 563.90 874.09 558.91 874.31 553.98
  C 874.66 546.29 877.09 540.71 878.73 533.60
  Q 887.48 495.86 895.44 461.11
  Q 896.79 455.21 896.91 461.26
  L 900.25 621.12
  Q 900.27 622.02 899.37 622.02
  L 892.79 622.01
  Z"
/>
<path fill="#3b4197" d="
  M 526.33 582.75
  C 528.31 582.96 530.46 582.74 532.54 583.10
  C 536.43 583.78 540.30 583.80 544.10 584.51
  C 548.24 585.29 552.81 585.62 556.60 586.41
  Q 619.07 599.43 675.17 629.84
  C 684.66 634.99 694.78 640.83 702.70 648.22
  A 0.71 0.71 0.0 0 1 702.83 649.10
  Q 700.91 652.45 697.06 657.27
  C 693.25 662.04 689.65 662.29 683.90 660.21
  C 677.00 657.70 671.43 653.48 664.44 651.74
  C 639.46 645.50 617.95 637.35 594.91 629.34
  Q 583.38 625.34 575.92 623.08
  C 557.77 617.59 542.88 615.04 526.00 612.46
  C 507.26 609.60 488.09 609.39 469.21 609.09
  A 1.56 1.56 0.0 0 1 467.68 607.48
  C 467.85 602.97 469.18 598.58 471.56 592.95
  C 477.17 579.70 485.66 566.69 494.29 555.53
  Q 518.67 524.00 548.07 494.98
  Q 548.45 494.61 548.98 494.64
  C 550.24 494.72 551.66 495.21 552.80 495.27
  Q 571.50 496.27 590.22 495.52
  Q 590.80 495.50 590.40 495.92
  C 565.94 521.74 543.14 549.49 525.09 580.30
  A 1.63 1.63 0.0 0 0 526.33 582.75
  Z"
/>
<path fill="#3b4197" d="
  M 511.88 640.51
  C 516.47 676.86 536.08 704.08 561.15 729.35
  C 575.20 743.51 589.83 757.20 601.33 773.62
  Q 601.70 774.17 601.86 774.65
  A 0.46 0.46 0.0 0 1 601.37 775.24
  C 596.38 774.62 591.10 774.51 586.61 773.67
  C 516.92 760.75 490.47 682.77 476.32 623.45
  A 0.97 0.96 -6.8 0 1 477.26 622.26
  L 509.54 622.28
  A 1.32 1.31 -90.0 0 1 510.85 623.60
  Q 510.80 631.98 511.88 640.51
  Z"
/>
<path fill="#3b4197" d="
  M 949.27 723.61
  L 947.94 726.56
  A 0.59 0.58 29.9 0 1 947.07 726.79
  L 806.34 626.74
  Q 805.88 626.42 806.06 625.88
  C 807.11 622.77 809.16 621.94 812.39 622.47
  C 832.41 625.79 851.14 639.43 866.80 652.20
  C 875.32 659.15 887.29 668.76 898.14 676.41
  Q 924.22 694.81 950.23 713.18
  A 5.79 5.73 -26.6 0 0 953.47 714.24
  C 956.88 714.30 960.29 714.16 963.84 714.54
  C 969.05 715.10 974.56 715.10 979.34 715.86
  C 988.31 717.27 995.29 718.56 1004.06 723.25
  C 1014.48 728.81 1024.18 736.36 1033.56 743.38
  Q 1034.62 744.17 1033.33 743.85
  Q 993.27 733.74 952.82 723.41
  Q 951.24 723.01 950.11 723.05
  A 0.96 0.94 10.8 0 0 949.27 723.61
  Z"
/>
<path fill="#3b4197" d="
  M 800.83 788.63
  L 801.09 788.48
  A 0.85 0.84 62.4 0 0 801.44 787.35
  Q 786.21 757.60 776.71 744.04
  Q 764.59 726.74 747.96 711.81
  C 732.42 697.87 715.42 682.29 704.19 662.79
  Q 703.49 661.59 704.81 661.15
  Q 709.61 659.53 714.50 657.93
  Q 716.29 657.34 717.59 658.24
  Q 745.95 677.81 770.83 705.92
  C 795.84 734.18 819.07 772.65 820.97 811.27
  C 821.04 812.77 821.88 815.35 821.13 817.21
  Q 820.76 818.12 820.17 817.33
  Q 812.48 806.90 806.26 795.55
  Q 805.73 794.57 804.80 795.18
  L 804.41 795.44
  A 1.16 1.16 0.0 0 0 803.99 796.87
  C 810.77 812.22 816.39 825.70 816.97 842.99
  C 817.37 854.78 817.66 859.84 809.96 868.10
  Q 805.30 873.10 800.81 878.26
  C 798.00 881.48 795.44 881.14 791.87 882.49
  C 777.16 888.05 762.96 894.32 747.48 897.52
  Q 740.66 898.93 731.92 899.02
  C 709.86 899.26 687.47 897.74 666.91 897.76
  C 664.85 897.76 662.48 897.34 660.25 897.32
  C 633.42 897.00 606.59 895.85 579.76 895.93
  C 576.59 895.94 573.53 895.31 570.41 895.29
  C 535.37 895.04 496.18 893.35 459.00 892.96
  C 458.08 892.95 457.02 892.47 455.98 892.46
  Q 434.99 892.16 414.00 891.96
  C 413.42 891.96 412.75 891.47 411.98 891.46
  Q 389.89 891.22 367.80 891.00
  Q 367.29 890.99 366.85 890.75
  C 366.57 890.60 366.38 890.47 366.04 890.46
  Q 350.51 890.24 334.98 890.02
  C 334.25 890.01 333.72 889.65 333.11 889.64
  Q 313.55 889.43 294.01 888.82
  C 287.74 888.63 281.42 888.57 275.47 888.30
  Q 273.86 888.22 274.51 886.75
  L 283.02 867.53
  A 1.88 1.87 12.2 0 1 284.77 866.41
  Q 303.70 866.71 321.73 866.83
  C 324.06 866.85 326.54 867.33 328.81 867.38
  Q 346.46 867.74 372.23 867.81
  C 373.59 867.81 374.96 868.34 376.25 868.36
  Q 390.87 868.58 405.50 868.81
  C 406.87 868.84 408.84 869.22 410.50 869.24
  Q 429.88 869.46 449.25 869.73
  C 450.27 869.75 451.73 870.23 452.93 870.25
  C 467.33 870.43 481.68 870.55 496.07 871.20
  Q 502.24 871.47 509.75 871.48
  Q 597.50 871.58 685.25 871.48
  Q 705.17 871.46 729.22 867.92
  C 749.49 864.93 775.16 857.82 781.52 835.52
  Q 782.19 833.17 782.00 826.15
  C 781.79 818.21 779.04 809.98 775.56 803.22
  C 763.40 779.60 744.18 758.06 725.59 738.66
  Q 708.05 720.34 674.99 688.23
  C 665.32 678.84 655.64 668.95 647.48 658.25
  A 0.69 0.69 0.0 0 1 648.04 657.14
  C 651.25 657.19 657.95 656.41 660.69 658.15
  Q 703.28 685.34 740.55 719.45
  C 762.78 739.79 783.15 762.19 798.92 788.11
  Q 799.63 789.29 800.83 788.63
  Z"
/>
<path fill="#3b4197" d="
  M 1144.19 712.66
  Q 1142.91 711.99 1142.17 713.41
  Q 1129.26 737.97 1124.08 748.08
  Q 1121.90 752.33 1120.01 755.35
  Q 1119.69 755.86 1119.20 755.50
  L 1111.72 749.91
  Q 1110.28 748.84 1110.38 747.04
  C 1110.63 742.76 1110.87 738.46 1111.75 734.25
  C 1115.80 714.95 1123.85 695.86 1135.87 680.14
  C 1138.94 676.14 1147.75 666.87 1153.16 666.44
  Q 1153.72 666.39 1153.78 666.96
  Q 1154.63 675.98 1154.97 684.99
  C 1155.03 686.59 1155.58 688.19 1155.56 689.67
  C 1155.50 696.74 1156.34 705.14 1156.60 710.75
  Q 1156.84 716.01 1157.19 721.27
  Q 1157.79 730.48 1158.00 739.54
  A 2.52 2.50 64.4 0 1 1157.42 741.20
  L 1151.52 748.33
  A 0.74 0.73 60.5 0 1 1150.23 747.97
  L 1144.95 713.73
  A 1.46 1.44 -80.6 0 0 1144.19 712.66
  Z"
/>
<path fill="#3b4197" d="
  M 1079.46 759.64
  C 1078.60 762.69 1078.70 765.79 1078.18 768.94
  C 1077.49 773.18 1077.37 777.47 1076.67 781.72
  Q 1076.54 782.53 1076.28 781.75
  Q 1075.11 778.17 1074.55 774.49
  C 1072.22 759.23 1069.11 743.98 1067.03 728.80
  Q 1066.86 727.57 1067.83 728.35
  Q 1088.42 744.99 1109.15 761.61
  Q 1111.14 763.20 1112.12 764.48
  A 0.78 0.77 -58.5 0 1 1112.27 765.11
  L 1106.00 799.67
  A 0.52 0.52 0.0 0 1 1105.04 799.85
  Q 1101.78 794.58 1100.04 788.49
  C 1097.76 780.54 1097.04 772.83 1090.91 766.59
  Q 1086.88 762.49 1081.47 758.89
  A 1.33 1.32 -65.4 0 0 1079.46 759.64
  Z"
/>
<path fill="#3b4197" d="
  M 903.22 870.17
  C 884.12 857.07 876.46 827.87 874.62 806.14
  C 874.01 798.97 875.05 791.15 875.44 783.58
  Q 875.53 781.83 876.10 776.20
  C 876.46 772.63 876.15 768.92 876.75 765.40
  Q 877.05 763.64 877.10 762.07
  Q 877.38 754.10 878.52 745.98
  A 0.53 0.53 0.0 0 1 879.41 745.67
  C 886.47 752.55 887.47 763.28 887.56 772.73
  C 887.70 787.37 887.24 801.83 888.98 816.25
  Q 890.07 825.25 894.08 833.57
  Q 896.01 837.58 896.80 840.65
  Q 900.54 855.17 904.02 869.62
  Q 904.33 870.94 903.22 870.17
  Z"
/>
<path fill="#3b4197" d="
  M 1118.94 842.27
  C 1118.81 846.44 1119.90 851.29 1120.19 854.58
  Q 1121.14 865.21 1122.79 875.75
  Q 1123.08 877.62 1123.00 879.06
  A 1.51 1.50 1.6 0 1 1121.49 880.48
  L 1103.56 880.46
  A 2.41 2.40 -7.3 0 1 1101.23 878.67
  C 1099.97 873.88 1097.84 869.19 1097.31 864.00
  C 1095.73 848.36 1101.78 830.13 1107.90 815.67
  C 1109.33 812.31 1110.51 810.17 1113.09 807.39
  Q 1138.80 779.70 1164.57 752.07
  Q 1165.72 750.85 1166.44 750.14
  Q 1167.28 749.30 1167.87 750.34
  C 1183.35 777.71 1162.63 800.11 1143.39 816.89
  Q 1133.91 825.15 1124.62 833.61
  Q 1122.28 835.75 1120.38 838.25
  Q 1119.02 840.04 1118.94 842.27
  Z"
/>
<path fill="#3b4197" d="
  M 571.63 806.11
  C 568.99 806.14 564.17 805.90 561.77 806.87
  Q 561.45 807.00 561.20 807.01
  Q 555.02 807.39 548.00 809.07
  C 526.04 814.31 506.42 822.92 485.77 830.98
  C 475.80 834.88 465.93 838.47 457.01 839.80
  C 446.04 841.43 438.65 840.83 429.56 840.16
  C 424.42 839.79 419.22 838.79 414.36 837.37
  C 397.42 832.43 381.08 830.70 363.47 833.07
  C 351.10 834.73 340.47 839.56 329.23 843.41
  Q 326.79 844.24 324.84 844.64
  Q 323.29 844.96 324.20 843.67
  C 334.63 828.75 351.63 820.99 369.81 820.37
  Q 389.51 819.70 397.00 820.53
  Q 405.64 821.49 414.32 822.01
  C 424.38 822.63 440.35 824.07 451.75 822.99
  Q 456.48 822.55 466.75 819.44
  Q 475.04 816.94 490.82 809.51
  Q 515.27 797.99 524.56 793.83
  C 531.81 790.58 542.13 786.54 551.60 784.77
  C 560.43 783.13 570.29 783.74 579.50 783.76
  Q 589.19 783.78 595.45 784.73
  C 610.76 787.05 624.78 792.80 638.96 798.80
  C 645.71 801.65 651.93 803.73 658.64 805.94
  Q 659.65 806.28 659.64 807.34
  L 659.56 813.68
  Q 659.55 814.18 659.05 814.21
  C 654.49 814.44 649.19 813.06 644.74 812.08
  Q 644.06 811.92 634.66 809.39
  C 627.16 807.38 620.20 806.25 612.01 806.14
  Q 591.82 805.87 571.63 806.11
  Z"
/>
<path fill="#3b4197" d="
  M 412.44 808.83
  C 406.85 805.35 397.39 805.81 388.75 806.07
  Q 387.69 806.10 385.74 805.40
  Q 385.26 805.23 385.57 804.83
  C 390.33 798.80 395.69 796.31 403.49 797.31
  C 415.73 798.88 428.06 800.85 440.35 801.86
  Q 444.20 802.17 448.03 802.72
  Q 459.16 804.33 468.70 805.59
  Q 471.82 806.00 470.06 808.62
  L 467.74 812.09
  A 5.99 5.99 0.0 0 1 462.83 814.73
  Q 438.11 814.94 431.50 814.78
  Q 421.62 814.55 412.44 808.83
  Z"
/>
<path fill="#ff7406" d="
  M 417.75 981.79
  C 402.26 975.91 381.88 970.92 366.00 976.23
  C 360.59 978.04 351.58 984.32 350.77 991.02
  C 349.40 1002.49 357.40 1010.37 365.41 1016.60
  C 376.17 1024.95 384.83 1033.03 396.35 1043.27
  C 413.99 1058.95 428.30 1076.99 418.27 1102.22
  C 414.31 1112.19 408.92 1118.91 399.64 1124.66
  Q 385.33 1133.53 367.75 1134.61
  Q 357.40 1135.25 354.76 1135.15
  Q 347.83 1134.89 340.90 1134.49
  C 329.35 1133.81 317.99 1131.23 306.85 1128.48
  Q 304.66 1127.94 304.51 1125.76
  Q 303.45 1110.78 301.86 1095.90
  Q 301.81 1095.41 302.40 1095.25
  Q 302.68 1095.17 303.26 1095.42
  C 314.23 1100.19 326.18 1104.12 338.06 1105.71
  C 349.96 1107.31 367.39 1107.24 376.13 1097.12
  C 383.58 1088.48 380.15 1077.24 372.62 1070.13
  Q 353.17 1051.78 332.72 1034.53
  Q 329.00 1031.39 322.94 1024.63
  C 314.18 1014.86 308.79 1005.25 309.32 992.13
  C 311.01 950.36 353.61 942.73 386.50 945.93
  Q 393.64 946.63 400.78 947.42
  C 405.06 947.89 409.90 948.98 414.58 949.55
  A 2.29 2.28 -87.7 0 1 416.59 951.74
  Q 417.07 965.68 418.70 980.01
  Q 418.81 980.96 418.61 981.13
  A 1.12 0.07 -41.3 0 1 417.75 981.79
  Z"
/>
<path fill="#ff7406" d="
  M 1056.98 1116.87
  C 1056.44 1116.92 1055.88 1117.13 1055.55 1117.59
  C 1044.16 1133.36 1024.42 1138.51 1006.23 1132.69
  C 963.61 1119.06 970.01 1054.68 1003.10 1035.27
  C 1019.94 1025.39 1039.81 1025.93 1058.53 1028.05
  A 1.17 1.17 0.0 0 0 1059.83 1026.92
  L 1060.51 995.68
  Q 1060.55 993.91 1062.32 993.91
  L 1088.82 993.90
  A 1.23 1.22 -87.6 0 1 1090.04 995.23
  C 1088.55 1012.79 1087.82 1030.18 1086.89 1047.51
  Q 1084.68 1088.90 1083.91 1130.34
  Q 1083.88 1132.19 1082.03 1132.19
  L 1058.68 1132.16
  Q 1056.95 1132.15 1057.00 1130.43
  L 1057.42 1117.28
  A 0.40 0.40 0.0 0 0 1056.98 1116.87
  Z
  M 1057.15 1047.68
  C 1039.29 1043.62 1018.92 1047.10 1009.98 1064.44
  C 1003.35 1077.31 1001.39 1097.31 1013.36 1107.97
  C 1021.47 1115.19 1035.98 1115.49 1044.44 1108.43
  Q 1050.95 1103.02 1053.82 1094.21
  Q 1056.64 1085.56 1056.96 1081.49
  Q 1058.25 1065.39 1058.39 1049.25
  A 1.60 1.59 -83.5 0 0 1057.15 1047.68
  Z"
/>
<path fill="#ff7406" d="
  M 471.04 1080.54
  A 0.70 0.70 0.0 0 0 470.34 1081.17
  C 469.41 1090.14 471.38 1099.64 477.47 1106.37
  C 491.67 1122.06 518.29 1114.67 535.35 1109.57
  A 0.58 0.58 0.0 0 1 536.09 1110.22
  L 532.95 1129.31
  A 2.33 2.32 -2.1 0 1 531.19 1131.19
  Q 514.59 1135.19 497.25 1134.85
  C 485.69 1134.63 474.35 1133.40 464.57 1127.99
  C 432.74 1110.35 435.52 1056.78 462.89 1036.58
  C 475.97 1026.92 495.22 1024.92 510.99 1027.98
  Q 539.98 1033.59 544.72 1062.79
  Q 545.98 1070.56 544.66 1078.38
  Q 544.30 1080.55 542.00 1080.55
  Q 506.41 1080.46 471.04 1080.54
  Z
  M 473.07 1068.35
  L 516.53 1068.48
  A 1.32 1.32 0.0 0 0 517.85 1067.19
  C 517.99 1060.15 516.14 1052.72 510.42 1048.39
  C 504.65 1044.02 495.61 1043.38 488.73 1045.78
  Q 477.10 1049.85 473.24 1062.13
  Q 472.55 1064.31 471.88 1066.79
  A 1.23 1.23 0.0 0 0 473.07 1068.35
  Z"
/>
<path fill="#ff7406" d="
  M 657.55 1044.16
  Q 657.63 1044.13 658.02 1043.52
  Q 666.04 1031.10 680.61 1027.93
  C 699.26 1023.87 725.25 1029.85 725.00 1054.00
  C 724.90 1063.89 723.74 1076.82 723.38 1083.55
  Q 722.12 1107.34 721.48 1130.81
  A 1.60 1.59 -87.6 0 1 719.80 1132.36
  C 710.92 1131.88 702.35 1132.53 693.76 1132.24
  A 1.31 1.31 0.0 0 1 692.50 1130.84
  Q 693.64 1114.09 694.47 1098.12
  C 694.91 1089.82 696.54 1074.31 695.90 1062.87
  C 695.54 1056.38 690.76 1050.38 683.88 1049.64
  C 665.02 1047.62 659.21 1062.94 657.96 1078.50
  C 657.65 1082.40 657.10 1086.39 656.97 1090.18
  Q 656.28 1110.73 655.75 1130.32
  Q 655.69 1132.56 653.46 1132.42
  Q 641.38 1131.69 629.99 1132.24
  Q 628.63 1132.30 627.54 1132.19
  Q 626.79 1132.10 626.83 1131.35
  Q 628.32 1104.12 629.68 1076.94
  C 630.19 1066.74 631.32 1051.59 617.60 1049.54
  C 604.18 1047.53 595.72 1058.29 593.63 1070.27
  Q 591.69 1081.37 591.17 1092.63
  Q 590.29 1111.65 589.93 1130.42
  A 1.77 1.76 0.5 0 1 588.16 1132.15
  L 562.87 1132.19
  Q 560.97 1132.19 561.09 1130.30
  Q 562.50 1107.74 563.53 1084.01
  C 563.62 1082.07 564.01 1079.72 564.09 1077.66
  Q 565.05 1054.01 565.49 1030.47
  A 1.25 1.25 0.0 0 1 566.74 1029.24
  L 592.00 1029.24
  A 1.15 1.15 0.0 0 1 593.15 1030.43
  Q 592.95 1036.02 592.35 1040.99
  Q 592.09 1043.19 594.41 1042.12
  A 1.22 1.14 2.0 0 0 594.86 1041.73
  C 601.54 1032.03 611.36 1028.01 623.25 1026.91
  C 636.08 1025.71 650.98 1030.40 656.04 1043.47
  Q 656.46 1044.56 657.55 1044.16
  Z"
/>
<path fill="#ff7406" d="
  M 771.74 1081.22
  C 771.15 1095.38 774.12 1106.11 786.58 1112.21
  C 801.69 1119.62 821.32 1114.25 836.40 1109.59
  A 0.76 0.76 0.0 0 1 837.37 1110.45
  L 834.09 1129.22
  A 2.69 2.68 -1.0 0 1 831.98 1131.39
  C 814.37 1134.93 796.28 1136.44 779.50 1133.02
  C 758.60 1128.76 745.79 1112.87 743.43 1092.13
  C 739.80 1060.07 755.67 1030.57 790.24 1027.06
  C 802.39 1025.83 816.89 1027.37 827.16 1033.29
  C 842.67 1042.24 849.23 1061.79 845.72 1079.09
  A 1.74 1.74 0.0 0 1 844.01 1080.49
  L 772.47 1080.52
  A 0.73 0.73 0.0 0 0 771.74 1081.22
  Z
  M 817.73 1068.49
  A 1.21 1.21 0.0 0 0 818.94 1067.35
  C 819.49 1058.20 816.19 1049.81 807.59 1046.04
  Q 802.67 1043.89 798.22 1044.27
  Q 776.57 1046.15 773.13 1067.33
  A 0.87 0.87 0.0 0 0 773.99 1068.34
  L 817.73 1068.49
  Z"
/>
<path fill="#ff7406" d="
  M 928.23 1080.34
  Q 927.56 1080.06 926.77 1080.54
  C 919.29 1085.16 909.43 1087.14 901.03 1089.66
  C 892.21 1092.30 879.67 1098.76 884.37 1110.57
  C 888.69 1121.42 906.76 1118.96 915.27 1116.14
  Q 915.96 1115.91 916.19 1115.96
  Q 917.05 1116.16 916.77 1117.00
  Q 914.37 1124.15 912.79 1131.52
  Q 912.44 1133.17 910.42 1133.51
  C 897.30 1135.76 880.01 1136.30 868.30 1129.72
  C 859.53 1124.79 855.23 1112.55 856.01 1102.73
  C 858.09 1076.37 897.16 1071.87 914.97 1067.12
  C 921.11 1065.49 927.86 1062.57 928.43 1055.26
  C 929.61 1040.31 905.61 1042.83 897.51 1044.14
  Q 883.59 1046.39 870.71 1051.56
  A 0.55 0.55 0.0 0 1 869.96 1050.97
  L 872.36 1034.24
  A 2.38 2.37 -2.3 0 1 874.19 1032.26
  C 888.16 1029.10 901.16 1026.95 915.99 1026.61
  C 929.98 1026.29 954.74 1029.87 957.16 1047.87
  Q 957.82 1052.79 957.44 1061.01
  C 956.34 1084.18 954.49 1107.15 954.30 1130.43
  Q 954.28 1132.11 952.60 1132.11
  L 926.86 1132.19
  A 1.03 1.02 1.6 0 1 925.83 1131.11
  L 928.72 1081.12
  A 0.80 0.80 0.0 0 0 928.23 1080.34
  Z"
/>
<path fill="#ff7406" d="
  M 1185.34 1029.78
  C 1217.74 1039.33 1227.07 1075.37 1214.40 1104.08
  C 1201.78 1132.68 1169.08 1139.99 1141.00 1131.95
  C 1108.85 1122.74 1098.79 1086.93 1110.67 1058.47
  C 1122.65 1029.78 1157.62 1021.60 1185.34 1029.78
  Z
  M 1184.95 1057.54
  C 1178.03 1048.16 1164.31 1045.77 1153.57 1049.91
  C 1146.04 1052.80 1141.07 1057.98 1138.29 1065.50
  C 1132.86 1080.17 1132.98 1102.90 1148.49 1111.08
  C 1160.61 1117.46 1178.04 1114.27 1184.97 1101.71
  C 1191.61 1089.66 1193.39 1068.98 1184.95 1057.54
  Z"
/>
<path fill="#ff7406" d="
  M 1267.92 1041.39
  A 1.01 1.00 30.3 0 0 1269.19 1041.06
  Q 1279.84 1025.87 1298.51 1026.81
  Q 1301.32 1026.95 1303.36 1027.58
  Q 1304.71 1028.00 1304.70 1029.42
  C 1304.66 1036.66 1305.76 1043.62 1306.08 1050.60
  A 1.26 1.25 4.0 0 1 1304.59 1051.89
  Q 1301.73 1051.34 1299.45 1050.99
  C 1277.81 1047.65 1268.16 1063.21 1266.89 1082.24
  Q 1265.28 1106.16 1265.87 1130.55
  A 1.52 1.52 0.0 0 1 1264.35 1132.11
  L 1237.55 1132.21
  A 0.73 0.73 0.0 0 1 1236.81 1131.44
  C 1237.62 1111.91 1239.43 1092.27 1239.84 1072.75
  C 1240.13 1058.81 1240.82 1044.74 1240.22 1030.81
  Q 1240.16 1029.24 1241.73 1029.24
  L 1267.02 1029.24
  Q 1268.16 1029.24 1268.08 1030.37
  Q 1267.78 1035.13 1267.61 1040.45
  Q 1267.58 1041.22 1267.92 1041.39
  Z"
/>
<path fill="#ff7406" d="
  M 214.19 1135.20
  C 182.98 1141.98 148.47 1130.39 142.54 1095.38
  C 141.73 1090.64 141.82 1084.00 141.95 1079.75
  C 142.61 1057.07 157.24 1038.60 179.01 1031.98
  C 199.26 1025.83 225.44 1028.33 241.27 1043.48
  C 256.71 1058.26 258.32 1083.87 251.39 1102.82
  C 245.19 1119.79 231.53 1131.43 214.19 1135.20
  Z
  M 224.60 1093.52
  C 227.26 1083.18 227.02 1069.18 221.08 1060.23
  C 213.13 1048.24 193.76 1047.13 182.71 1055.51
  C 170.81 1064.52 169.05 1083.44 172.06 1096.74
  C 175.42 1111.58 189.21 1118.46 203.38 1115.80
  C 215.07 1113.60 221.68 1104.88 224.60 1093.52
  Z"
/>
<path fill="#3b4197" d="
  M 154.75 1191.61
  Q 153.61 1191.61 153.60 1192.75
  L 153.54 1200.47
  A 1.18 1.18 0.0 0 0 154.72 1201.66
  L 173.73 1201.62
  Q 175.84 1201.61 175.79 1203.73
  L 175.71 1207.18
  Q 175.66 1209.02 173.82 1209.02
  L 155.17 1209.03
  A 1.56 1.56 0.0 0 0 153.61 1210.58
  L 153.53 1220.26
  A 0.74 0.73 90.0 0 0 154.26 1221.00
  L 176.02 1221.02
  Q 178.00 1221.03 178.01 1223.01
  L 178.01 1226.83
  Q 178.01 1228.92 175.92 1228.92
  L 146.72 1228.94
  Q 144.50 1228.94 144.50 1226.72
  L 144.52 1185.76
  Q 144.52 1184.74 145.51 1184.49
  Q 146.90 1184.15 149.00 1184.15
  Q 162.35 1184.19 176.09 1184.33
  A 0.96 0.96 0.0 0 1 177.04 1185.29
  L 177.00 1190.53
  Q 177.00 1191.56 175.97 1191.56
  L 154.75 1191.61
  Z"
/>
<rect fill="#3b4197" x="291.50" y="1184.21" width="8.70" height="44.66" rx="2.18"/>
<path fill="#3b4197" d="
  M 368.81 1198.19
  A 0.86 0.86 0.0 0 0 367.99 1199.05
  L 367.91 1226.81
  Q 367.91 1229.03 365.69 1228.97
  L 362.08 1228.87
  Q 359.86 1228.80 359.86 1226.58
  L 359.90 1185.66
  A 1.44 1.43 -0.0 0 1 361.34 1184.23
  L 372.27 1184.26
  A 1.33 1.33 0.0 0 1 373.54 1185.25
  L 380.06 1209.86
  Q 380.19 1210.36 380.66 1210.57
  Q 381.48 1210.92 382.19 1210.34
  Q 382.68 1209.94 382.92 1208.96
  Q 385.88 1197.16 389.07 1185.16
  Q 389.32 1184.23 390.28 1184.23
  L 400.82 1184.26
  Q 402.63 1184.26 402.63 1186.07
  L 402.63 1226.22
  Q 402.63 1228.95 399.91 1228.92
  L 397.99 1228.91
  Q 395.12 1228.89 395.10 1226.01
  L 394.91 1197.93
  A 0.82 0.81 11.4 0 0 394.41 1197.18
  C 393.36 1196.73 392.48 1197.00 392.19 1198.15
  C 391.29 1201.64 391.32 1205.35 390.50 1208.57
  Q 388.41 1216.86 386.40 1225.18
  Q 386.03 1226.69 385.38 1228.08
  A 1.17 1.14 -81.7 0 1 384.54 1228.72
  Q 381.23 1229.30 377.95 1228.62
  A 1.08 1.07 -4.5 0 1 377.16 1227.95
  C 374.88 1222.08 373.79 1215.38 372.30 1209.25
  C 371.69 1206.70 371.09 1202.42 369.99 1199.19
  Q 369.63 1198.15 368.81 1198.19
  Z"
/>
<path fill="#3b4197" d="
  M 524.87 1226.45
  A 0.89 0.89 0.0 0 0 523.49 1226.08
  C 519.98 1228.91 515.81 1230.36 511.39 1228.83
  C 500.93 1225.19 499.89 1210.56 504.32 1202.30
  C 507.86 1195.70 516.63 1193.72 522.43 1198.45
  A 1.47 1.47 0.0 0 0 524.83 1197.30
  L 524.73 1185.76
  Q 524.71 1184.22 526.24 1184.23
  L 531.42 1184.26
  Q 533.08 1184.27 533.08 1185.92
  L 533.06 1227.55
  Q 533.06 1228.11 532.60 1228.43
  C 531.72 1229.03 530.53 1228.82 529.73 1228.97
  Q 526.15 1229.66 524.87 1226.45
  Z
  M 517.5140 1222.8999
  A 10.32 7.11 90.2 0 0 524.6600 1212.6048
  A 10.32 7.11 90.2 0 0 517.5860 1202.2601
  A 10.32 7.11 90.2 0 0 510.4400 1212.5552
  A 10.32 7.11 90.2 0 0 517.5140 1222.8999
  Z"
/>
<rect fill="#3b4197" x="541.42" y="1184.25" width="8.28" height="7.98" rx="1.62"/>
<path fill="#3b4197" d="
  M 684.74 1198.78
  A 0.67 0.66 87.6 0 0 685.33 1198.13
  L 685.44 1185.73
  A 1.51 1.51 0.0 0 1 686.96 1184.23
  L 692.23 1184.24
  Q 693.53 1184.25 693.53 1185.55
  Q 693.55 1205.99 693.53 1226.75
  Q 693.53 1228.80 691.78 1228.99
  Q 689.41 1229.24 687.12 1228.63
  Q 686.62 1228.50 686.40 1228.02
  L 685.72 1226.49
  A 1.07 1.07 0.0 0 0 684.02 1226.14
  C 679.46 1230.33 673.48 1230.56 668.55 1226.89
  C 660.80 1221.11 660.78 1204.36 668.36 1198.62
  Q 675.68 1193.08 683.10 1198.36
  C 683.55 1198.68 684.23 1198.83 684.74 1198.78
  Z
  M 678.3039 1222.9099
  A 10.33 7.20 90.2 0 0 685.5400 1212.6051
  A 10.33 7.20 90.2 0 0 678.3761 1202.2501
  A 10.33 7.20 90.2 0 0 671.1400 1212.5549
  A 10.33 7.20 90.2 0 0 678.3039 1222.9099
  Z"
/>
<path fill="#3b4197" d="
  M 763.91 1201.62
  L 783.09 1201.64
  A 1.18 1.18 0.0 0 1 784.27 1202.83
  L 784.25 1207.86
  A 1.18 1.18 0.0 0 1 783.07 1209.03
  L 763.93 1209.03
  A 1.18 1.18 0.0 0 0 762.75 1210.21
  L 762.75 1219.83
  A 1.18 1.18 0.0 0 0 763.93 1221.01
  L 785.84 1221.02
  A 1.18 1.18 0.0 0 1 787.02 1222.20
  L 787.02 1227.74
  A 1.18 1.18 0.0 0 1 785.84 1228.92
  L 754.87 1228.94
  A 1.18 1.18 0.0 0 1 753.69 1227.76
  L 753.70 1185.45
  A 1.18 1.18 0.0 0 1 754.88 1184.27
  L 784.97 1184.25
  A 1.18 1.18 0.0 0 1 786.15 1185.44
  L 786.11 1190.41
  A 1.18 1.18 0.0 0 1 784.93 1191.58
  L 763.89 1191.61
  A 1.18 1.18 0.0 0 0 762.71 1192.79
  L 762.73 1200.44
  A 1.18 1.18 0.0 0 0 763.91 1201.62
  Z"
/>
<path fill="#3b4197" d="
  M 814.39 1226.09
  C 811.18 1227.81 808.58 1230.39 804.54 1229.50
  C 794.03 1227.18 790.74 1215.65 793.45 1206.26
  C 796.09 1197.10 805.22 1192.64 813.56 1198.55
  A 1.22 1.22 0.0 0 0 815.49 1197.55
  L 815.47 1186.00
  Q 815.47 1184.21 817.25 1184.23
  L 822.02 1184.27
  Q 823.75 1184.29 823.75 1186.02
  L 823.76 1227.76
  A 0.67 0.67 0.0 0 1 823.32 1228.39
  Q 820.39 1229.45 817.35 1228.64
  A 1.32 1.30 -8.9 0 1 816.61 1228.11
  L 815.41 1226.34
  A 0.79 0.79 0.0 0 0 814.39 1226.09
  Z
  M 808.3340 1222.9199
  A 10.32 7.17 90.2 0 0 815.5400 1212.6250
  A 10.32 7.17 90.2 0 0 808.4060 1202.2801
  A 10.32 7.17 90.2 0 0 801.2000 1212.5750
  A 10.32 7.17 90.2 0 0 808.3340 1222.9199
  Z"
/>
<path fill="#3b4197" d="
  M 1071.47 1221.00
  L 1093.71 1221.03
  A 1.33 1.33 0.0 0 1 1095.04 1222.36
  L 1095.02 1227.59
  A 1.33 1.33 0.0 0 1 1093.69 1228.92
  L 1062.81 1228.94
  A 1.33 1.33 0.0 0 1 1061.48 1227.61
  L 1061.54 1185.57
  A 1.33 1.33 0.0 0 1 1062.87 1184.24
  L 1092.68 1184.32
  A 1.33 1.33 0.0 0 1 1094.01 1185.65
  L 1094.01 1190.24
  A 1.33 1.33 0.0 0 1 1092.68 1191.57
  L 1071.43 1191.61
  A 1.33 1.33 0.0 0 0 1070.10 1192.94
  L 1070.12 1200.31
  A 1.33 1.33 0.0 0 0 1071.45 1201.64
  L 1090.93 1201.63
  A 1.33 1.33 0.0 0 1 1092.27 1202.97
  L 1092.21 1207.71
  A 1.33 1.33 0.0 0 1 1090.88 1209.03
  L 1071.47 1209.03
  A 1.33 1.33 0.0 0 0 1070.14 1210.36
  L 1070.14 1219.67
  A 1.33 1.33 0.0 0 0 1071.47 1221.00
  Z"
/>
<rect fill="#3b4197" x="-4.16" y="-3.99" transform="translate(1247.09,1188.22) rotate(0.8)" width="8.32" height="7.98" rx="1.54"/>
<rect fill="#3b4197" x="1294.23" y="1184.27" width="8.32" height="44.64" rx="1.65"/>
<path fill="#3b4197" d="
  M 980.23 1189.83
  L 978.60 1191.69
  A 1.89 1.89 0.0 0 1 975.29 1190.45
  Q 975.29 1189.51 975.83 1188.28
  C 979.21 1180.52 985.25 1188.26 990.40 1187.13
  Q 990.87 1187.03 991.22 1186.68
  L 992.95 1184.91
  A 1.44 1.44 0.0 0 1 995.41 1185.71
  Q 996.07 1190.36 992.21 1191.88
  C 989.47 1192.95 984.06 1190.32 981.25 1189.53
  A 0.98 0.97 28.4 0 0 980.23 1189.83
  Z"
/>
<path fill="#3b4197" d="
  M 444.62 1203.29
  Q 443.06 1203.62 442.17 1201.82
  Q 441.17 1199.82 442.66 1197.18
  Q 442.89 1196.79 443.34 1196.76
  Q 444.50 1196.69 445.41 1195.95
  Q 445.83 1195.60 445.84 1195.04
  L 445.92 1191.55
  A 2.35 2.31 -15.2 0 1 447.06 1189.59
  L 452.72 1186.21
  Q 454.16 1185.35 454.15 1187.02
  L 454.15 1194.65
  A 1.70 1.70 0.0 0 0 455.63 1196.34
  L 459.05 1196.78
  Q 459.95 1196.90 460.00 1197.80
  L 460.23 1201.70
  A 1.24 1.24 0.0 0 1 459.04 1203.02
  L 455.30 1203.19
  A 1.05 1.05 0.0 0 0 454.31 1204.16
  Q 453.65 1212.64 454.80 1221.05
  A 1.83 1.82 -5.3 0 0 456.70 1222.62
  L 459.49 1222.47
  A 0.75 0.74 -5.6 0 1 460.26 1223.10
  Q 460.42 1224.10 460.63 1225.99
  C 461.00 1229.39 458.64 1228.90 456.50 1229.36
  C 450.89 1230.58 446.23 1227.36 446.02 1221.51
  Q 445.74 1213.37 445.92 1204.36
  Q 445.95 1203.00 444.62 1203.29
  Z"
/>
<path fill="#3b4197" d="
  M 602.08 1203.14
  A 0.62 0.62 0.0 0 0 601.47 1203.76
  Q 601.39 1212.03 601.76 1220.25
  Q 601.89 1223.21 605.92 1222.46
  Q 607.32 1222.20 607.47 1223.61
  Q 607.60 1224.79 607.75 1226.74
  Q 607.88 1228.33 606.50 1228.68
  Q 605.65 1228.90 605.55 1228.94
  C 600.29 1230.79 593.29 1228.90 593.29 1222.25
  Q 593.28 1213.50 593.06 1204.75
  Q 593.01 1203.01 590.50 1203.20
  Q 589.44 1203.28 589.44 1202.22
  L 589.48 1197.34
  Q 589.49 1196.71 590.11 1196.71
  Q 591.57 1196.71 592.75 1195.98
  A 1.03 1.02 -15.9 0 0 593.24 1195.11
  L 593.29 1191.65
  Q 593.32 1190.02 594.73 1189.18
  L 599.80 1186.18
  Q 601.38 1185.24 601.40 1187.08
  L 601.52 1195.28
  Q 601.53 1196.66 602.91 1196.64
  L 605.92 1196.59
  Q 607.52 1196.56 607.46 1198.17
  L 607.34 1201.64
  Q 607.29 1203.06 605.87 1203.08
  L 602.08 1203.14
  Z"
/>
<path fill="#3b4197" d="
  M 202.69 1222.43
  Q 204.28 1221.46 203.71 1219.40
  C 203.32 1218.02 201.71 1217.24 200.50 1217.02
  Q 193.69 1215.73 188.99 1213.71
  C 184.15 1211.62 182.20 1204.79 185.47 1200.51
  C 189.51 1195.24 199.00 1194.76 204.47 1196.87
  Q 208.60 1198.47 210.67 1202.97
  A 1.26 1.26 0.0 0 1 209.73 1204.74
  L 204.73 1205.56
  Q 204.18 1205.65 203.79 1205.24
  C 202.71 1204.11 201.91 1202.86 200.36 1202.42
  C 198.19 1201.79 193.18 1201.48 191.77 1203.46
  A 1.75 1.75 0.0 0 0 192.13 1205.87
  Q 194.10 1207.36 196.49 1207.83
  Q 201.46 1208.81 206.26 1210.46
  C 210.12 1211.79 213.38 1216.26 212.18 1220.47
  C 208.59 1233.07 188.02 1232.39 183.16 1221.22
  A 1.40 1.40 0.0 0 1 184.31 1219.27
  L 190.17 1218.68
  A 0.87 0.86 -16.6 0 1 191.01 1219.13
  L 192.02 1220.98
  Q 192.24 1221.39 192.61 1221.67
  Q 197.72 1225.47 202.69 1222.43
  Z"
/>
<path fill="#3b4197" d="
  M 227.07 1216.50
  C 227.59 1223.39 236.87 1225.56 239.34 1218.34
  Q 240.00 1216.41 242.01 1216.81
  L 246.19 1217.64
  Q 248.12 1218.03 247.46 1219.89
  C 245.33 1225.90 241.66 1228.28 236.01 1229.35
  C 221.12 1232.18 214.71 1216.12 219.70 1204.45
  C 224.78 1192.60 242.37 1192.76 247.17 1204.78
  A 0.99 0.99 0.0 0 1 246.42 1206.12
  L 240.42 1207.21
  Q 239.81 1207.32 239.49 1206.79
  C 236.94 1202.62 233.94 1200.50 229.29 1204.02
  C 226.01 1206.50 226.81 1212.96 227.07 1216.50
  Z"
/>
<path fill="#3b4197" d="
  M 267.1403 1229.5830
  A 16.96 16.55 94.7 0 1 252.0357 1211.3239
  A 16.96 16.55 94.7 0 1 269.9197 1195.7770
  A 16.96 16.55 94.7 0 1 285.0243 1214.0361
  A 16.96 16.55 94.7 0 1 267.1403 1229.5830
  Z
  M 268.5400 1222.6200
  A 9.90 7.75 90.0 0 0 276.2900 1212.7200
  A 9.90 7.75 90.0 0 0 268.5400 1202.8200
  A 9.90 7.75 90.0 0 0 260.7900 1212.7200
  A 9.90 7.75 90.0 0 0 268.5400 1222.6200
  Z"
/>
<path fill="#3b4197" d="
  M 325.79 1226.23
  C 324.70 1226.98 323.70 1227.84 322.57 1228.32
  C 316.37 1230.99 308.24 1229.30 306.92 1221.62
  C 305.06 1210.83 317.53 1210.22 324.50 1208.68
  A 2.04 2.04 0.0 0 0 326.05 1207.13
  Q 327.11 1202.28 321.77 1202.26
  C 317.38 1202.24 317.67 1202.80 314.92 1205.63
  A 1.30 1.26 -67.9 0 1 314.03 1206.02
  Q 311.08 1206.12 308.30 1205.14
  Q 307.77 1204.95 307.88 1204.40
  C 309.02 1198.57 314.84 1195.86 320.51 1195.85
  C 329.22 1195.84 334.46 1197.41 334.49 1207.12
  Q 334.52 1214.14 334.50 1221.16
  C 334.50 1223.40 335.20 1225.46 335.87 1227.48
  A 1.07 1.06 -9.6 0 1 334.86 1228.89
  L 329.39 1228.93
  A 0.63 0.60 -20.0 0 1 328.93 1228.73
  L 326.78 1226.35
  Q 326.34 1225.86 325.79 1226.23
  Z
  M 321.24 1223.14
  Q 327.77 1221.00 325.93 1214.20
  A 0.63 0.63 0.0 0 0 325.14 1213.76
  C 322.46 1214.59 311.36 1215.90 315.94 1221.54
  Q 318.08 1224.17 321.24 1223.14
  Z"
/>
<path fill="#3b4197" d="
  M 418.11 1215.91
  C 416.87 1222.75 426.61 1226.04 429.66 1219.91
  A 2.02 2.02 0.0 0 1 431.89 1218.84
  L 436.59 1219.83
  Q 438.09 1220.15 437.49 1221.56
  C 432.34 1233.70 413.43 1231.65 409.89 1219.27
  C 406.64 1207.93 412.68 1193.47 426.74 1195.98
  C 434.66 1197.40 438.69 1205.31 438.62 1213.01
  Q 438.60 1215.44 436.39 1215.46
  Q 427.58 1215.50 418.80 1215.34
  Q 418.22 1215.33 418.11 1215.91
  Z
  M 419.48 1210.10
  L 428.76 1210.06
  A 1.45 1.45 0.0 0 0 430.20 1208.60
  L 430.20 1208.51
  A 6.26 5.93 89.7 0 0 424.24 1202.28
  L 423.92 1202.28
  A 6.26 5.93 89.7 0 0 418.02 1208.57
  L 418.02 1208.66
  A 1.45 1.45 0.0 0 0 419.48 1210.10
  Z"
/>
<path fill="#3b4197" d="
  M 478.8277 1229.5402
  A 16.95 16.53 95.9 0 1 464.1276 1210.9808
  A 16.95 16.53 95.9 0 1 482.3123 1195.8198
  A 16.95 16.53 95.9 0 1 497.0124 1214.3792
  A 16.95 16.53 95.9 0 1 478.8277 1229.5402
  Z
  M 480.5807 1222.6498
  A 9.93 7.81 90.4 0 0 488.4598 1212.7745
  A 9.93 7.81 90.4 0 0 480.7193 1202.7902
  A 9.93 7.81 90.4 0 0 472.8402 1212.6655
  A 9.93 7.81 90.4 0 0 480.5807 1222.6498
  Z"
/>
<path fill="#3b4197" d="
  M 565.09 1205.79
  Q 565.47 1206.32 566.52 1206.74
  C 571.41 1208.69 579.63 1209.14 583.27 1213.33
  C 587.83 1218.59 584.11 1226.04 577.84 1228.35
  C 570.22 1231.17 560.01 1229.61 556.17 1221.49
  A 1.36 1.35 68.5 0 1 556.98 1219.62
  Q 559.95 1218.68 563.07 1218.78
  A 1.14 1.14 0.0 0 1 564.00 1219.32
  C 564.64 1220.35 564.94 1221.36 565.94 1222.05
  Q 570.21 1225.01 575.07 1222.63
  Q 576.84 1221.76 576.98 1220.04
  A 2.10 2.09 -77.3 0 0 575.65 1217.92
  C 569.39 1215.50 558.45 1215.36 556.88 1207.65
  C 554.82 1197.50 566.61 1195.05 573.78 1195.94
  C 577.45 1196.39 583.71 1199.63 583.57 1204.20
  Q 583.56 1204.74 583.01 1204.81
  L 577.50 1205.50
  A 0.96 0.95 62.2 0 1 576.73 1205.26
  C 575.55 1204.18 574.63 1202.89 573.09 1202.43
  Q 569.52 1201.37 566.23 1202.39
  A 2.22 2.21 63.6 0 0 565.09 1205.79
  Z"
/>
<path fill="#3b4197" d="
  M 631.33 1226.18
  A 0.49 0.49 0.0 0 0 630.62 1226.06
  C 627.35 1228.54 623.33 1230.14 619.25 1229.41
  C 613.78 1228.43 609.81 1223.07 611.45 1217.57
  C 613.81 1209.62 623.47 1210.49 629.97 1208.16
  A 1.67 1.67 0.0 0 0 631.07 1206.41
  Q 630.80 1203.91 628.95 1203.08
  Q 622.75 1200.29 619.29 1205.72
  A 0.96 0.95 -69.8 0 1 618.36 1206.16
  L 613.51 1205.55
  A 1.22 1.22 0.0 0 1 612.49 1204.00
  C 613.92 1198.95 618.26 1196.18 623.25 1195.82
  C 631.54 1195.21 639.28 1196.95 639.21 1207.23
  Q 639.16 1215.62 639.48 1223.99
  Q 639.56 1225.93 640.20 1227.44
  A 0.89 0.88 71.9 0 1 639.60 1228.64
  Q 636.47 1229.39 633.36 1228.56
  Q 632.86 1228.43 632.58 1228.01
  L 631.33 1226.18
  Z
  M 626.30 1223.09
  Q 631.83 1220.77 630.61 1214.74
  A 1.09 1.09 0.0 0 0 629.28 1213.90
  C 626.77 1214.52 620.74 1215.28 619.65 1218.02
  C 618.08 1221.97 623.32 1224.33 626.30 1223.09
  Z"
/>
<path fill="#3b4197" d="
  M 708.82 1215.95
  C 707.55 1221.73 713.80 1224.08 718.29 1222.40
  Q 718.84 1222.19 719.17 1221.71
  L 720.53 1219.74
  A 2.18 2.17 23.6 0 1 722.78 1218.86
  L 727.85 1219.99
  A 0.88 0.88 0.0 0 1 728.46 1221.21
  C 725.13 1228.62 717.33 1231.00 709.95 1228.83
  C 696.75 1224.95 696.67 1203.76 707.52 1197.54
  C 714.99 1193.26 725.46 1197.11 728.07 1205.24
  Q 729.38 1209.33 729.44 1212.96
  A 2.41 2.40 -0.6 0 1 727.03 1215.41
  L 709.46 1215.43
  Q 708.93 1215.43 708.82 1215.95
  Z
  M 710.14 1210.05
  L 719.58 1210.05
  A 1.39 1.39 0.0 0 0 720.97 1208.66
  L 720.97 1208.58
  A 6.27 5.95 -90.0 0 0 715.02 1202.31
  L 714.70 1202.31
  A 6.27 5.95 90.0 0 0 708.75 1208.58
  L 708.75 1208.66
  A 1.39 1.39 0.0 0 0 710.14 1210.05
  Z"
/>
<path fill="#3b4197" d="
  M 882.24 1222.68
  C 887.21 1223.50 888.11 1220.78 889.94 1217.20
  Q 890.14 1216.80 890.60 1216.81
  Q 893.88 1216.92 896.96 1218.06
  A 0.81 0.80 -73.9 0 1 897.47 1218.99
  C 895.92 1226.08 889.09 1230.37 881.93 1229.57
  C 870.55 1228.30 866.18 1218.01 868.70 1207.80
  Q 871.71 1195.60 884.50 1195.99
  Q 893.81 1196.27 897.10 1204.88
  A 0.96 0.96 0.0 0 1 896.37 1206.17
  L 890.50 1207.22
  Q 890.01 1207.31 889.71 1206.91
  C 889.04 1206.01 888.71 1204.88 887.91 1204.16
  C 884.26 1200.87 877.66 1202.45 877.02 1207.76
  C 876.36 1213.31 875.92 1221.62 882.24 1222.68
  Z"
/>
<path fill="#3b4197" d="
  M 921.39 1226.19
  C 916.61 1228.86 913.39 1230.82 907.82 1228.58
  Q 902.99 1226.64 902.17 1221.48
  C 900.40 1210.28 913.44 1210.67 920.50 1208.27
  A 1.96 1.95 -17.0 0 0 921.76 1205.91
  C 920.18 1200.09 912.84 1201.49 910.25 1205.60
  A 1.33 1.33 0.0 0 1 908.89 1206.19
  L 904.07 1205.32
  A 1.19 1.19 0.0 0 1 903.18 1203.73
  Q 905.50 1197.65 911.76 1196.32
  C 917.12 1195.19 924.95 1195.27 928.33 1200.39
  Q 929.71 1202.48 929.76 1206.97
  C 929.82 1213.01 928.70 1221.70 930.97 1227.29
  A 0.98 0.98 0.0 0 1 930.28 1228.61
  Q 927.53 1229.25 924.76 1228.76
  A 1.60 1.58 75.0 0 1 923.79 1228.19
  L 922.34 1226.37
  A 0.75 0.75 0.0 0 0 921.39 1226.19
  Z
  M 921.63 1214.88
  Q 921.55 1213.65 920.34 1213.90
  C 917.41 1214.49 913.00 1215.07 910.77 1217.40
  A 1.49 1.44 -21.8 0 0 910.37 1218.29
  C 909.78 1226.27 922.24 1224.99 921.63 1214.88
  Z"
/>
<path fill="#3b4197" d="
  M 945.38 1228.46
  C 930.46 1220.51 934.30 1194.74 953.25 1195.82
  Q 962.37 1196.34 965.42 1204.73
  Q 965.91 1206.05 964.52 1206.28
  L 959.27 1207.18
  Q 957.98 1207.40 957.48 1206.18
  C 954.53 1199.04 945.71 1202.49 945.31 1209.26
  C 945.01 1214.36 944.74 1223.09 952.55 1222.70
  Q 956.55 1222.50 957.60 1218.54
  Q 958.16 1216.44 960.30 1216.84
  L 964.28 1217.58
  Q 966.54 1218.00 965.76 1220.16
  Q 963.50 1226.43 957.29 1228.89
  A 1.11 1.10 -35.5 0 0 956.97 1230.76
  C 961.18 1234.39 957.91 1239.05 953.75 1240.46
  C 951.03 1241.39 947.36 1241.07 944.36 1240.96
  Q 942.72 1240.90 942.71 1239.26
  L 942.70 1238.71
  Q 942.68 1237.05 944.33 1237.25
  C 946.53 1237.51 951.93 1238.04 953.20 1235.32
  A 2.05 2.05 0.0 0 0 951.95 1232.50
  Q 949.35 1231.67 946.69 1232.29
  Q 946.00 1232.46 945.99 1231.74
  L 945.99 1229.47
  Q 945.98 1228.78 945.38 1228.46
  Z"
/>
<path fill="#3b4197" d="
  M 990.08 1207.19
  C 990.79 1200.88 981.53 1200.76 979.38 1204.74
  Q 978.43 1206.50 976.48 1206.10
  L 972.94 1205.37
  Q 971.05 1204.98 971.85 1203.23
  C 975.13 1196.06 982.07 1195.10 989.00 1196.02
  Q 998.66 1197.30 998.44 1207.23
  C 998.30 1213.80 997.55 1221.24 999.46 1227.54
  A 0.90 0.90 0.0 0 1 998.76 1228.68
  Q 995.97 1229.20 993.15 1228.75
  A 1.37 1.36 76.2 0 1 992.28 1228.22
  L 990.98 1226.49
  A 1.02 1.01 -36.6 0 0 989.56 1226.29
  C 986.16 1228.81 981.85 1230.32 977.68 1229.17
  C 972.64 1227.78 968.95 1222.69 970.70 1217.42
  C 973.34 1209.47 983.25 1210.69 989.51 1207.96
  Q 990.02 1207.74 990.08 1207.19
  Z
  M 981.40 1215.57
  C 975.12 1217.73 981.13 1227.77 987.84 1222.01
  C 990.03 1220.12 990.43 1217.09 989.90 1214.35
  A 0.70 0.70 0.0 0 0 989.13 1213.80
  Q 985.12 1214.29 981.40 1215.57
  Z"
/>
<path fill="#3b4197" d="
  M 1019.7105 1229.5880
  A 16.97 16.48 94.9 0 1 1004.7402 1211.2723
  A 16.97 16.48 94.9 0 1 1022.6095 1195.7720
  A 16.97 16.48 94.9 0 1 1037.5798 1214.0877
  A 16.97 16.48 94.9 0 1 1019.7105 1229.5880
  Z
  M 1021.2026 1222.6600
  A 9.97 7.81 90.1 0 0 1029.0300 1212.7036
  A 9.97 7.81 90.1 0 0 1021.2374 1202.7200
  A 9.97 7.81 90.1 0 0 1013.4100 1212.6764
  A 9.97 7.81 90.1 0 0 1021.2026 1222.6600
  Z"
/>
<path fill="#3b4197" d="
  M 1108.94 1205.84
  C 1110.54 1207.64 1117.55 1208.83 1120.01 1209.41
  C 1123.52 1210.24 1127.28 1212.10 1128.68 1215.55
  C 1131.10 1221.52 1126.28 1227.38 1120.48 1228.79
  C 1112.80 1230.65 1103.56 1229.31 1100.22 1221.45
  Q 1099.40 1219.53 1101.48 1219.28
  L 1105.62 1218.78
  A 2.94 2.92 -20.2 0 1 1108.42 1220.06
  Q 1112.48 1226.16 1119.44 1222.41
  Q 1121.94 1221.07 1120.19 1218.26
  A 1.19 1.18 -7.3 0 0 1119.55 1217.77
  C 1112.28 1215.58 1100.05 1214.82 1100.84 1204.96
  C 1101.55 1196.22 1112.01 1195.00 1118.99 1196.22
  Q 1125.14 1197.30 1127.66 1203.03
  A 1.21 1.21 0.0 0 1 1126.75 1204.71
  L 1121.95 1205.54
  A 1.98 1.97 68.6 0 1 1119.96 1204.67
  C 1117.76 1201.32 1113.20 1201.46 1109.88 1202.50
  A 2.07 2.07 0.0 0 0 1108.94 1205.84
  Z"
/>
<path fill="#3b4197" d="
  M 1145.10 1226.88
  A 1.21 1.03 -40.3 0 0 1145.04 1227.24
  L 1145.01 1239.12
  Q 1145.01 1241.01 1143.13 1241.01
  L 1138.41 1241.03
  Q 1136.68 1241.03 1136.68 1239.29
  L 1136.69 1197.39
  Q 1136.69 1196.61 1137.48 1196.61
  L 1143.25 1196.60
  A 0.77 0.77 0.0 0 1 1144.02 1197.32
  Q 1144.04 1197.58 1144.14 1197.83
  Q 1144.91 1199.68 1146.62 1198.63
  Q 1155.76 1193.03 1162.54 1199.48
  C 1169.07 1205.70 1169.45 1218.36 1163.50 1225.09
  C 1158.87 1230.33 1151.93 1231.11 1146.46 1226.30
  Q 1145.61 1225.56 1145.10 1226.88
  Z
  M 1152.1553 1222.9177
  A 10.28 7.18 88.8 0 0 1159.1184 1212.4896
  A 10.28 7.18 88.8 0 0 1151.7247 1202.3623
  A 10.28 7.18 88.8 0 0 1144.7616 1212.7904
  A 10.28 7.18 88.8 0 0 1152.1553 1222.9177
  Z"
/>
<path fill="#3b4197" d="
  M 1180.79 1216.02
  Q 1181.02 1224.14 1189.54 1222.83
  Q 1191.36 1222.55 1192.40 1220.05
  Q 1193.07 1218.43 1194.78 1218.82
  L 1199.49 1219.90
  Q 1201.11 1220.27 1200.40 1221.78
  Q 1197.88 1227.11 1192.00 1228.79
  Q 1184.71 1230.88 1179.63 1227.87
  C 1168.90 1221.49 1169.24 1202.84 1180.49 1197.19
  C 1187.71 1193.56 1196.81 1196.98 1199.93 1204.49
  Q 1201.24 1207.63 1201.32 1212.76
  Q 1201.36 1215.43 1198.88 1215.42
  Q 1190.17 1215.40 1181.33 1215.46
  A 0.54 0.54 0.0 0 0 1180.79 1216.02
  Z
  M 1182.14 1210.03
  L 1191.74 1210.01
  A 1.29 1.29 0.0 0 0 1193.02 1208.72
  L 1193.02 1208.59
  A 6.30 5.94 89.9 0 0 1187.07 1202.30
  L 1186.77 1202.30
  A 6.30 5.94 89.9 0 0 1180.84 1208.61
  L 1180.84 1208.74
  A 1.29 1.29 0.0 0 0 1182.14 1210.03
  Z"
/>
<path fill="#3b4197" d="
  M 1227.54 1205.31
  C 1225.22 1200.95 1219.61 1201.70 1216.88 1205.17
  C 1214.41 1208.30 1214.85 1217.84 1217.65 1220.70
  C 1220.24 1223.34 1225.85 1223.89 1227.60 1219.81
  Q 1228.33 1218.09 1228.75 1217.17
  Q 1229.01 1216.59 1229.64 1216.70
  L 1235.20 1217.72
  A 1.51 1.51 0.0 0 1 1236.34 1219.75
  C 1230.93 1233.92 1211.35 1232.46 1207.42 1218.26
  C 1206.20 1213.84 1206.71 1207.93 1208.76 1203.83
  C 1214.25 1192.86 1231.46 1192.68 1236.00 1205.05
  A 0.82 0.82 0.0 0 1 1235.37 1206.15
  L 1229.41 1207.20
  Q 1228.79 1207.31 1228.43 1206.79
  Q 1227.94 1206.06 1227.54 1205.31
  Z"
/>
<path fill="#3b4197" d="
  M 1277.18 1226.09
  C 1260.22 1238.24 1249.61 1214.61 1265.75 1210.78
  C 1268.76 1210.07 1275.10 1209.55 1277.33 1207.56
  Q 1277.70 1207.22 1277.68 1206.72
  Q 1277.50 1203.31 1274.51 1202.47
  Q 1269.10 1200.94 1266.29 1205.35
  A 1.73 1.73 0.0 0 1 1264.58 1206.14
  L 1260.37 1205.53
  A 1.38 1.37 13.9 0 1 1259.27 1203.71
  C 1262.03 1195.94 1269.51 1195.06 1276.97 1196.16
  Q 1285.57 1197.43 1285.74 1206.24
  Q 1285.90 1214.46 1285.94 1222.65
  C 1285.95 1224.60 1286.37 1226.23 1287.04 1227.97
  A 0.53 0.53 0.0 0 1 1286.64 1228.68
  Q 1283.71 1229.22 1280.76 1228.78
  A 1.54 1.53 75.1 0 1 1279.77 1228.20
  L 1278.25 1226.24
  A 0.78 0.78 0.0 0 0 1277.18 1226.09
  Z
  M 1266.18 1220.79
  C 1267.59 1224.29 1271.77 1224.56 1274.65 1222.69
  Q 1278.89 1219.94 1277.52 1214.09
  A 0.65 0.65 0.0 0 0 1276.82 1213.59
  C 1273.22 1213.94 1263.87 1215.06 1266.18 1220.79
  Z"
/>
<rect fill="#3b4197" x="-4.16" y="-16.12" transform="translate(545.56,1212.71) rotate(0.1)" width="8.32" height="32.24" rx="1.35"/>
<path fill="#3b4197" d="
  M 852.86 1226.49
  A 0.93 0.92 60.8 0 0 851.44 1226.08
  C 848.18 1228.51 844.37 1230.25 840.28 1229.30
  Q 832.78 1227.55 832.08 1218.73
  Q 831.70 1213.82 832.07 1198.33
  A 1.75 1.75 0.0 0 1 833.79 1196.62
  L 838.65 1196.54
  Q 840.37 1196.51 840.32 1198.23
  Q 839.92 1213.77 840.50 1218.50
  C 841.35 1225.35 852.32 1224.33 852.27 1216.75
  Q 852.23 1208.99 852.64 1197.11
  Q 852.65 1196.71 853.05 1196.70
  L 860.76 1196.60
  A 0.49 0.48 0.0 0 1 861.25 1197.08
  L 861.25 1227.49
  Q 861.25 1228.01 860.77 1228.22
  C 858.21 1229.36 854.15 1229.73 852.86 1226.49
  Z"
/>
<rect fill="#3b4197" x="1242.96" y="1196.57" width="8.32" height="32.26" rx="1.34"/>
</svg>
