<?xml version="1.0" encoding="UTF-8" standalone="no"?>
<!DOCTYPE svg PUBLIC "-//W3C//DTD SVG 1.1//EN" "http://www.w3.org/Graphics/SVG/1.1/DTD/svg11.dtd">
<svg xmlns="http://www.w3.org/2000/svg" version="1.1" viewBox="0.00 0.00 1448.00 1448.00">
<path fill="#3b4197" d="
  M 477.28 431.75
  C 466.76 386.23 472.58 339.20 498.32 299.59
  C 513.70 275.92 538.17 263.29 565.89 260.88
  C 568.03 260.70 570.11 259.76 572.16 259.85
  C 604.14 261.15 630.27 273.38 647.79 300.43
  Q 668.99 333.14 672.28 372.75
  C 675.56 412.31 669.55 449.05 648.40 482.92
  C 634.90 504.54 615.41 519.27 590.01 522.10
  Q 578.02 523.44 563.96 522.58
  Q 552.25 521.87 544.22 519.59
  C 519.31 512.51 502.63 493.42 491.45 470.53
  Q 481.58 450.32 477.28 431.75
  Z
  M 604.36 462.90
  C 624.21 421.29 624.06 367.90 606.09 326.06
  C 600.60 313.26 590.82 302.69 576.36 301.74
  C 574.58 301.62 572.01 300.72 570.46 300.99
  Q 552.86 304.01 543.21 318.97
  C 529.31 340.52 524.80 366.49 524.47 391.74
  C 524.11 418.16 532.19 485.27 571.85 482.91
  Q 578.54 482.51 581.19 482.20
  C 591.81 480.96 599.86 472.33 604.36 462.90
  Z"
/>
<path fill="#3b4197" d="
  M 340.94 310.51
  L 334.64 371.03
  A 1.61 1.61 0.0 0 0 336.49 372.79
  C 363.53 368.58 396.97 369.04 421.31 383.91
  C 442.13 396.63 458.03 419.96 456.24 445.27
  Q 456.23 445.37 456.05 448.73
  C 455.54 458.10 451.01 468.21 445.87 475.90
  C 427.59 503.28 400.50 516.58 368.50 520.70
  Q 340.52 524.29 319.00 521.95
  Q 300.53 519.94 282.16 517.38
  A 0.71 0.71 0.0 0 1 281.55 516.77
  L 275.65 473.25
  A 0.35 0.35 0.0 0 1 276.15 472.88
  C 301.09 484.88 339.90 491.15 366.98 477.45
  C 389.93 465.83 407.89 436.43 382.11 415.61
  C 371.90 407.36 358.87 403.52 346.00 402.16
  Q 322.69 399.68 304.00 403.26
  Q 291.58 405.64 279.25 408.13
  A 0.36 0.35 85.1 0 1 278.82 407.76
  L 284.46 269.28
  A 0.76 0.75 1.2 0 1 285.22 268.56
  L 444.17 268.63
  A 0.54 0.54 0.0 0 1 444.71 269.17
  L 444.77 309.39
  A 0.42 0.42 0.0 0 1 444.35 309.81
  L 341.71 309.82
  Q 341.01 309.82 340.94 310.51
  Z"
/>
<rect fill="#3b4197" x="686.54" y="268.65" width="35.60" height="68.10" rx="0.62"/>
<path fill="#3b4197" d="
  M 942.68 527.79
  A 1.63 1.62 -16.8 0 0 945.02 529.04
  L 985.81 508.48
  A 1.22 1.21 56.4 0 1 987.28 508.78
  L 996.17 519.31
  A 2.26 2.25 -30.2 0 0 998.68 519.97
  Q 1003.33 518.27 1008.20 515.45
  Q 1032.58 501.37 1051.81 480.82
  Q 1056.97 475.32 1059.71 469.96
  C 1061.50 466.48 1061.23 455.99 1060.21 453.29
  Q 1058.48 448.72 1057.31 443.65
  A 0.51 0.51 0.0 0 1 1058.00 443.06
  L 1067.47 446.85
  A 0.95 0.95 0.0 0 0 1068.77 445.91
  C 1068.52 441.28 1061.85 432.20 1058.86 428.16
  Q 1037.06 398.72 1009.74 374.22
  Q 1001.65 366.97 992.67 360.82
  C 988.84 358.19 979.94 353.68 975.75 354.67
  C 972.54 355.43 968.89 355.53 966.09 356.33
  C 944.68 362.48 933.19 382.80 920.88 399.62
  C 914.17 408.79 905.51 417.29 894.26 419.92
  C 890.94 420.69 888.60 419.64 886.35 417.41
  Q 885.97 417.04 886.26 416.59
  Q 913.45 374.84 940.69 333.15
  Q 941.79 331.46 942.16 329.79
  A 1.43 1.43 0.0 0 0 941.10 328.09
  C 924.40 324.01 909.71 313.18 908.16 295.00
  Q 907.93 292.27 910.83 289.89
  A 0.79 0.76 38.7 0 1 911.68 289.81
  Q 912.89 290.47 915.22 291.85
  Q 944.21 308.95 973.24 325.97
  Q 978.75 329.20 983.44 333.54
  Q 1034.44 380.81 1085.63 427.87
  C 1086.91 429.05 1088.12 428.80 1089.54 427.86
  Q 1098.47 421.89 1105.86 414.10
  C 1113.96 405.56 1105.35 397.81 1098.59 392.69
  C 1085.45 382.73 1071.62 374.17 1062.85 359.69
  C 1056.00 348.36 1051.18 336.15 1042.49 326.00
  Q 1039.59 322.62 1033.66 318.11
  Q 1031.06 316.13 1028.28 316.83
  Q 1014.58 320.27 1001.33 323.91
  A 0.98 0.97 87.2 0 1 1000.11 322.80
  C 1002.44 309.29 1007.27 302.49 1021.31 299.56
  C 1027.37 298.29 1037.66 296.65 1043.44 299.21
  C 1050.30 302.24 1057.05 310.06 1062.23 316.27
  Q 1071.15 326.97 1080.08 337.67
  Q 1086.93 345.89 1096.20 351.24
  Q 1112.43 360.61 1122.43 367.06
  C 1128.48 370.95 1136.20 377.55 1138.80 384.90
  Q 1140.36 389.29 1139.48 394.73
  C 1137.52 406.71 1130.34 415.94 1124.12 426.00
  Q 1122.14 429.20 1119.43 432.15
  C 1115.80 436.08 1109.41 441.61 1109.20 446.74
  C 1108.69 459.36 1118.83 463.20 1122.00 473.74
  Q 1122.55 475.56 1122.18 481.43
  C 1121.82 487.07 1119.98 492.49 1118.16 497.78
  A 0.61 0.61 0.0 0 1 1117.12 497.98
  Q 1099.63 477.62 1082.28 457.47
  Q 1081.88 457.00 1081.33 456.70
  A 1.15 1.15 0.0 0 0 1079.64 457.63
  L 1078.38 476.42
  A 1.66 1.63 76.2 0 1 1077.63 477.69
  C 1056.09 491.45 1036.92 509.48 1017.63 526.14
  Q 1010.67 532.16 1003.10 537.37
  C 997.99 540.90 994.51 536.40 992.39 532.37
  Q 991.12 529.97 987.24 529.85
  Q 977.70 529.57 970.60 535.87
  Q 961.40 544.05 949.23 546.16
  Q 945.46 546.81 940.96 547.67
  A 2.21 2.20 75.9 0 1 938.44 546.16
  C 935.91 538.13 931.06 531.92 926.25 525.03
  Q 919.24 515.00 917.74 504.00
  C 917.49 502.23 916.98 500.40 916.95 498.98
  Q 916.63 484.86 916.96 470.75
  C 916.98 469.78 917.46 468.94 917.54 468.07
  C 919.31 449.21 926.35 424.43 948.24 420.73
  Q 956.36 419.36 959.27 426.32
  C 960.53 429.33 961.18 434.30 958.70 436.93
  C 950.12 446.04 941.95 456.82 939.50 468.95
  Q 938.59 473.45 938.56 483.59
  C 938.55 491.41 938.17 499.63 939.03 507.39
  C 939.73 513.73 941.85 520.99 942.68 527.79
  Z"
/>
<path fill="#3b4197" d="
  M 696.32 431.47
  C 719.55 419.92 743.76 410.30 769.32 405.07
  Q 772.02 404.52 775.71 404.11
  C 789.88 402.56 804.76 403.01 814.75 403.29
  C 827.21 403.63 840.90 407.82 852.82 411.32
  Q 854.34 411.77 852.82 412.21
  Q 852.05 412.44 850.63 412.78
  Q 810.84 422.27 771.07 431.85
  C 763.26 433.73 754.10 434.61 747.04 436.47
  C 725.53 442.15 705.31 452.68 686.80 464.88
  Q 686.34 465.18 686.50 464.66
  C 688.75 457.51 690.69 450.42 692.82 443.12
  Q 694.27 438.14 695.15 433.03
  A 2.16 2.14 82.0 0 1 696.32 431.47
  Z"
/>
<path fill="#3b4197" d="
  M 719.15 656.74
  C 717.55 656.62 713.69 657.13 712.41 656.48
  Q 710.97 655.75 711.20 654.15
  Q 712.06 648.16 712.74 642.79
  Q 713.93 633.39 715.10 623.99
  C 716.53 612.51 718.85 600.63 721.56 589.34
  Q 731.18 549.27 748.68 511.92
  Q 759.55 488.72 771.63 466.13
  Q 771.99 465.46 773.46 463.95
  Q 787.95 449.11 802.31 434.66
  A 4.20 4.18 22.2 0 1 805.30 433.41
  Q 814.18 433.38 822.92 433.43
  Q 831.89 433.48 835.37 434.95
  C 841.82 437.66 844.90 443.80 846.23 450.54
  C 847.35 456.26 845.67 462.08 843.09 467.27
  A 0.77 0.77 0.0 0 1 841.80 467.40
  C 837.22 461.63 832.57 456.58 825.25 456.01
  Q 816.74 455.36 812.74 455.77
  C 802.19 456.85 792.56 468.54 787.43 477.19
  C 779.32 490.90 773.88 504.89 769.39 519.79
  Q 761.51 545.95 758.72 562.50
  Q 757.24 571.27 755.61 580.00
  C 755.38 581.28 755.28 583.99 754.74 585.87
  C 754.05 588.29 754.22 590.97 753.84 593.12
  Q 752.34 601.49 752.12 610.00
  Q 752.10 610.54 751.90 610.99
  Q 751.72 611.37 751.69 611.79
  L 750.36 629.41
  Q 750.30 630.17 751.06 630.19
  Q 766.39 630.69 781.53 628.93
  Q 785.37 628.48 789.01 628.24
  C 798.84 627.57 808.57 626.46 818.73 625.67
  Q 820.57 625.53 821.05 623.75
  L 838.27 560.71
  A 1.44 1.43 17.1 0 1 840.13 559.73
  L 842.70 560.63
  Q 843.23 560.81 843.22 561.37
  C 843.06 569.40 842.23 576.72 841.62 582.48
  Q 840.01 597.74 838.72 613.03
  Q 837.97 621.96 836.48 629.85
  Q 834.91 638.19 833.25 646.53
  A 1.84 1.82 -84.2 0 1 831.46 648.00
  Q 797.00 647.97 762.25 648.01
  C 756.14 648.02 747.70 651.72 739.50 652.03
  A 1.60 1.59 76.2 0 0 738.12 654.31
  Q 743.56 665.78 743.73 678.72
  C 743.84 687.09 748.65 694.26 754.67 699.35
  C 773.98 715.67 797.89 727.59 820.35 739.85
  Q 829.69 744.94 838.12 749.04
  Q 874.59 766.76 912.22 781.89
  Q 926.57 787.66 941.39 792.09
  Q 942.86 792.52 943.76 793.75
  C 958.68 814.05 983.15 825.50 1006.29 833.85
  Q 1027.86 841.63 1049.40 849.48
  Q 1061.30 853.81 1072.00 860.42
  Q 1075.20 862.40 1071.46 862.00
  L 992.04 853.64
  Q 991.51 853.58 991.10 853.25
  Q 980.41 844.75 974.96 841.04
  Q 933.02 812.52 887.34 790.47
  C 873.07 783.58 858.54 777.34 843.26 773.02
  Q 837.22 771.32 831.48 770.57
  A 1.23 1.22 83.1 0 0 830.18 772.23
  Q 835.29 785.40 837.37 799.12
  Q 840.93 822.61 841.22 844.75
  C 841.25 847.68 841.78 850.64 841.80 853.09
  Q 842.01 870.17 842.41 887.25
  C 842.70 899.04 843.73 910.73 847.29 921.51
  C 848.43 924.94 850.70 927.77 853.56 930.62
  Q 860.39 937.44 867.38 944.43
  A 0.57 0.57 0.0 0 1 866.97 945.40
  L 835.03 945.42
  A 2.32 2.31 72.8 0 1 833.12 944.41
  L 824.90 932.56
  Q 824.62 932.16 824.65 931.66
  Q 825.10 923.60 826.18 915.66
  C 826.83 910.92 826.85 905.88 827.46 900.98
  Q 827.81 898.08 828.02 894.00
  C 828.18 890.85 828.74 887.65 828.89 884.65
  C 829.40 874.57 831.75 865.51 830.34 855.27
  C 828.89 844.61 827.89 833.89 826.80 823.19
  C 826.36 818.84 825.48 814.24 825.06 810.25
  Q 823.38 794.36 821.46 778.50
  Q 821.06 775.22 821.03 772.06
  A 1.74 1.74 0.0 0 1 822.72 770.30
  L 826.30 770.20
  A 1.02 1.02 0.0 0 0 827.08 768.55
  Q 826.55 767.87 825.76 767.26
  C 809.33 754.74 792.30 747.83 774.46 739.61
  Q 738.59 723.09 720.27 687.59
  Q 719.95 686.97 719.95 686.26
  L 719.95 657.61
  Q 719.95 656.80 719.15 656.74
  Z"
/>
<path fill="#3b4197" d="
  M 871.73 644.71
  A 1.03 1.01 74.9 0 0 872.21 643.86
  Q 872.45 631.75 872.58 619.50
  C 872.62 614.65 873.41 608.87 873.39 603.50
  Q 873.38 602.26 874.43 598.30
  C 882.13 569.28 888.38 539.75 895.10 510.47
  Q 895.44 508.98 895.89 510.44
  Q 895.92 510.52 895.92 511.25
  C 895.98 522.32 895.79 533.55 896.71 544.59
  Q 896.91 546.96 896.93 548.66
  Q 897.12 572.54 897.30 583.25
  C 897.34 585.07 897.78 587.08 897.80 588.92
  C 897.99 605.52 898.02 622.16 898.53 638.76
  Q 899.07 656.08 899.06 673.25
  A 0.91 0.90 0.3 0 1 898.14 674.15
  L 892.01 674.14
  A 1.64 1.64 0.0 0 0 890.38 676.02
  Q 891.85 685.69 892.47 694.50
  C 892.54 695.48 893.00 696.28 893.02 697.19
  C 893.12 701.28 893.93 705.70 894.11 709.29
  Q 894.28 712.72 894.36 715.85
  Q 894.39 717.09 893.61 716.13
  C 886.03 706.80 882.61 696.42 879.66 685.01
  C 878.07 678.86 874.53 671.20 867.49 670.45
  C 864.24 670.11 861.00 669.38 857.81 669.34
  C 852.94 669.28 822.08 670.93 824.02 661.13
  A 1.96 1.96 0.0 0 1 825.34 659.66
  Q 847.69 652.61 869.50 645.71
  Q 870.74 645.32 871.73 644.71
  Z"
/>
<path fill="#3b4197" d="
  M 525.30 634.93
  C 527.31 635.12 529.68 635.00 531.59 635.21
  Q 549.01 637.04 558.24 639.04
  Q 612.92 650.86 662.94 675.85
  C 676.25 682.50 689.80 690.19 701.27 699.78
  Q 702.08 700.45 701.61 701.40
  Q 699.69 705.23 696.75 708.69
  C 691.41 715.00 688.02 714.34 681.11 711.59
  C 676.26 709.66 671.45 706.11 666.50 704.83
  Q 653.95 701.57 641.54 697.79
  C 608.76 687.79 576.66 673.20 543.25 667.43
  Q 516.08 662.75 509.00 662.63
  C 500.85 662.49 492.29 661.57 484.66 661.48
  Q 476.68 661.39 468.12 661.20
  A 1.45 1.45 0.0 0 1 466.70 659.68
  C 467.29 648.23 475.81 633.25 483.44 621.89
  C 501.40 595.16 524.62 569.49 547.03 547.03
  A 1.04 1.03 26.8 0 1 547.92 546.74
  C 561.19 548.78 575.77 548.18 589.18 547.69
  Q 589.81 547.66 589.38 548.12
  C 564.99 573.66 541.74 601.92 524.09 632.59
  A 1.57 1.57 0.0 0 0 525.30 634.93
  Z"
/>
<path fill="#3b4197" d="
  M 586.29 825.94
  C 515.67 812.84 490.32 736.04 475.39 675.88
  Q 475.03 674.44 476.51 674.44
  L 508.74 674.45
  A 1.11 1.11 0.0 0 1 509.85 675.55
  C 510.00 702.17 517.64 727.42 532.81 749.23
  C 552.54 777.59 580.40 798.12 600.71 825.92
  Q 601.40 826.86 600.33 827.30
  Q 600.14 827.38 599.25 827.27
  C 594.90 826.69 590.25 826.68 586.29 825.94
  Z"
/>
<path fill="#3b4197" d="
  M 947.05 778.09
  Q 946.50 779.20 945.49 778.48
  L 805.53 678.98
  A 0.90 0.90 0.0 0 1 805.18 677.99
  Q 806.37 673.88 810.99 674.67
  Q 825.72 677.18 840.34 686.18
  C 859.46 697.96 875.52 713.15 893.74 726.07
  Q 921.31 745.63 948.95 765.08
  C 952.24 767.40 956.87 766.17 960.60 766.48
  Q 966.17 766.93 968.19 767.04
  C 983.67 767.87 997.58 770.76 1010.54 779.73
  Q 1021.51 787.33 1032.19 795.14
  Q 1033.83 796.35 1031.86 795.85
  Q 991.85 785.76 951.02 775.25
  Q 948.76 774.67 947.05 778.09
  Z"
/>
<path fill="#3b4197" d="
  M 803.88 847.37
  L 803.49 847.62
  Q 802.49 848.28 803.03 849.35
  C 810.25 863.88 815.48 878.38 815.96 894.34
  C 816.25 903.92 817.21 910.97 811.16 917.65
  Q 804.75 924.72 798.74 931.69
  A 2.57 2.53 -78.3 0 1 797.62 932.44
  C 779.80 938.39 762.90 946.84 744.01 950.12
  Q 737.37 951.27 728.43 951.20
  Q 715.21 951.09 702.02 950.87
  C 700.72 950.85 699.40 950.53 697.99 950.49
  Q 681.25 950.09 664.50 949.83
  C 663.56 949.81 662.68 949.53 661.82 949.51
  Q 641.83 949.15 621.83 948.97
  C 620.72 948.96 619.71 948.66 618.50 948.64
  Q 596.62 948.18 574.75 947.97
  C 573.84 947.96 572.79 947.46 571.73 947.44
  Q 552.34 947.22 532.95 947.00
  C 532.05 946.99 531.77 946.47 530.95 946.46
  C 506.54 946.04 482.15 945.37 457.75 945.05
  C 456.95 945.04 456.03 944.58 455.07 944.57
  Q 435.37 944.29 415.67 944.12
  C 413.44 944.10 410.84 943.60 409.00 943.58
  Q 393.63 943.38 378.26 943.21
  C 365.91 943.07 350.77 942.22 337.00 942.23
  C 334.45 942.23 331.37 941.76 328.67 941.73
  Q 315.10 941.57 301.54 941.32
  C 294.11 941.19 283.50 940.40 274.50 940.56
  A 1.08 1.08 0.0 0 1 273.49 939.05
  L 282.00 919.75
  A 2.07 2.06 12.2 0 1 283.90 918.53
  Q 303.37 918.81 323.22 919.01
  C 323.99 919.01 324.64 919.48 325.25 919.49
  Q 348.90 919.74 372.55 919.98
  C 373.27 919.98 373.91 920.54 374.55 920.54
  C 400.20 920.87 425.87 921.43 451.50 922.17
  Q 469.43 922.69 487.36 922.83
  C 489.73 922.85 492.42 923.44 495.00 923.45
  C 555.17 923.78 615.33 923.73 675.50 923.70
  Q 700.25 923.68 724.80 920.58
  C 726.46 920.37 728.21 919.84 730.50 919.72
  Q 735.97 919.44 749.48 915.05
  C 759.38 911.83 769.37 906.80 775.52 898.51
  C 788.03 881.63 777.49 858.17 767.31 842.70
  C 754.76 823.63 740.12 807.08 724.68 790.82
  Q 708.90 774.19 674.96 741.28
  C 665.14 731.75 654.94 721.59 646.72 710.62
  Q 645.75 709.33 647.37 709.32
  C 650.31 709.29 657.14 708.54 659.76 710.22
  Q 704.62 738.89 743.53 775.21
  C 764.68 794.95 783.38 816.22 798.05 840.44
  A 1.04 1.04 0.0 0 0 799.44 840.81
  L 799.69 840.66
  Q 800.78 840.05 800.21 838.94
  C 785.91 811.16 773.09 788.39 752.02 768.73
  C 734.22 752.12 716.07 736.77 703.53 715.50
  Q 703.12 714.79 703.13 714.42
  Q 703.18 713.47 704.08 713.18
  Q 709.31 711.47 714.25 709.81
  Q 715.89 709.26 717.82 710.64
  Q 754.70 737.01 782.17 773.09
  C 799.82 796.28 813.59 822.86 818.92 851.70
  C 819.88 856.87 819.91 862.52 820.37 868.01
  Q 820.44 868.77 820.25 869.35
  A 0.57 0.56 35.8 0 1 819.26 869.51
  Q 811.54 859.10 805.32 847.73
  A 1.01 1.01 0.0 0 0 803.88 847.37
  Z"
/>
<path fill="#3b4197" d="
  M 1142.90 764.55
  A 1.29 1.29 0.0 0 0 1141.38 765.19
  L 1119.36 807.31
  A 0.79 0.79 0.0 0 1 1118.19 807.57
  L 1110.63 801.97
  A 3.07 3.06 20.1 0 1 1109.40 799.33
  C 1109.67 795.00 1109.90 790.67 1110.78 786.46
  C 1115.61 763.42 1128.78 730.27 1151.16 718.50
  A 1.27 1.27 0.0 0 1 1153.02 719.68
  C 1152.85 723.36 1153.61 727.06 1153.65 730.61
  C 1153.72 735.51 1154.56 740.58 1154.65 745.13
  C 1154.79 752.79 1155.54 758.62 1155.87 765.41
  C 1156.31 774.46 1157.02 783.26 1156.96 792.17
  A 1.46 1.46 0.0 0 1 1156.61 793.12
  L 1150.28 800.81
  A 0.41 0.41 0.0 0 1 1149.58 800.69
  Q 1149.23 799.80 1149.08 798.74
  Q 1146.67 782.48 1144.10 766.23
  Q 1143.88 764.84 1142.90 764.55
  Z"
/>
<path fill="#3b4197" d="
  M 1078.59 811.55
  C 1077.63 814.51 1077.54 818.31 1077.23 820.76
  Q 1076.40 827.41 1075.69 833.83
  Q 1075.58 834.83 1075.28 833.87
  Q 1074.13 830.19 1073.51 826.11
  C 1071.24 811.10 1068.27 796.06 1066.02 781.21
  Q 1065.77 779.61 1067.03 780.63
  Q 1088.32 797.82 1109.79 814.96
  C 1112.15 816.84 1111.01 818.42 1110.61 820.72
  Q 1107.98 836.07 1105.08 851.32
  Q 1104.74 853.10 1103.81 851.54
  Q 1099.69 844.63 1097.74 835.99
  C 1096.50 830.52 1095.59 825.98 1092.26 821.61
  Q 1087.33 815.16 1080.21 810.93
  A 1.11 1.10 -65.7 0 0 1078.59 811.55
  Z"
/>
<path fill="#3b4197" d="
  M 894.23 888.24
  Q 894.79 889.33 895.11 890.53
  Q 899.31 906.34 903.12 921.82
  A 0.55 0.54 -78.7 0 1 902.27 922.39
  C 882.93 908.17 875.44 880.53 873.63 857.96
  C 873.09 851.31 874.05 844.12 874.37 837.11
  C 874.78 828.06 876.07 818.94 876.37 809.92
  C 876.50 806.06 877.23 802.22 877.46 798.27
  A 0.64 0.64 0.0 0 1 878.56 797.86
  C 884.91 804.30 886.49 814.02 886.58 823.21
  C 886.69 834.94 885.90 847.31 887.10 858.94
  Q 887.56 863.39 888.06 867.82
  Q 889.29 878.61 894.23 888.24
  Z"
/>
<path fill="#3b4197" d="
  M 1166.55 802.13
  C 1182.12 827.18 1163.79 849.87 1145.87 865.87
  Q 1135.37 875.24 1124.90 884.66
  Q 1121.35 887.85 1118.49 891.46
  Q 1118.02 892.04 1117.98 892.79
  C 1117.73 897.57 1118.91 903.40 1119.22 906.72
  Q 1120.19 917.15 1121.82 927.50
  Q 1122.18 929.77 1121.96 931.65
  A 1.03 1.03 0.0 0 1 1120.94 932.56
  L 1102.42 932.56
  A 2.09 2.08 -9.1 0 1 1100.44 931.13
  C 1098.46 925.17 1096.42 919.51 1096.21 913.14
  C 1095.68 897.32 1101.63 879.27 1108.06 865.25
  Q 1109.45 862.20 1112.10 859.36
  Q 1138.89 830.63 1165.57 802.04
  A 0.62 0.62 0.0 0 1 1166.55 802.13
  Z"
/>
<path fill="#3b4197" d="
  M 590.89 836.46
  C 607.36 838.27 622.43 844.45 637.52 850.75
  C 644.63 853.72 650.92 855.84 657.86 858.12
  A 1.22 1.21 9.4 0 1 658.69 859.27
  L 658.65 865.23
  A 1.34 1.34 0.0 0 1 657.13 866.55
  C 646.61 865.13 637.45 862.46 627.50 859.96
  Q 619.70 858.00 607.75 858.05
  Q 587.50 858.13 567.25 858.29
  Q 561.69 858.33 549.76 860.55
  C 523.45 865.46 498.49 878.56 473.32 887.52
  Q 453.24 894.67 430.75 892.48
  Q 421.31 891.55 415.72 889.97
  C 401.48 885.92 388.84 883.90 375.17 884.26
  C 365.33 884.53 354.72 885.85 346.28 889.05
  Q 337.27 892.47 328.17 895.64
  Q 325.78 896.48 323.39 896.77
  A 0.42 0.42 0.0 0 1 323.00 896.11
  C 334.65 879.23 352.71 872.81 372.58 872.37
  C 393.96 871.90 411.78 874.21 431.42 875.30
  C 444.37 876.02 454.05 875.31 466.76 871.26
  Q 474.37 868.83 488.05 862.53
  C 503.25 855.53 517.45 848.30 533.80 841.87
  Q 541.48 838.85 549.51 837.16
  Q 555.44 835.90 564.10 835.87
  Q 580.52 835.81 588.75 835.92
  C 589.40 835.93 590.17 836.38 590.89 836.46
  Z"
/>
<path fill="#3b4197" d="
  M 417.73 864.23
  C 413.31 861.96 409.21 859.35 403.96 858.56
  C 397.72 857.62 390.96 858.32 384.57 857.77
  A 0.30 0.30 0.0 0 1 384.36 857.29
  Q 387.94 852.62 393.17 850.23
  C 396.37 848.76 399.82 849.13 403.24 849.56
  C 415.77 851.17 428.29 852.89 440.85 854.19
  C 444.93 854.62 449.24 855.40 453.05 855.83
  Q 461.28 856.77 469.40 858.08
  A 0.50 0.49 -73.3 0 1 469.77 858.78
  C 467.12 864.81 465.96 867.02 458.75 867.01
  Q 445.25 867.00 431.75 866.80
  Q 422.45 866.66 417.73 864.23
  Z"
/>
<path fill="#3b4197" d="
  M 414.08 1033.07
  C 394.60 1026.18 366.81 1019.43 351.51 1038.46
  C 347.84 1043.03 349.85 1052.27 352.55 1056.44
  C 358.49 1065.59 369.35 1072.15 377.47 1079.46
  Q 387.88 1088.84 398.39 1098.11
  C 416.98 1114.50 427.45 1134.58 415.50 1158.54
  C 403.08 1183.43 372.83 1188.68 347.90 1187.18
  Q 342.80 1186.88 337.70 1186.47
  C 327.68 1185.66 318.06 1183.40 308.27 1181.13
  C 306.54 1180.73 303.55 1180.31 303.42 1178.01
  Q 302.57 1163.22 300.89 1148.02
  A 0.69 0.69 0.0 0 1 301.86 1147.31
  C 313.12 1152.32 326.33 1156.84 338.74 1157.97
  C 341.86 1158.26 345.14 1158.83 348.10 1158.76
  C 356.13 1158.56 364.00 1157.31 370.87 1152.87
  C 381.84 1145.76 381.69 1131.75 372.59 1123.15
  Q 355.53 1107.00 337.69 1091.70
  C 324.14 1080.07 309.79 1067.62 308.69 1048.51
  Q 307.19 1022.62 327.31 1008.55
  C 341.44 998.66 362.64 996.60 379.75 997.62
  Q 396.81 998.64 413.76 1001.75
  A 2.00 2.00 0.0 0 1 415.39 1003.56
  L 417.74 1032.97
  A 0.79 0.79 0.0 0 1 416.83 1033.81
  Q 415.56 1033.60 414.08 1033.07
  Z"
/>
<path fill="#3b4197" d="
  M 1058.53 1079.63
  C 1059.56 1068.75 1059.14 1057.69 1059.60 1046.86
  A 0.91 0.90 -89.0 0 1 1060.50 1045.98
  L 1087.77 1046.00
  A 1.35 1.34 2.7 0 1 1089.11 1047.47
  C 1087.48 1064.79 1086.86 1082.14 1085.92 1099.50
  Q 1083.30 1147.77 1082.98 1182.25
  Q 1082.96 1184.53 1081.01 1184.44
  Q 1067.66 1183.81 1063.75 1184.27
  Q 1060.42 1184.67 1057.20 1184.40
  A 1.31 1.31 0.0 0 1 1056.01 1183.04
  L 1056.43 1171.24
  Q 1056.60 1166.51 1053.92 1170.41
  C 1038.27 1193.16 1001.30 1192.13 984.78 1170.67
  C 971.10 1152.89 973.63 1123.97 984.16 1105.92
  C 999.91 1078.92 1029.92 1076.52 1057.84 1080.19
  A 0.62 0.61 -83.7 0 0 1058.53 1079.63
  Z
  M 1010.52 1113.92
  C 1000.40 1129.94 999.46 1160.00 1023.00 1165.19
  Q 1037.31 1168.35 1047.27 1156.77
  C 1052.47 1150.74 1055.43 1140.41 1056.14 1131.38
  Q 1057.33 1116.29 1057.36 1101.43
  A 1.72 1.71 -84.0 0 0 1056.01 1099.75
  C 1039.60 1096.24 1020.20 1098.60 1010.52 1113.92
  Z"
/>
<path fill="#3b4197" d="
  M 470.16 1132.71
  A 0.81 0.80 -87.2 0 0 469.36 1133.44
  C 466.69 1162.49 490.29 1171.71 514.98 1166.62
  Q 524.61 1164.64 534.01 1161.79
  Q 534.49 1161.64 534.77 1161.73
  A 0.62 0.62 0.0 0 1 535.18 1162.42
  Q 533.43 1171.92 532.04 1181.50
  Q 531.83 1182.95 530.29 1183.32
  Q 509.10 1188.33 487.38 1186.55
  C 472.16 1185.30 458.49 1180.28 449.56 1167.45
  C 433.77 1144.77 439.35 1104.91 462.11 1088.51
  C 478.44 1076.74 507.84 1075.37 525.15 1085.53
  C 540.58 1094.57 546.42 1112.85 543.74 1130.27
  Q 543.36 1132.76 540.75 1132.74
  Q 505.29 1132.53 470.16 1132.71
  Z
  M 488.78 1097.77
  C 478.57 1100.87 472.73 1108.61 470.99 1119.00
  Q 470.74 1120.48 472.25 1120.48
  L 515.54 1120.53
  A 1.34 1.33 -88.2 0 0 516.87 1119.28
  C 517.95 1102.48 504.60 1092.97 488.78 1097.77
  Z"
/>
<path fill="#3b4197" d="
  M 656.48 1096.34
  Q 656.59 1096.30 656.97 1095.73
  Q 666.62 1081.15 684.76 1079.23
  C 703.26 1077.27 723.06 1083.78 724.06 1105.48
  Q 724.35 1111.60 723.28 1123.17
  C 721.43 1143.29 721.22 1163.19 720.47 1182.94
  A 1.40 1.40 0.0 0 1 719.07 1184.29
  L 692.64 1184.37
  A 1.11 1.11 0.0 0 1 691.53 1183.19
  Q 692.62 1167.49 693.41 1151.95
  C 693.83 1143.64 695.46 1127.40 694.95 1115.50
  C 694.42 1103.12 681.62 1098.50 671.38 1102.97
  C 661.51 1107.28 658.49 1118.34 657.34 1128.01
  Q 655.92 1140.04 655.63 1152.14
  C 655.37 1163.26 654.87 1172.33 654.92 1182.33
  A 1.99 1.99 0.0 0 1 652.93 1184.34
  L 627.57 1184.35
  Q 625.90 1184.35 625.93 1182.68
  C 626.03 1176.98 626.69 1170.22 626.92 1165.34
  Q 627.59 1151.17 628.52 1137.02
  Q 629.13 1127.65 628.96 1118.25
  C 628.82 1110.34 624.93 1102.40 616.00 1101.62
  C 603.66 1100.54 595.16 1109.40 592.92 1120.93
  Q 590.63 1132.73 590.09 1146.13
  Q 589.35 1164.65 589.01 1182.56
  A 1.79 1.79 0.0 0 1 587.22 1184.31
  L 560.94 1184.36
  A 0.89 0.89 0.0 0 1 560.05 1183.41
  Q 561.48 1161.07 562.47 1138.67
  C 562.66 1134.40 563.28 1129.23 563.43 1124.50
  Q 564.15 1103.25 564.54 1082.53
  A 1.23 1.23 0.0 0 1 565.77 1081.32
  L 591.08 1081.33
  A 1.17 1.16 -87.9 0 1 592.24 1082.58
  L 591.45 1093.58
  A 1.02 1.02 0.0 0 0 593.04 1094.49
  Q 593.35 1094.29 593.63 1093.90
  C 600.37 1084.63 610.96 1079.66 622.24 1078.81
  C 635.32 1077.84 650.14 1082.71 655.14 1095.74
  A 1.05 1.04 -20.7 0 0 656.48 1096.34
  Z"
/>
<path fill="#3b4197" d="
  M 770.96 1133.31
  C 769.36 1142.38 771.95 1152.77 778.27 1159.10
  C 793.04 1173.89 818.65 1166.85 835.59 1161.65
  A 0.73 0.72 -9.9 0 1 836.53 1162.31
  Q 836.54 1162.51 836.49 1162.76
  Q 834.30 1173.51 833.25 1181.00
  C 832.91 1183.38 831.80 1183.28 829.61 1183.76
  Q 809.79 1188.15 789.50 1186.64
  C 773.53 1185.46 759.06 1180.23 750.07 1166.43
  C 738.81 1149.14 739.97 1123.49 748.84 1105.59
  C 759.98 1083.13 785.00 1076.08 808.27 1079.62
  Q 819.53 1081.34 827.07 1085.96
  C 841.88 1095.03 848.26 1114.27 844.77 1131.14
  Q 844.47 1132.59 842.99 1132.59
  L 771.73 1132.67
  A 0.78 0.78 0.0 0 0 770.96 1133.31
  Z
  M 817.97 1119.20
  C 820.14 1089.09 779.66 1090.30 773.16 1114.98
  Q 772.62 1117.04 772.12 1119.01
  A 1.18 1.17 7.1 0 0 773.26 1120.47
  L 816.53 1120.54
  Q 817.87 1120.54 817.97 1119.20
  Z"
/>
<path fill="#3b4197" d="
  M 926.73 1132.33
  A 0.70 0.69 32.9 0 0 926.25 1132.43
  C 918.58 1137.22 908.63 1139.23 900.02 1141.78
  C 890.89 1144.48 879.42 1150.68 883.21 1162.26
  C 887.09 1174.12 906.17 1170.50 914.97 1168.06
  A 0.77 0.76 -88.1 0 1 915.89 1169.05
  Q 913.45 1176.00 911.99 1183.02
  Q 911.49 1185.38 909.03 1185.77
  C 898.08 1187.50 884.70 1188.01 873.96 1184.85
  C 860.17 1180.79 853.31 1166.53 855.26 1153.00
  C 857.27 1138.97 871.49 1131.11 883.38 1127.12
  Q 893.83 1123.62 911.76 1120.00
  C 917.35 1118.87 925.75 1115.70 927.24 1108.80
  C 930.01 1096.00 913.26 1094.71 905.25 1095.34
  Q 886.93 1096.77 869.90 1103.65
  A 0.65 0.65 0.0 0 1 869.01 1102.95
  L 871.43 1086.26
  A 2.25 2.24 -2.3 0 1 873.16 1084.39
  C 894.95 1079.44 923.25 1074.53 943.94 1084.30
  C 956.13 1090.06 956.86 1099.58 956.36 1111.74
  C 955.39 1135.37 953.53 1158.87 953.41 1182.52
  Q 953.40 1184.28 951.65 1184.29
  L 926.14 1184.37
  Q 924.83 1184.37 924.85 1183.06
  C 924.93 1176.72 925.84 1169.38 926.12 1163.93
  Q 926.93 1148.72 927.55 1133.50
  Q 927.59 1132.45 926.73 1132.33
  Z"
/>
<path fill="#3b4197" d="
  M 1190.82 1084.41
  C 1224.31 1098.33 1225.86 1144.73 1205.16 1169.41
  C 1185.60 1192.73 1137.96 1193.04 1117.76 1170.55
  C 1103.51 1154.68 1101.73 1130.35 1109.56 1110.99
  C 1122.25 1079.60 1162.11 1072.48 1190.82 1084.41
  Z
  M 1189.44 1135.63
  C 1190.55 1121.16 1186.92 1105.93 1172.13 1101.43
  C 1158.14 1097.18 1142.66 1103.12 1137.29 1117.54
  C 1132.86 1129.41 1132.14 1146.85 1140.33 1157.17
  C 1148.59 1167.59 1164.99 1169.18 1175.92 1162.15
  C 1184.54 1156.60 1188.66 1145.73 1189.44 1135.63
  Z"
/>
<path fill="#3b4197" d="
  M 1266.66 1092.22
  Q 1266.53 1095.39 1268.40 1092.83
  Q 1280.92 1075.77 1302.34 1079.59
  A 1.68 1.68 0.0 0 1 1303.73 1081.23
  Q 1303.74 1084.54 1303.83 1087.92
  C 1303.94 1092.36 1305.09 1097.09 1305.29 1101.83
  A 0.46 0.45 12.2 0 0 1305.55 1102.22
  Q 1306.10 1102.47 1305.75 1103.45
  A 1.22 1.21 -73.4 0 1 1304.34 1104.22
  Q 1300.87 1103.42 1297.34 1103.04
  C 1277.36 1100.89 1267.52 1114.19 1266.17 1132.51
  Q 1264.16 1159.73 1264.89 1182.25
  Q 1264.96 1184.44 1262.88 1184.38
  Q 1250.32 1184.02 1237.78 1184.54
  Q 1235.79 1184.63 1235.87 1182.63
  C 1236.69 1163.52 1238.47 1144.30 1238.88 1125.25
  C 1239.19 1111.16 1239.73 1097.04 1239.30 1082.94
  A 1.57 1.56 -1.1 0 1 1240.86 1081.33
  L 1265.72 1081.31
  Q 1267.14 1081.31 1267.08 1082.72
  L 1266.66 1092.22
  Z"
/>
<path fill="#3b4197" d="
  M 144.77 1113.63
  C 157.27 1084.19 191.08 1075.68 219.73 1084.01
  C 250.77 1093.04 260.12 1124.37 251.11 1152.71
  C 242.29 1180.45 217.18 1191.05 189.75 1188.72
  C 168.10 1186.87 149.80 1176.10 143.26 1154.45
  Q 142.01 1150.33 141.97 1144.40
  C 141.90 1134.31 140.66 1123.31 144.77 1113.63
  Z
  M 172.02 1122.66
  C 166.78 1139.32 169.68 1164.70 191.22 1168.03
  C 207.55 1170.55 219.24 1161.97 223.30 1146.76
  C 226.30 1135.52 226.57 1119.64 218.39 1110.25
  C 208.57 1099.00 187.84 1099.80 178.11 1110.91
  Q 174.39 1115.16 172.02 1122.66
  Z"
/>
</svg>
