<?xml version="1.0" encoding="UTF-8" standalone="no"?>
<!DOCTYPE svg PUBLIC "-//W3C//DTD SVG 1.1//EN" "http://www.w3.org/Graphics/SVG/1.1/DTD/svg11.dtd">
<svg xmlns="http://www.w3.org/2000/svg" version="1.1" viewBox="0.00 0.00 1448.00 1448.00">
<path fill="#3b4197" d="
  M 412.17 428.45
  C 415.50 396.70 427.51 364.55 446.08 338.18
  C 465.74 310.26 495.93 296.18 529.68 293.57
  Q 531.36 293.44 532.81 292.53
  Q 533.24 292.26 533.74 292.28
  C 572.48 293.94 606.25 307.49 628.18 340.31
  Q 655.69 381.48 660.33 430.79
  Q 662.57 454.60 660.72 480.24
  C 658.31 513.55 647.50 545.33 629.23 573.56
  C 611.30 601.25 585.04 618.78 551.75 620.59
  Q 537.80 621.35 523.19 620.60
  C 490.45 618.92 464.59 602.88 446.72 576.26
  C 417.93 533.37 406.74 480.11 412.17 428.45
  Z
  M 476.66 440.49
  Q 475.55 455.01 476.07 468.83
  Q 477.43 504.28 490.31 536.22
  C 498.03 555.36 510.65 569.97 532.56 571.33
  C 535.77 571.52 538.68 570.42 541.92 570.48
  C 560.31 570.80 571.80 556.41 578.45 540.51
  C 595.26 500.33 598.29 455.26 589.82 412.65
  Q 585.89 392.89 578.02 375.22
  C 570.73 358.84 558.68 345.76 540.02 344.78
  C 537.88 344.67 536.16 343.73 534.04 343.96
  C 518.02 345.72 505.61 355.52 497.32 369.25
  C 484.80 389.96 478.57 415.51 476.66 440.49
  Z"
/>
<path fill="#3b4197" d="
  M 239.87 433.27
  A 1.60 1.49 52.0 0 0 240.69 433.40
  C 262.09 430.81 282.92 429.65 304.23 432.79
  C 317.90 434.80 331.96 438.87 343.84 445.56
  Q 365.52 457.77 379.38 479.80
  Q 391.24 498.66 390.95 521.68
  C 390.93 522.90 390.36 524.20 390.43 525.46
  Q 390.66 529.45 389.91 533.22
  C 385.95 553.12 374.70 569.15 360.40 583.02
  Q 336.29 606.41 302.41 614.30
  C 271.46 621.50 238.35 622.58 206.79 618.58
  Q 189.84 616.43 173.11 614.21
  Q 172.50 614.13 172.41 613.51
  L 165.03 558.92
  Q 164.92 558.14 165.62 558.49
  Q 179.61 565.52 194.25 568.89
  C 202.79 570.85 211.86 572.69 220.64 573.32
  C 252.78 575.65 285.19 569.70 305.16 542.10
  C 315.41 527.94 317.27 510.54 306.69 496.29
  C 295.67 481.45 277.68 473.85 258.98 471.14
  Q 235.23 467.70 210.48 470.31
  C 197.00 471.74 182.88 475.27 169.48 477.63
  A 0.40 0.39 -3.6 0 1 169.02 477.23
  L 176.07 303.79
  Q 176.08 303.46 176.41 303.46
  Q 268.76 303.49 360.56 303.44
  Q 367.65 303.44 375.62 303.81
  A 0.55 0.55 0.0 0 1 376.15 304.35
  Q 376.78 329.10 376.21 354.47
  Q 376.20 354.96 375.71 354.96
  L 247.50 354.95
  A 0.91 0.91 0.0 0 0 246.59 355.77
  Q 242.54 395.89 238.66 431.80
  Q 238.57 432.70 239.87 433.27
  Z"
/>
<rect fill="#3b4197" x="678.46" y="303.47" width="44.30" height="85.04" rx="0.70"/>
<path fill="#3b4197" d="
  M 1170.26 538.20
  A 1.24 1.24 0.0 0 0 1169.37 539.39
  Q 1169.42 545.25 1168.71 551.00
  Q 1168.10 555.95 1168.16 562.30
  A 3.13 3.12 74.9 0 1 1166.59 565.05
  Q 1160.04 568.82 1154.02 573.31
  Q 1142.30 582.03 1129.36 593.12
  Q 1109.87 609.81 1090.43 626.45
  Q 1082.68 633.09 1073.80 639.00
  Q 1068.47 642.55 1064.49 638.55
  C 1061.56 635.61 1060.52 630.61 1055.67 630.15
  Q 1046.82 629.29 1040.56 632.50
  C 1034.81 635.44 1030.14 640.09 1024.74 643.52
  Q 1015.66 649.29 1003.96 650.69
  C 1000.92 651.05 998.12 652.11 994.96 651.78
  Q 993.55 651.62 993.06 649.99
  Q 990.31 640.82 984.35 632.99
  C 976.20 622.29 970.40 613.13 967.85 600.55
  Q 966.68 594.76 966.47 590.77
  Q 965.98 581.33 966.25 562.16
  Q 966.32 556.64 967.07 551.73
  C 967.80 546.90 968.36 542.06 969.46 537.31
  C 973.06 521.66 979.58 504.81 994.49 496.87
  Q 998.74 494.60 1005.77 493.49
  Q 1015.42 491.95 1019.09 500.22
  C 1020.07 502.41 1019.95 504.61 1020.52 506.82
  C 1021.17 509.35 1019.70 512.05 1018.11 513.88
  C 1007.26 526.33 997.17 538.64 994.11 555.43
  Q 993.13 560.79 993.22 568.16
  C 993.34 578.87 992.72 589.90 993.73 600.56
  Q 994.23 605.91 995.98 613.32
  Q 997.61 620.28 998.38 627.42
  A 1.89 1.88 73.5 0 0 1001.09 628.90
  L 1052.31 603.07
  Q 1053.30 602.57 1054.02 603.42
  Q 1059.75 610.12 1065.15 616.52
  C 1065.96 617.47 1067.01 617.96 1068.28 617.49
  Q 1076.00 614.57 1081.64 611.20
  Q 1110.75 593.82 1133.02 570.65
  C 1137.16 566.35 1141.07 561.38 1144.05 556.06
  C 1146.88 551.00 1146.42 545.06 1145.96 539.15
  Q 1145.65 535.13 1144.38 531.60
  C 1143.31 528.62 1141.90 524.79 1141.76 521.62
  A 0.36 0.36 0.0 0 1 1142.26 521.27
  L 1154.20 526.04
  A 1.27 1.27 0.0 0 0 1155.93 524.66
  Q 1155.41 521.58 1153.68 518.53
  Q 1147.47 507.59 1139.54 497.24
  C 1124.95 478.21 1108.73 460.45 1091.37 443.79
  Q 1077.38 430.37 1063.75 420.62
  C 1056.49 415.42 1046.39 409.30 1037.03 411.46
  C 1034.20 412.11 1031.27 412.06 1028.36 412.80
  C 1010.94 417.24 997.94 430.22 987.44 444.68
  Q 979.82 455.17 971.82 466.12
  Q 963.71 477.23 955.17 484.06
  Q 947.58 490.12 937.63 492.52
  C 932.94 493.65 931.62 491.82 928.13 489.46
  A 0.77 0.76 -56.4 0 1 927.92 488.41
  Q 963.53 433.61 996.80 382.31
  Q 997.74 380.88 997.80 379.28
  A 1.45 1.44 -82.1 0 0 996.68 377.80
  Q 987.66 375.67 978.45 370.71
  Q 959.05 360.26 955.31 337.13
  C 954.95 334.91 956.29 332.79 957.44 330.97
  Q 958.58 329.17 960.41 330.25
  Q 997.59 352.21 1034.52 373.85
  C 1038.91 376.42 1042.73 378.80 1046.64 382.41
  Q 1111.92 442.54 1176.81 502.20
  Q 1179.17 504.38 1181.86 502.49
  C 1189.84 496.89 1198.74 490.08 1204.44 482.24
  C 1208.97 476.01 1205.25 469.67 1200.51 464.74
  Q 1196.12 460.19 1191.24 456.64
  Q 1180.76 449.03 1169.63 440.61
  Q 1156.96 431.01 1148.70 417.47
  Q 1142.69 407.60 1137.86 397.84
  C 1131.31 384.60 1123.69 373.19 1111.23 364.55
  Q 1108.78 362.85 1106.04 363.53
  Q 1092.01 366.96 1072.14 372.33
  Q 1071.57 372.49 1071.01 372.30
  A 1.16 1.15 13.5 0 1 1070.24 371.05
  Q 1070.62 368.24 1071.27 365.30
  Q 1075.38 346.90 1093.93 342.62
  Q 1106.10 339.82 1118.83 340.26
  C 1128.48 340.59 1140.30 354.04 1146.09 360.88
  Q 1155.69 372.25 1167.61 386.81
  C 1174.36 395.05 1181.51 401.91 1191.42 407.58
  Q 1206.18 416.05 1218.50 423.57
  C 1228.61 429.74 1241.38 439.15 1244.30 451.45
  Q 1245.17 455.09 1244.41 459.93
  Q 1243.60 465.12 1242.47 468.91
  C 1240.75 474.64 1237.12 481.06 1233.79 486.17
  Q 1229.14 493.30 1224.70 500.72
  Q 1222.37 504.63 1219.44 507.51
  C 1215.18 511.71 1210.70 516.34 1207.75 521.39
  Q 1206.46 523.60 1206.50 527.30
  Q 1206.61 537.32 1213.71 545.40
  C 1217.61 549.83 1222.44 555.95 1222.62 562.01
  Q 1222.73 565.72 1222.63 569.68
  Q 1222.52 574.15 1221.02 578.86
  Q 1219.33 584.21 1217.81 589.57
  Q 1217.49 590.72 1216.58 589.96
  Q 1215.72 589.26 1215.01 588.42
  Q 1193.55 563.37 1172.45 538.86
  Q 1171.56 537.83 1170.26 538.20
  Z"
/>
<path fill="#3b4197" d="
  M 686.34 521.10
  Q 688.06 515.48 689.14 508.72
  A 2.35 2.35 0.0 0 1 690.42 506.98
  C 719.99 492.23 751.40 479.80 783.56 473.58
  Q 786.61 472.99 789.68 472.72
  C 792.73 472.45 795.69 471.76 798.72 471.70
  Q 818.67 471.29 838.73 471.64
  Q 842.10 471.70 845.35 472.31
  C 848.11 472.83 850.98 472.80 853.82 473.43
  Q 868.33 476.69 882.74 480.70
  Q 884.78 481.27 886.79 482.02
  Q 887.45 482.26 886.81 482.56
  Q 884.98 483.41 883.00 483.80
  C 874.96 485.39 867.16 487.48 858.99 489.43
  Q 818.34 499.13 780.87 507.97
  Q 775.23 509.30 764.72 510.87
  C 760.88 511.44 757.45 512.38 753.76 513.16
  Q 751.49 513.63 749.33 514.29
  C 724.41 521.91 701.54 533.83 679.70 547.89
  Q 678.93 548.39 678.30 549.05
  Q 677.77 549.61 678.02 548.88
  Q 680.90 540.65 683.66 530.34
  Q 684.75 526.29 686.34 521.10
  Z"
/>
<path fill="#3b4197" d="
  M 758.92 755.24
  Q 776.43 755.61 785.32 754.70
  Q 789.80 754.24 794.08 753.88
  Q 798.42 753.53 802.86 752.95
  C 806.80 752.45 810.98 752.61 815.04 752.17
  Q 828.08 750.74 841.74 749.70
  Q 843.16 749.59 845.77 748.71
  Q 846.25 748.55 846.38 748.06
  Q 847.29 744.39 848.17 741.10
  Q 857.46 706.51 867.87 668.80
  Q 868.47 666.64 870.54 667.32
  C 871.57 667.66 872.81 667.92 873.75 668.44
  Q 874.20 668.69 874.20 669.21
  Q 874.13 676.38 873.30 683.47
  Q 872.79 687.90 872.61 692.04
  C 872.44 696.00 871.74 699.64 871.40 703.51
  C 870.92 709.16 870.53 714.60 869.79 720.20
  C 869.12 725.28 869.03 730.38 868.31 735.36
  C 867.76 739.16 867.97 742.92 867.26 746.78
  Q 865.61 755.61 863.84 764.18
  C 863.00 768.26 862.59 772.27 861.38 776.15
  A 1.60 1.58 -81.2 0 1 859.87 777.27
  Q 818.04 777.37 779.12 777.32
  C 769.93 777.31 760.99 778.96 752.41 781.44
  Q 750.48 782.00 748.61 782.17
  C 747.11 782.31 744.29 782.14 743.10 783.13
  C 741.46 784.50 743.45 786.14 743.97 787.51
  Q 746.80 795.01 748.72 803.41
  C 749.81 808.17 749.57 812.94 749.93 817.78
  Q 750.66 827.81 758.33 836.19
  Q 763.50 841.83 769.11 846.15
  Q 786.01 859.15 804.70 869.59
  Q 825.94 881.45 848.78 893.89
  Q 857.54 898.67 866.70 903.11
  Q 919.13 928.58 971.76 948.99
  C 979.61 952.04 987.65 954.67 995.70 957.10
  C 997.44 957.62 998.74 958.12 999.86 959.63
  C 1015.25 980.47 1037.47 992.68 1061.09 1003.04
  Q 1066.16 1005.26 1071.63 1007.33
  Q 1092.97 1015.38 1119.24 1024.34
  C 1133.26 1029.12 1147.66 1034.88 1159.88 1042.85
  Q 1160.63 1043.33 1161.10 1044.08
  A 0.54 0.53 77.8 0 1 1160.58 1044.89
  C 1155.38 1044.24 1150.19 1044.19 1145.06 1043.17
  C 1142.00 1042.56 1138.83 1042.73 1135.70 1042.19
  C 1130.72 1041.33 1125.57 1041.46 1120.45 1040.79
  Q 1116.26 1040.24 1112.17 1039.74
  C 1108.24 1039.26 1104.40 1039.35 1100.49 1038.61
  C 1096.97 1037.95 1093.45 1038.04 1089.96 1037.41
  Q 1085.30 1036.56 1080.56 1036.50
  C 1078.06 1036.47 1075.65 1035.86 1073.19 1035.66
  Q 1067.71 1035.23 1061.00 1034.39
  Q 1059.38 1034.19 1058.12 1033.18
  Q 1041.72 1020.00 1020.16 1006.21
  Q 976.10 978.05 930.50 955.79
  C 926.31 953.75 921.97 951.93 917.79 949.98
  C 901.14 942.26 884.72 936.06 867.35 931.92
  Q 862.90 930.85 858.90 930.45
  Q 858.26 930.39 858.06 931.00
  C 857.29 933.35 859.53 937.14 860.30 939.39
  Q 865.61 954.90 867.43 968.59
  Q 869.05 980.76 870.16 993.23
  Q 871.40 1007.19 871.62 1026.89
  C 871.64 1028.55 872.31 1030.10 872.32 1031.82
  Q 872.44 1052.90 872.82 1075.44
  C 872.85 1077.33 873.52 1079.12 873.53 1080.99
  Q 873.55 1095.28 876.56 1109.50
  C 878.14 1116.96 880.30 1123.76 885.75 1129.17
  Q 894.53 1137.88 904.08 1147.54
  Q 905.49 1148.97 903.48 1148.97
  L 864.03 1148.97
  A 3.00 2.98 -17.4 0 1 861.58 1147.70
  Q 856.46 1140.41 851.25 1132.87
  C 850.33 1131.54 851.13 1130.07 851.26 1128.63
  C 851.62 1124.44 851.66 1120.45 852.30 1116.26
  Q 853.68 1107.10 853.94 1097.68
  C 854.02 1094.71 855.03 1091.97 855.05 1089.03
  Q 855.09 1084.42 855.65 1079.84
  C 856.41 1073.72 856.39 1068.19 857.24 1062.40
  Q 858.78 1052.01 858.69 1044.45
  Q 858.61 1037.60 856.77 1026.32
  C 856.29 1023.42 856.41 1020.50 855.90 1017.54
  Q 855.13 1013.05 855.03 1008.64
  C 854.98 1006.11 854.07 1003.72 853.93 1001.14
  Q 853.51 993.00 852.21 985.87
  Q 851.63 982.73 851.53 979.61
  C 851.45 976.69 850.56 973.91 850.47 971.02
  C 850.35 966.71 849.31 962.69 849.09 958.44
  C 848.94 955.48 848.29 952.68 848.10 949.75
  C 847.71 943.64 846.51 938.07 846.44 931.83
  A 1.53 1.53 0.0 0 1 847.91 930.29
  L 853.10 930.12
  A 1.17 1.17 0.0 0 0 854.17 928.57
  Q 853.81 927.55 852.96 926.89
  Q 838.32 915.51 822.80 907.94
  Q 810.27 901.82 792.66 893.86
  Q 780.48 888.36 769.27 881.29
  C 748.70 868.32 733.78 850.60 721.99 829.69
  C 721.04 828.01 720.17 826.37 720.18 824.35
  Q 720.26 805.89 720.14 789.57
  A 1.31 1.31 0.0 0 0 718.84 788.27
  L 710.90 788.23
  A 1.46 1.46 0.0 0 1 709.46 786.90
  Q 709.21 784.00 709.70 781.49
  C 710.33 778.31 710.38 775.09 710.80 771.80
  Q 713.03 754.21 715.35 738.61
  Q 717.22 726.07 722.64 702.43
  Q 724.90 692.57 729.56 676.62
  Q 732.38 667.00 735.70 657.54
  Q 746.88 625.68 762.40 593.94
  Q 773.27 571.71 784.36 550.82
  C 785.20 549.25 786.21 547.73 787.48 546.46
  Q 805.72 528.18 823.27 510.67
  A 4.77 4.74 22.8 0 1 826.74 509.27
  Q 837.34 509.43 847.45 509.23
  Q 858.69 509.01 863.21 510.75
  C 873.06 514.53 876.59 522.93 878.26 532.99
  Q 878.67 535.48 878.21 537.95
  Q 877.73 540.50 877.22 542.86
  Q 876.27 547.34 873.87 551.77
  A 0.88 0.87 41.7 0 1 872.38 551.85
  C 867.16 544.51 861.32 538.86 852.05 537.62
  Q 846.98 536.95 840.55 537.02
  C 835.54 537.07 831.22 537.80 826.87 540.33
  C 816.48 546.34 809.05 555.91 803.06 566.25
  Q 797.14 576.46 792.47 587.61
  Q 784.99 605.45 779.50 625.03
  C 777.27 632.93 775.08 640.79 773.29 648.90
  Q 770.97 659.36 768.78 669.41
  Q 768.08 672.61 767.67 676.18
  C 767.31 679.22 766.39 682.19 765.90 685.26
  C 764.80 692.25 763.55 699.15 762.68 706.52
  C 761.97 712.50 760.79 718.65 760.54 724.50
  C 760.37 728.35 759.69 732.11 759.49 735.93
  C 759.25 740.33 759.13 744.49 758.46 748.87
  Q 758.03 751.68 758.25 754.61
  Q 758.30 755.23 758.92 755.24
  Z"
/>
<path fill="#3b4197" d="
  M 909.99 773.06
  A 1.04 1.03 71.3 0 0 910.37 772.28
  Q 910.68 756.23 910.95 740.14
  Q 911.02 735.88 911.42 731.04
  C 911.87 725.48 911.49 720.25 913.11 714.78
  Q 916.95 701.79 919.13 691.93
  Q 920.68 684.94 922.40 677.61
  Q 927.30 656.75 932.23 634.89
  Q 933.59 628.82 935.17 622.37
  Q 937.23 613.96 938.87 605.11
  A 0.27 0.26 -81.3 0 1 939.15 604.90
  L 939.42 604.93
  A 0.57 0.56 -87.8 0 1 939.94 605.50
  Q 940.00 625.10 940.43 644.27
  C 940.47 646.00 941.05 647.59 941.07 649.32
  Q 941.38 671.14 941.72 696.85
  C 941.74 698.64 942.14 700.36 942.17 702.06
  Q 942.56 734.33 943.20 761.26
  Q 943.27 764.27 943.30 766.75
  Q 943.59 788.03 943.94 809.24
  A 0.75 0.75 0.0 0 1 943.19 810.00
  L 935.25 810.01
  A 2.13 2.12 -4.0 0 0 933.14 812.43
  Q 934.76 823.88 935.53 834.76
  C 935.67 836.74 936.47 838.59 936.47 840.57
  Q 936.46 843.77 937.03 847.16
  C 937.87 852.25 937.89 857.34 938.16 862.51
  Q 938.21 863.44 937.57 862.77
  C 932.73 857.69 928.36 850.04 926.12 844.06
  Q 922.29 833.87 919.29 822.25
  Q 918.41 818.84 916.40 814.83
  C 913.19 808.46 908.13 805.44 901.38 804.96
  C 898.46 804.75 895.67 803.99 892.70 804.01
  Q 881.04 804.08 873.75 803.95
  Q 864.74 803.80 855.13 800.71
  C 851.45 799.52 849.97 797.43 849.96 793.62
  Q 849.96 793.03 850.46 792.71
  Q 851.18 792.25 851.94 792.01
  Q 879.83 783.06 907.34 774.47
  Q 908.80 774.01 909.99 773.06
  Z"
/>
<path fill="#3b4197" d="
  M 476.58 761.16
  C 479.65 761.04 482.86 761.08 485.88 761.57
  C 489.72 762.19 493.49 762.31 497.38 762.93
  C 506.40 764.34 515.36 765.56 524.23 767.57
  Q 591.91 782.95 654.44 815.04
  Q 671.77 823.94 688.28 835.45
  Q 692.89 838.67 697.12 842.42
  A 1.15 1.14 -55.4 0 1 697.37 843.80
  Q 693.72 850.91 688.71 855.88
  Q 683.87 860.68 677.79 858.99
  Q 669.01 856.54 657.25 849.69
  Q 654.54 848.11 648.65 846.86
  Q 644.36 845.94 639.98 844.72
  Q 618.18 838.68 603.63 833.52
  Q 570.10 821.63 549.46 814.71
  Q 527.65 807.40 501.71 802.16
  Q 495.33 800.88 486.75 799.62
  Q 479.23 798.51 471.73 797.43
  Q 467.96 796.88 464.75 796.67
  C 461.57 796.45 458.50 795.75 455.36 795.61
  Q 448.43 795.30 441.91 795.06
  C 440.02 795.00 438.22 794.53 436.30 794.47
  Q 420.56 793.96 405.60 793.92
  Q 403.77 793.91 403.75 792.08
  Q 403.72 787.49 405.26 782.98
  Q 411.77 763.98 423.46 746.42
  Q 433.11 731.94 439.21 724.14
  Q 468.55 686.66 504.54 650.98
  Q 504.98 650.54 505.55 650.77
  C 506.73 651.24 507.69 651.51 508.96 651.59
  Q 534.17 653.29 556.94 651.93
  Q 558.05 651.87 557.21 652.60
  Q 555.74 653.88 554.48 655.23
  C 529.89 681.63 506.56 709.64 486.90 739.30
  Q 480.60 748.81 475.87 757.66
  Q 475.19 758.93 475.64 760.47
  Q 475.85 761.18 476.58 761.16
  Z"
/>
<path fill="#3b4197" d="
  M 526.86 991.97
  C 488.32 975.84 462.40 941.16 445.18 904.13
  Q 435.28 882.86 428.03 860.24
  Q 426.27 854.75 424.50 849.08
  Q 422.74 843.46 421.26 837.84
  Q 418.21 826.25 415.08 814.25
  Q 414.63 812.53 414.74 810.87
  A 0.54 0.54 0.0 0 1 415.28 810.36
  L 455.81 810.38
  Q 457.67 810.38 457.64 812.25
  Q 457.53 818.19 458.05 823.29
  Q 458.72 829.85 459.56 836.01
  Q 462.28 855.82 469.71 873.51
  C 479.64 897.14 495.65 918.51 513.76 937.06
  Q 530.48 954.17 547.98 972.02
  Q 560.82 985.11 571.36 1000.00
  Q 571.90 1000.77 571.04 1001.14
  Q 570.17 1001.52 569.29 1001.38
  Q 565.24 1000.74 560.89 1000.62
  Q 556.70 1000.50 552.27 999.57
  Q 537.70 996.51 526.86 991.97
  Z"
/>
<path fill="#3b4197" d="
  M 1005.50 936.97
  L 1003.77 940.65
  A 0.74 0.74 0.0 0 1 1002.68 940.94
  L 826.61 815.76
  Q 825.90 815.26 826.44 814.59
  L 829.30 810.97
  Q 829.65 810.52 830.21 810.46
  Q 831.57 810.29 832.97 810.48
  C 849.77 812.77 864.57 820.57 879.39 830.72
  Q 893.27 840.23 905.79 850.40
  C 916.76 859.30 927.33 867.97 938.85 876.11
  Q 972.84 900.11 1007.21 924.34
  A 5.51 5.48 -27.4 0 0 1010.42 925.35
  C 1015.49 925.35 1020.46 925.23 1025.48 925.80
  C 1030.66 926.38 1035.87 926.24 1041.15 926.99
  Q 1050.01 928.23 1056.96 929.93
  Q 1071.07 933.37 1084.02 942.48
  Q 1096.10 950.98 1110.94 961.74
  Q 1112.28 962.71 1110.68 962.31
  Q 1060.43 949.63 1009.74 936.70
  Q 1007.96 936.24 1006.34 936.39
  A 1.03 1.02 10.0 0 0 1005.50 936.97
  Z"
/>
<path fill="#3b4197" d="
  M 827.34 1027.89
  Q 826.41 1026.35 825.00 1026.72
  A 1.59 1.59 0.0 0 0 823.97 1028.96
  Q 832.61 1046.61 836.58 1061.41
  Q 837.93 1066.47 838.96 1072.70
  C 840.34 1081.05 840.16 1089.69 840.14 1098.14
  Q 840.13 1103.71 838.64 1107.20
  Q 836.45 1112.31 832.63 1116.27
  Q 826.01 1123.14 818.85 1131.48
  C 816.79 1133.87 811.53 1134.43 808.61 1135.53
  C 795.63 1140.41 783.00 1145.75 769.89 1150.01
  C 761.03 1152.89 751.68 1154.63 742.53 1156.23
  Q 740.95 1156.51 736.01 1156.47
  Q 717.41 1156.29 699.34 1155.84
  C 696.25 1155.77 693.07 1155.10 689.99 1155.07
  Q 670.73 1154.92 651.25 1154.24
  Q 647.92 1154.12 645.20 1154.08
  Q 616.61 1153.65 587.25 1152.76
  C 568.66 1152.21 550.11 1152.22 531.25 1151.64
  C 515.40 1151.15 498.63 1151.23 482.01 1150.54
  Q 463.02 1149.75 446.00 1149.53
  Q 443.96 1149.50 442.00 1149.47
  Q 417.34 1149.11 391.49 1148.13
  Q 381.40 1147.75 371.56 1147.64
  C 349.91 1147.39 327.76 1146.59 305.79 1146.42
  C 289.48 1146.28 272.44 1145.42 255.76 1145.13
  Q 247.71 1144.98 238.75 1144.74
  Q 237.15 1144.70 235.50 1144.66
  Q 210.50 1144.02 187.25 1143.65
  C 185.52 1143.63 183.28 1143.03 181.19 1143.02
  Q 171.93 1142.99 163.16 1142.77
  A 1.10 1.10 0.0 0 1 162.19 1141.22
  Q 167.28 1130.15 171.96 1119.09
  Q 172.67 1117.43 173.63 1116.07
  A 1.58 1.55 17.4 0 1 174.94 1115.40
  Q 198.03 1115.64 223.05 1116.01
  C 225.10 1116.04 226.99 1116.65 229.02 1116.66
  Q 260.65 1116.88 284.40 1117.34
  C 286.46 1117.38 288.49 1117.80 290.58 1117.84
  Q 308.36 1118.21 327.75 1118.66
  Q 328.49 1118.67 329.25 1118.69
  Q 358.42 1119.23 380.75 1119.76
  Q 382.09 1119.79 383.43 1119.97
  Q 384.80 1120.16 386.14 1120.18
  Q 407.12 1120.53 429.14 1120.77
  C 431.90 1120.80 434.46 1121.52 437.17 1121.50
  C 443.64 1121.46 450.14 1121.72 456.63 1121.73
  Q 573.04 1121.96 672.01 1121.76
  Q 678.19 1121.74 684.37 1121.56
  Q 689.00 1121.42 693.41 1120.95
  Q 697.77 1120.48 702.68 1120.40
  C 706.92 1120.33 711.01 1119.45 715.27 1119.16
  Q 717.76 1118.98 720.29 1118.69
  Q 731.63 1117.36 742.05 1115.21
  Q 747.80 1114.02 758.07 1110.73
  Q 770.39 1106.78 780.41 1099.49
  C 788.38 1093.71 795.85 1083.11 796.26 1072.81
  C 796.54 1065.74 796.65 1058.49 794.37 1051.52
  Q 791.65 1043.21 788.80 1037.41
  Q 779.08 1017.58 761.32 995.75
  C 732.46 960.26 696.33 925.66 662.28 892.35
  C 653.82 884.07 645.65 875.30 637.87 866.86
  Q 632.88 861.44 628.29 855.09
  A 0.68 0.68 0.0 0 1 628.83 854.01
  Q 635.22 853.87 641.78 854.00
  C 642.78 854.02 644.05 854.47 644.90 855.01
  Q 697.76 888.96 743.43 930.55
  C 771.54 956.16 797.57 984.69 817.46 1017.34
  A 1.57 1.54 -89.3 0 0 817.89 1017.79
  Q 819.34 1018.78 819.93 1018.21
  A 2.26 2.20 53.9 0 0 820.31 1015.58
  Q 809.60 995.12 797.82 975.22
  Q 786.92 956.79 773.66 941.89
  Q 765.65 932.87 753.61 921.90
  Q 741.45 910.81 729.30 899.15
  Q 711.13 881.72 699.25 860.94
  A 1.41 1.41 0.0 0 1 700.05 858.89
  Q 707.05 856.69 712.75 854.75
  Q 714.72 854.07 716.40 855.25
  Q 766.52 890.50 802.21 939.66
  C 820.32 964.60 834.58 992.35 841.78 1022.12
  C 842.72 1025.98 843.20 1029.86 844.00 1033.71
  C 845.16 1039.20 844.64 1044.59 845.61 1049.96
  Q 845.98 1052.01 845.57 1053.82
  A 0.74 0.74 0.0 0 1 844.25 1054.10
  Q 835.64 1042.61 828.39 1029.68
  Q 828.06 1029.10 827.34 1027.89
  Z"
/>
<path fill="#3b4197" d="
  M 1249.47 923.77
  A 1.67 1.67 0.0 0 0 1246.57 923.89
  Q 1234.59 946.97 1222.96 969.10
  Q 1220.93 972.96 1218.82 976.66
  A 0.66 0.66 0.0 0 1 1217.85 976.87
  L 1208.18 969.68
  A 3.92 3.91 22.1 0 1 1206.64 966.05
  C 1207.22 961.64 1207.07 957.30 1207.94 952.90
  Q 1214.32 920.47 1231.08 893.44
  C 1238.19 881.96 1246.66 871.86 1258.09 865.95
  A 2.46 2.44 26.8 0 1 1258.92 865.68
  Q 1261.19 865.33 1261.16 866.98
  C 1261.09 871.25 1261.86 875.13 1262.00 879.31
  Q 1262.19 885.11 1262.77 891.99
  Q 1263.44 899.86 1263.57 910.10
  Q 1263.59 911.37 1263.83 912.75
  Q 1264.12 914.46 1264.19 915.66
  Q 1264.60 922.83 1265.03 930.28
  C 1265.12 931.99 1265.51 933.83 1265.56 935.51
  Q 1265.88 946.26 1266.24 956.83
  A 2.97 2.97 0.0 0 1 1265.56 958.83
  L 1257.85 968.20
  A 0.59 0.59 0.0 0 1 1256.83 968.00
  C 1255.64 964.19 1255.50 960.24 1254.82 956.28
  C 1253.76 950.05 1253.13 944.11 1252.10 938.03
  C 1251.47 934.30 1250.49 930.76 1250.36 926.91
  Q 1250.29 925.09 1249.47 923.77
  Z"
/>
<path fill="#3b4197" d="
  M 1168.08 981.85
  C 1166.97 986.02 1166.88 990.18 1166.36 994.43
  Q 1165.40 1002.30 1164.72 1009.64
  Q 1164.54 1011.61 1164.03 1009.70
  C 1163.00 1005.80 1161.97 1001.77 1161.49 997.59
  Q 1160.83 991.95 1159.54 986.18
  C 1158.85 983.10 1158.73 979.88 1158.11 976.69
  Q 1155.22 961.67 1152.43 942.95
  Q 1152.32 942.20 1152.97 942.59
  Q 1153.41 942.85 1153.79 943.16
  Q 1180.95 964.99 1207.36 986.21
  C 1210.40 988.66 1208.52 990.97 1208.06 993.78
  Q 1205.45 1009.92 1202.34 1025.53
  C 1201.89 1027.83 1201.94 1030.18 1201.19 1032.39
  A 0.45 0.44 -52.7 0 1 1200.40 1032.50
  C 1195.05 1024.54 1192.78 1015.49 1190.73 1006.11
  C 1188.27 994.92 1179.67 986.70 1170.30 980.97
  A 1.49 1.48 23.2 0 0 1168.08 981.85
  Z"
/>
<path fill="#3b4197" d="
  M 937.18 1075.61
  Q 938.20 1077.48 938.83 1079.63
  Q 941.76 1089.66 944.34 1101.14
  C 945.77 1107.48 947.81 1113.62 948.96 1120.18
  Q 949.09 1120.96 948.44 1120.51
  C 934.71 1111.02 925.46 1094.89 920.34 1079.48
  Q 912.95 1057.23 911.85 1034.83
  C 911.59 1029.56 912.53 1023.96 912.84 1018.57
  C 913.07 1014.53 913.11 1010.50 913.65 1006.54
  C 914.48 1000.53 914.24 994.38 914.98 988.31
  C 915.62 983.11 915.41 977.78 916.17 972.50
  Q 916.65 969.10 916.86 965.17
  A 0.89 0.89 0.0 0 1 918.40 964.60
  Q 924.58 971.13 926.47 980.27
  Q 928.51 990.15 928.51 1000.48
  Q 928.50 1015.79 928.45 1031.81
  Q 928.44 1035.39 928.83 1039.07
  C 929.43 1044.72 929.49 1050.44 930.64 1056.00
  C 932.12 1063.10 933.61 1069.12 937.18 1075.61
  Z"
/>
<path fill="#3b4197" d="
  M 1198.89 1064.20
  Q 1202.43 1054.13 1206.00 1047.01
  Q 1206.98 1045.07 1208.42 1043.52
  Q 1243.64 1005.52 1277.01 969.66
  A 0.47 0.46 -40.9 0 1 1277.74 969.71
  Q 1286.93 983.32 1285.13 999.37
  C 1282.92 1019.12 1266.52 1036.92 1252.36 1049.57
  Q 1239.90 1060.69 1226.52 1072.50
  Q 1222.25 1076.27 1218.39 1081.17
  C 1216.83 1083.16 1217.38 1084.71 1217.37 1086.99
  Q 1217.37 1089.84 1217.87 1092.51
  Q 1218.55 1096.15 1218.70 1097.90
  Q 1219.94 1112.40 1222.28 1127.25
  Q 1222.61 1129.34 1222.48 1131.25
  A 1.74 1.73 -88.1 0 1 1220.75 1132.87
  L 1198.06 1132.87
  A 2.87 2.86 -6.3 0 1 1195.26 1130.63
  C 1194.01 1125.03 1191.21 1119.62 1190.64 1113.83
  C 1189.95 1106.88 1190.08 1099.18 1191.31 1092.38
  Q 1193.81 1078.64 1198.89 1064.20
  Z"
/>
<path fill="#3b4197" d="
  M 616.22 1030.35
  C 625.01 1034.17 633.64 1036.97 642.55 1039.94
  A 1.43 1.41 9.6 0 1 643.53 1041.30
  L 643.51 1049.45
  A 0.76 0.76 0.0 0 1 642.77 1050.21
  Q 640.52 1050.27 638.04 1049.94
  C 626.82 1048.45 615.95 1045.12 605.15 1042.40
  Q 600.32 1041.19 593.03 1040.52
  Q 587.97 1040.05 582.12 1040.02
  Q 556.59 1039.86 531.08 1040.16
  Q 526.18 1040.22 519.40 1041.03
  Q 513.22 1041.77 508.09 1042.85
  Q 488.34 1047.03 468.05 1054.64
  C 451.24 1060.95 434.40 1068.22 418.02 1074.30
  Q 404.82 1079.20 391.34 1081.95
  Q 388.45 1082.53 385.53 1082.68
  C 382.88 1082.81 380.42 1083.45 377.80 1083.48
  C 372.05 1083.53 366.38 1083.73 360.60 1082.96
  C 357.13 1082.49 353.63 1082.69 350.13 1081.99
  Q 339.57 1079.89 328.88 1077.02
  C 322.46 1075.30 316.68 1074.41 310.47 1073.46
  Q 306.62 1072.86 303.15 1072.75
  Q 292.32 1072.41 281.25 1072.85
  C 278.09 1072.97 275.00 1073.81 271.81 1074.16
  C 264.40 1074.97 257.23 1077.15 250.11 1079.76
  Q 239.97 1083.48 229.75 1087.03
  Q 227.17 1087.93 224.50 1088.31
  A 0.48 0.48 0.0 0 1 224.04 1087.56
  Q 234.58 1072.56 249.46 1065.66
  Q 264.10 1058.87 280.95 1057.94
  Q 292.87 1057.29 314.95 1058.01
  C 317.11 1058.08 319.10 1058.55 321.24 1058.75
  Q 336.58 1060.12 348.41 1060.48
  C 349.52 1060.51 350.62 1060.84 351.75 1060.91
  Q 367.42 1061.85 380.22 1061.30
  Q 390.08 1060.88 403.43 1056.37
  Q 415.81 1052.18 430.15 1045.57
  Q 447.48 1037.58 463.69 1029.87
  Q 480.23 1021.99 494.20 1017.22
  C 503.06 1014.19 512.71 1012.03 522.15 1012.16
  Q 533.46 1012.31 544.60 1012.14
  Q 555.12 1011.98 564.09 1013.40
  C 582.24 1016.27 598.82 1022.79 616.22 1030.35
  Z"
/>
<path fill="#3b4197" d="
  M 332.92 1042.61
  C 324.35 1039.17 315.64 1039.98 306.53 1039.95
  C 304.60 1039.94 302.87 1039.40 300.97 1039.44
  A 0.30 0.29 18.7 0 1 300.73 1038.96
  C 305.01 1033.85 310.55 1029.21 317.34 1028.70
  Q 319.19 1028.56 328.13 1029.69
  Q 344.95 1031.81 363.11 1034.23
  Q 366.90 1034.74 370.00 1034.87
  C 373.10 1035.01 376.01 1035.74 379.03 1036.08
  Q 393.01 1037.70 407.13 1039.87
  A 0.61 0.61 0.0 0 1 407.59 1040.72
  Q 406.01 1044.31 404.16 1047.64
  C 402.79 1050.12 398.11 1050.79 395.58 1050.81
  Q 370.83 1051.06 357.39 1050.72
  Q 351.23 1050.57 343.48 1047.82
  C 339.79 1046.51 336.47 1044.03 332.92 1042.61
  Z"
/>
</svg>
